<svg id="Layer_1" data-name="Layer 1" xmlns="http://www.w3.org/2000/svg" viewBox="0 0 360 504"><defs><style>.cls-1{fill:#00aeef;}.cls-2{fill:#fff;}.cls-3{fill:#231f20;}</style></defs><rect class="cls-1" width="360" height="504"/><rect class="cls-2" x="36" y="36" width="288" height="432" rx="9"/><path class="cls-3" d="M239.78,191.9907q24.9024,24.79,24.9024,59.9522,0,35.1649-24.9024,59.9511-24.9038,24.9039-60.0673,24.9034-35.05,0-59.7212-24.9034-24.6739-24.7866-24.6729-59.9511t24.6729-59.9522q24.67-24.7874,59.7212-24.7881Q214.8757,167.2026,239.78,191.9907ZM128.1765,303.2476q21.3282,21.0981,51.5357,21.0986,30.438,0,51.8818-20.9834,21.4424-21.2124,21.4434-51.42,0-30.2051-21.4434-51.42-21.4453-20.9824-51.8818-20.9834-30.2073,0-51.5357,21.0986-21.4446,21.0981-21.4443,51.3052Q106.7322,282.0336,128.1765,303.2476Zm100.7652-53.4961a44.1289,44.1289,0,0,1-13.6045,32.5127q-13.6056,13.49-36.2022,13.4892-21.0974,0-35.2788-12.1631t-14.1807-31.7627l13.1431-1.6142q0,16.7182,14.9878,24.2109a45.0556,45.0556,0,0,0,20.6372,4.8428q15.7939,0,26.5752-7.7822,10.78-7.7827,10.78-22.54ZM156.884,238.4536a13.4425,13.4425,0,0,0,9.9156-3.92,13.3006,13.3006,0,0,0,3.92-9.8,13.4076,13.4076,0,0,0-13.8355-13.835,13.11,13.11,0,0,0-9.7422,3.92,13.5441,13.5441,0,0,0-3.8623,9.915,13.3963,13.3963,0,0,0,3.8623,9.8A13.105,13.105,0,0,0,156.884,238.4536Zm46.1172,0a13.4405,13.4405,0,0,0,9.9151-3.92,13.3026,13.3026,0,0,0,3.92-9.8,13.4076,13.4076,0,0,0-13.835-13.835,13.11,13.11,0,0,0-9.7422,3.92,13.5421,13.5421,0,0,0-3.8623,9.915,13.3943,13.3943,0,0,0,3.8623,9.8A13.1042,13.1042,0,0,0,203.0012,238.4536Z"/></svg>