<svg id="Layer_1" data-name="Layer 1" xmlns="http://www.w3.org/2000/svg" viewBox="0 0 896 896"><defs><style>.cls-1{fill:#ffde17;}.cls-2{fill:#fff;}</style></defs><path class="cls-1" d="M180.93,64l8.9946-64h-64L116.93,64ZM132.8,8h25c14,0,22.5946,10,20.6271,24a27.3925,27.3925,0,0,1-27.373,24h-25Z"/><path class="cls-1" d="M166.4273,32c1.1243-8-3.173-13-10.173-13h-13L139.6,45h13C159.6,45,165.303,40,166.4273,32Z"/><path class="cls-1" d="M308.93,64l8.9946-64h-64L244.93,64ZM260.8,8h12l-5.2,37h36l-1.546,11h-48Z"/><path class="cls-1" d="M436.93,64l8.9946-64h-64L372.93,64ZM388.8,8h12l-2.53,18h24L424.8,8h12l-6.7459,48h-12l2.67-19h-24l-2.67,19h-12Z"/><polygon class="cls-1" points="564.93 64 573.925 0 509.925 0 500.93 64 564.93 64"/><path class="cls-2" d="M244.93,64l8.9946-64h-64L180.93,64ZM196.8,8h48l-1.5459,11h-36l-.9838,7h24l-1.546,11h-24L203.6,45h36l-1.546,11h-48Z"/><path class="cls-2" d="M372.93,64l8.9946-64h-64L308.93,64ZM324.66,9,324.8,8h32c10,0,16.0163,7,14.6109,17a19.2823,19.2823,0,0,1-19.3892,17h-20l-1.9676,14h-12Z"/><path class="cls-2" d="M359.4111,25c.5621-4-2.1568-6-5.1568-6h-19l-1.6865,12h19A6.8286,6.8286,0,0,0,359.4111,25Z"/><path class="cls-2" d="M500.93,64l8.9946-64h-64L436.93,64ZM451.6,45h14l3.654-26h-14L456.8,8h40l-1.5459,11h-14L477.6,45h14l-1.546,11h-40Z"/><polygon class="cls-1" points="667.114 20 657.084 38 672.084 38 667.114 20"/><path class="cls-1" d="M692.93,64l8.9946-64h-64L628.93,64ZM662.8,8h12l13.2541,48h-13l-1.8757-8h-20l-4.1243,8h-13Z"/><path class="cls-1" d="M820.93,64l8.9946-64h-64L756.93,64ZM772.8,8h48l-1.5459,11h-36l-.9838,7h24l-1.546,11h-24L779.6,45h36l-1.546,11h-48Z"/><polygon class="cls-1" points="896 64 896 0 893.925 0 884.93 64 896 64"/><path class="cls-2" d="M628.93,64l8.9946-64h-64L564.93,64ZM580.8,8h12l-2.53,18h24L616.8,8h12l-6.7459,48h-12l2.67-19h-24l-2.67,19h-12Z"/><path class="cls-2" d="M756.93,64l8.9946-64h-64L692.93,64ZM708.8,8h12l-2.53,18h9L742.8,8h15L736.5678,31l-.1405,1,14.627,24h-15l-10.33-19h-9l-2.67,19h-12Z"/><path class="cls-2" d="M884.93,64l8.9946-64h-64L820.93,64ZM836.8,8h11L868.584,38,872.8,8h12l-6.7459,48h-11L846.2705,26l-4.2162,30h-12Z"/><polygon points="396.725 37 420.725 37 418.054 56 430.054 56 436.8 8 424.8 8 422.271 26 398.271 26 400.8 8 388.8 8 382.054 56 394.054 56 396.725 37"/><polygon points="588.725 37 612.725 37 610.054 56 622.054 56 628.8 8 616.8 8 614.271 26 590.271 26 592.8 8 580.8 8 574.054 56 586.054 56 588.725 37"/><polygon points="491.6 45 477.6 45 481.254 19 495.254 19 496.8 8 456.8 8 455.254 19 469.254 19 465.6 45 451.6 45 450.054 56 490.054 56 491.6 45"/><path d="M649.0543,56l4.1243-8h20l1.8757,8h13L674.8,8h-12L636.0543,56Zm18.0595-36,4.97,18h-15Z"/><polygon points="302.054 56 303.6 45 267.6 45 272.8 8 260.8 8 254.054 56 255.054 56 302.054 56"/><path d="M178.4273,32C180.3948,18,171.8,8,157.8,8h-25l-6.7459,48h25A27.3925,27.3925,0,0,0,178.4273,32Zm-35.173-13h13c7,0,11.2973,5,10.173,13S159.6,45,152.6,45h-13Z"/><polygon points="238.054 56 239.6 45 203.6 45 204.725 37 228.725 37 230.271 26 206.271 26 207.254 19 243.254 19 244.8 8 196.8 8 190.054 56 191.054 56 238.054 56"/><polygon points="814.054 56 815.6 45 779.6 45 780.725 37 804.725 37 806.271 26 782.271 26 783.254 19 819.254 19 820.8 8 772.8 8 766.054 56 767.054 56 814.054 56"/><path d="M332.0219,42h20a19.2823,19.2823,0,0,0,19.3892-17C372.8165,15,366.8,8,356.8,8h-32L324.66,9l-6.6054,47h12Zm3.2324-23h19c3,0,5.7189,2,5.1568,6a6.8286,6.8286,0,0,1-6.8433,6h-19Z"/><polygon points="716.725 37 725.725 37 736.054 56 751.054 56 736.427 32 736.568 31 757.8 8 742.8 8 727.271 26 718.271 26 720.8 8 708.8 8 702.054 56 714.054 56 716.725 37"/><polygon points="846.271 26 867.054 56 878.054 56 884.8 8 872.8 8 868.584 38 847.8 8 836.8 8 830.054 56 842.054 56 846.271 26"/><path class="cls-1" d="M221.4327,96c1.1243-8-3.173-13-10.173-13h-13l-3.654,26h13C214.6057,109,220.3083,104,221.4327,96Z"/><path class="cls-1" d="M235.9354,128,244.93,64h-64l-8.9946,64Zm-48.13-56h25c14,0,22.5946,10,20.627,24a27.3925,27.3925,0,0,1-27.373,24h-25Z"/><path class="cls-1" d="M363.9354,128,372.93,64h-64l-8.9946,64Zm-48.13-56h12l-5.2,37h36l-1.546,11h-48Z"/><path class="cls-1" d="M491.9354,128,500.93,64h-64l-8.9946,64Zm-48.13-56h12l-2.53,18h24l2.53-18h12l-6.746,48h-12l2.67-19h-24l-2.67,19h-12Z"/><polygon class="cls-1" points="619.935 128 628.93 64 564.93 64 555.935 128 619.935 128"/><path class="cls-2" d="M299.9354,128,308.93,64h-64l-8.9946,64Zm-48.13-56h48L298.26,83h-36l-.9838,7h24L283.73,101h-24l-1.1243,8h36l-1.546,11h-48Z"/><path class="cls-2" d="M427.9354,128,436.93,64h-64l-8.9946,64Zm-48.27-55,.1406-1h32c10,0,16.0161,7,14.6107,17a19.2822,19.2822,0,0,1-19.3891,17h-20L385.06,120h-12Z"/><path class="cls-2" d="M414.4164,89c.5622-4-2.1567-6-5.1567-6h-19l-1.6865,12h19A6.8285,6.8285,0,0,0,414.4164,89Z"/><path class="cls-2" d="M555.9354,128,564.93,64h-64l-8.9946,64Zm-49.33-19h14l3.654-26h-14l1.546-11h40L550.26,83h-14l-3.654,26h14l-1.546,11h-40Z"/><polygon class="cls-2" points="171.935 128 180.93 64 116.93 64 107.935 128 171.935 128"/><path class="cls-1" d="M747.9354,128,756.93,64h-64l-8.9946,64Zm-30.13-56h12l13.254,48h-13l-1.8757-8h-20l-4.1243,8h-13Z"/><polygon class="cls-1" points="722.119 84 712.089 102 727.089 102 722.119 84"/><path class="cls-1" d="M875.9354,128,884.93,64h-64l-8.9946,64Zm-48.13-56h48L874.26,83h-36l-.9838,7h24L859.73,101h-24l-1.1243,8h36l-1.546,11h-48Z"/><path class="cls-2" d="M683.9354,128,692.93,64h-64l-8.9946,64Zm-48.13-56h12l-2.53,18h24l2.53-18h12l-6.746,48h-12l2.67-19h-24l-2.67,19h-12Z"/><path class="cls-2" d="M811.9354,128,820.93,64h-64l-8.9946,64Zm-48.13-56h12l-2.53,18h9l15.53-18h15L791.5732,95l-.1405,1,14.627,24h-15l-10.33-19h-9l-2.67,19h-12Z"/><polygon class="cls-2" points="896 128 896 120 885.06 120 891.806 72 896 72 896 64 884.93 64 875.935 128 896 128"/><polygon points="451.73 101 475.73 101 473.06 120 485.06 120 491.806 72 479.806 72 477.276 90 453.276 90 455.806 72 443.806 72 437.06 120 449.06 120 451.73 101"/><polygon points="643.73 101 667.73 101 665.06 120 677.06 120 683.806 72 671.806 72 669.276 90 645.276 90 647.806 72 635.806 72 629.06 120 641.06 120 643.73 101"/><polygon points="546.606 109 532.606 109 536.26 83 550.26 83 551.806 72 511.806 72 510.26 83 524.26 83 520.606 109 506.606 109 505.06 120 545.06 120 546.606 109"/><path d="M704.06,120l4.1243-8h20l1.8757,8h13l-13.254-48h-12L691.06,120Zm18.0594-36,4.97,18h-15Z"/><polygon points="357.06 120 358.606 109 322.606 109 327.806 72 315.806 72 309.06 120 310.06 120 357.06 120"/><path d="M233.4327,96c1.9676-14-6.627-24-20.627-24h-25l-6.746,48h25A27.3925,27.3925,0,0,0,233.4327,96ZM198.26,83h13c7,0,11.2973,5,10.173,13s-6.827,13-13.827,13h-13Z"/><polygon points="293.06 120 294.606 109 258.606 109 259.73 101 283.73 101 285.276 90 261.276 90 262.26 83 298.26 83 299.806 72 251.806 72 245.06 120 246.06 120 293.06 120"/><polygon points="869.06 120 870.606 109 834.606 109 835.73 101 859.73 101 861.276 90 837.276 90 838.26 83 874.26 83 875.806 72 827.806 72 821.06 120 822.06 120 869.06 120"/><path d="M387.0273,106h20a19.2822,19.2822,0,0,0,19.3891-17c1.4054-10-4.6107-17-14.6107-17h-32l-.1406,1L373.06,120h12ZM390.26,83h19c3,0,5.7189,2,5.1567,6a6.8285,6.8285,0,0,1-6.8432,6h-19Z"/><polygon points="771.73 101 780.73 101 791.06 120 806.06 120 791.433 96 791.573 95 812.806 72 797.806 72 782.276 90 773.276 90 775.806 72 763.806 72 757.06 120 769.06 120 771.73 101"/><polygon points="891.806 72 885.06 120 896 120 896 72 891.806 72"/><path class="cls-1" d="M290.9407,192l8.9947-64h-64l-8.9947,64Zm-48.13-56h25c14,0,22.5946,10,20.627,24a27.3923,27.3923,0,0,1-27.3729,24h-25Z"/><path class="cls-1" d="M276.438,160c1.1244-8-3.1729-13-10.1729-13h-13l-3.6541,26h13C269.611,173,275.3137,168,276.438,160Z"/><path class="cls-1" d="M418.9407,192l8.9947-64h-64l-8.9947,64Zm-48.13-56h12l-5.2,37h36l-1.5459,11h-48Z"/><path class="cls-1" d="M546.9407,192l8.9947-64h-64l-8.9947,64Zm-48.13-56h12l-2.53,18h24l2.53-18h12l-6.7459,48h-12l2.67-19h-24l-2.67,19h-12Z"/><polygon class="cls-1" points="674.941 192 683.935 128 619.935 128 610.941 192 674.941 192"/><path class="cls-2" d="M354.9407,192l8.9947-64h-64l-8.9947,64Zm-48.13-56h48l-1.5459,11h-36l-.9838,7h24l-1.5459,11h-24l-1.1244,8h36l-1.5459,11h-48Z"/><path class="cls-2" d="M482.9407,192l8.9947-64h-64l-8.9947,64Zm-48.27-55,.14-1h32c10,0,16.0163,7,14.6108,17a19.2822,19.2822,0,0,1-19.3891,17h-20l-1.9676,14h-12Z"/><path class="cls-2" d="M469.4218,153c.5622-4-2.1567-6-5.1567-6h-19l-1.6865,12h19A6.8285,6.8285,0,0,0,469.4218,153Z"/><path class="cls-2" d="M610.9407,192l8.9947-64h-64l-8.9947,64Zm-49.33-19h14l3.6541-26h-14l1.5459-11h40l-1.5459,11h-14l-3.6541,26h14l-1.5459,11h-40Z"/><polygon class="cls-2" points="226.941 192 235.935 128 171.935 128 162.941 192 226.941 192"/><path class="cls-1" d="M802.9407,192l8.9947-64h-64l-8.9947,64Zm-30.13-56h12l13.2541,48h-13l-1.8757-8h-20l-4.1243,8h-13Z"/><polygon class="cls-1" points="777.125 148 767.095 166 782.095 166 777.125 148"/><polygon class="cls-1" points="892.281 154 896 154 896 147 893.265 147 892.281 154"/><polygon class="cls-1" points="896 192 896 184 877.065 184 876.065 184 882.811 136 896 136 896 128 875.935 128 866.941 192 896 192"/><polygon class="cls-1" points="889.611 173 896 173 896 165 890.735 165 889.611 173"/><path class="cls-1" d="M171.9354,128h-64l-8.9947,64h64Zm-43.7947,27h17c8,0,14.2973,5,12.9622,14.5S149.0651,184,141.0651,184h-19c-5.537,0-10.0766-2.3752-12.0163-7l10.28-5.4746A4.1322,4.1322,0,0,0,124.4705,174h17a5.47,5.47,0,0,0,5.6324-4.5c.3514-2.5-1.3675-4.5-4.3675-4.5h-17c-8,0-14.2974-5-12.9622-14.5S121.811,136,129.811,136h18c5.537,0,10.0766,2.3755,12.0162,7l-10.28,5.4746A4.1322,4.1322,0,0,0,145.4056,146h-16a5.47,5.47,0,0,0-5.6324,4.5C123.4218,153,125.1407,155,128.1407,155Z"/><path class="cls-2" d="M738.9407,192l8.9947-64h-64l-8.9947,64Zm-48.13-56h12l-2.53,18h24l2.53-18h12l-6.7459,48h-12l2.67-19h-24l-2.67,19h-12Z"/><path class="cls-2" d="M866.9407,192l8.9947-64h-64l-8.9947,64Zm-48.13-56h12l-2.53,18h9l15.53-18h15l-21.2324,23-.1406,1,14.6271,24h-15l-10.33-19h-9l-2.67,19h-12Z"/><polygon points="506.735 165 530.735 165 528.065 184 540.065 184 546.811 136 534.811 136 532.281 154 508.281 154 510.811 136 498.811 136 492.065 184 504.065 184 506.735 165"/><polygon points="698.735 165 722.735 165 720.065 184 732.065 184 738.811 136 726.811 136 724.281 154 700.281 154 702.811 136 690.811 136 684.065 184 696.065 184 698.735 165"/><polygon points="601.611 173 587.611 173 591.265 147 605.265 147 606.811 136 566.811 136 565.265 147 579.265 147 575.611 173 561.611 173 560.065 184 600.065 184 601.611 173"/><path d="M759.0651,184l4.1243-8h20l1.8757,8h13L784.811,136h-12l-26.7459,48Zm18.0595-36,4.97,18h-15Z"/><polygon points="412.065 184 413.611 173 377.611 173 382.811 136 370.811 136 364.065 184 365.065 184 412.065 184"/><path d="M288.438,160c1.9676-14-6.627-24-20.627-24h-25l-6.7459,48h25A27.3923,27.3923,0,0,0,288.438,160Zm-35.1729-13h13c7,0,11.2973,5,10.1729,13s-6.827,13-13.827,13h-13Z"/><polygon points="348.065 184 349.611 173 313.611 173 314.735 165 338.735 165 340.281 154 316.281 154 317.265 147 353.265 147 354.811 136 306.811 136 300.065 184 301.065 184 348.065 184"/><polygon points="876.065 184 877.065 184 896 184 896 173 889.611 173 890.735 165 896 165 896 154 892.281 154 893.265 147 896 147 896 136 882.811 136 876.065 184"/><path d="M442.0327,170h20a19.2822,19.2822,0,0,0,19.3891-17c1.4055-10-4.6108-17-14.6108-17h-32l-.14,1-6.6054,47h12Zm3.2324-23h19c3,0,5.7189,2,5.1567,6a6.8285,6.8285,0,0,1-6.8432,6h-19Z"/><polygon points="826.735 165 835.735 165 846.065 184 861.065 184 846.438 160 846.579 159 867.811 136 852.811 136 837.281 154 828.281 154 830.811 136 818.811 136 812.065 184 824.065 184 826.735 165"/><path d="M129.4056,146h16a4.1322,4.1322,0,0,1,4.1418,2.4746L159.8272,143c-1.94-4.6245-6.4792-7-12.0162-7h-18c-8,0-15.7027,5-17.0378,14.5s4.9622,14.5,12.9622,14.5h17c3,0,4.7189,2,4.3675,4.5a5.47,5.47,0,0,1-5.6324,4.5h-17a4.1322,4.1322,0,0,1-4.1418-2.4746L110.0488,177c1.94,4.6248,6.4793,7,12.0163,7h19c8,0,15.7027-5,17.0378-14.5S153.1407,155,145.1407,155h-17c-3,0-4.7189-2-4.3675-4.5A5.47,5.47,0,0,1,129.4056,146Z"/><path class="cls-1" d="M331.4434,224c1.1243-8-3.173-13-10.173-13h-13l-3.654,26h13C324.6164,237,330.3191,232,331.4434,224Z"/><path class="cls-1" d="M345.9461,256l8.9946-64h-64l-8.9946,64Zm-48.13-56h25c14,0,22.5946,10,20.627,24a27.3924,27.3924,0,0,1-27.373,24h-25Z"/><path class="cls-1" d="M473.9461,256l8.9946-64h-64l-8.9946,64Zm-48.13-56h12l-5.2,37h36l-1.546,11h-48Z"/><path class="cls-1" d="M601.9461,256l8.9946-64h-64l-8.9946,64Zm-48.13-56h12l-2.53,18h24l2.53-18h12l-6.746,48h-12l2.67-19h-24l-2.67,19h-12Z"/><polygon class="cls-1" points="729.946 256 738.941 192 674.941 192 665.946 256 729.946 256"/><path class="cls-2" d="M409.9461,256l8.9946-64h-64l-8.9946,64Zm-48.13-56h48l-1.546,11h-36l-.9837,7h24l-1.546,11h-24l-1.1243,8h36l-1.546,11h-48Z"/><path class="cls-2" d="M524.4272,217c.5622-4-2.1568-6-5.1568-6h-19l-1.6864,12h19A6.8285,6.8285,0,0,0,524.4272,217Z"/><path class="cls-2" d="M537.9461,256l8.9946-64h-64l-8.9946,64Zm-48.27-55,.14-1h32c10,0,16.0162,7,14.6108,17a19.2823,19.2823,0,0,1-19.3892,17h-20L495.07,248h-12Z"/><path class="cls-2" d="M665.9461,256l8.9946-64h-64l-8.9946,64Zm-49.33-19h14l3.654-26h-14l1.546-11h40l-1.546,11h-14l-3.654,26h14l-1.546,11h-40Z"/><polygon class="cls-2" points="290.941 192 226.941 192 217.946 256 281.946 256 290.941 192"/><polygon class="cls-1" points="832.13 212 822.1 230 837.1 230 832.13 212"/><path class="cls-1" d="M857.9461,256l8.9946-64h-64l-8.9946,64Zm-30.13-56h12l13.254,48h-13l-1.8756-8h-20l-4.1244,8h-13Z"/><path class="cls-1" d="M162.9407,192l-8.9946,64h64l8.9946-64Zm20.2054,27h17c8,0,14.2973,5,12.9622,14.5S204.07,248,196.07,248h-19c-5.537,0-10.0765-2.3752-12.0161-7l10.28-5.4746A4.1322,4.1322,0,0,0,179.4759,238h17a5.47,5.47,0,0,0,5.6324-4.5c.3514-2.5-1.3676-4.5-4.3676-4.5h-17c-8,0-14.2973-5-12.9621-14.5s9.0378-14.5,17.0378-14.5h18c5.537,0,10.0766,2.3755,12.0162,7l-10.28,5.4746A4.1322,4.1322,0,0,0,200.411,210h-16a5.47,5.47,0,0,0-5.6324,4.5C178.4272,217,180.1461,219,183.1461,219Z"/><path class="cls-2" d="M793.9461,256l8.9946-64h-64l-8.9946,64Zm-48.13-56h12l-2.53,18h24l2.53-18h12l-6.746,48h-12l2.67-19h-24l-2.67,19h-12Z"/><polygon class="cls-2" points="857.946 256 896 256 896 238.674 890.741 229 881.741 229 879.07 248 867.07 248 873.816 200 885.816 200 883.287 218 892.287 218 896 213.696 896 192 866.941 192 857.946 256"/><path class="cls-2" d="M162.9407,192h-64l-8.9946,64h64Zm-15.87,56h-11l-20.7837-30L111.07,248h-12l6.746-48h11L137.6,230l4.2162-30h12Z"/><polygon points="561.741 229 585.741 229 583.07 248 595.07 248 601.816 200 589.816 200 587.287 218 563.287 218 565.816 200 553.816 200 547.07 248 559.07 248 561.741 229"/><polygon points="753.741 229 777.741 229 775.07 248 787.07 248 793.816 200 781.816 200 779.287 218 755.287 218 757.816 200 745.816 200 739.07 248 751.07 248 753.741 229"/><polygon points="656.616 237 642.616 237 646.27 211 660.27 211 661.816 200 621.816 200 620.27 211 634.27 211 630.616 237 616.616 237 615.07 248 655.07 248 656.616 237"/><path d="M814.07,248l4.1244-8h20l1.8756,8h13l-13.254-48h-12L801.07,248Zm18.06-36,4.97,18h-15Z"/><polygon points="467.07 248 468.616 237 432.616 237 437.816 200 425.816 200 419.07 248 420.07 248 467.07 248"/><path d="M343.4434,224c1.9676-14-6.627-24-20.627-24h-25l-6.746,48h25A27.3924,27.3924,0,0,0,343.4434,224ZM308.27,211h13c7,0,11.2973,5,10.173,13s-6.827,13-13.827,13h-13Z"/><polygon points="403.07 248 404.616 237 368.616 237 369.741 229 393.741 229 395.287 218 371.287 218 372.27 211 408.27 211 409.816 200 361.816 200 355.07 248 356.07 248 403.07 248"/><path d="M497.038,234h20a19.2823,19.2823,0,0,0,19.3892-17c1.4054-10-4.6108-17-14.6108-17h-32l-.14,1L483.07,248h12Zm3.2324-23h19c3,0,5.719,2,5.1568,6a6.8285,6.8285,0,0,1-6.8432,6h-19Z"/><polygon points="883.287 218 885.816 200 873.816 200 867.07 248 879.07 248 881.741 229 890.741 229 896 238.674 896 213.696 892.287 218 883.287 218"/><polygon points="137.6 230 116.816 200 105.816 200 99.07 248 111.07 248 115.287 218 136.07 248 147.07 248 153.816 200 141.816 200 137.6 230"/><path d="M184.411,210h16a4.1322,4.1322,0,0,1,4.1418,2.4746L214.8326,207c-1.94-4.6245-6.4792-7-12.0162-7h-18c-8,0-15.7027,5-17.0378,14.5s4.9621,14.5,12.9621,14.5h17c3,0,4.719,2,4.3676,4.5a5.47,5.47,0,0,1-5.6324,4.5h-17a4.1322,4.1322,0,0,1-4.1418-2.4746L165.0543,241c1.94,4.6248,6.4791,7,12.0161,7h19c8,0,15.7027-5,17.0379-14.5S208.1461,219,200.1461,219h-17c-3,0-4.7189-2-4.3675-4.5A5.47,5.47,0,0,1,184.411,210Z"/><path class="cls-1" d="M386.4489,288c1.1243-8-3.173-13-10.173-13h-13l-3.6541,26h13C379.6218,301,385.3245,296,386.4489,288Z"/><path class="cls-1" d="M400.9515,320l8.9946-64h-64l-8.9946,64Zm-48.13-56h25c14,0,22.5946,10,20.6271,24a27.3925,27.3925,0,0,1-27.373,24h-25Z"/><path class="cls-1" d="M528.9515,320l8.9946-64h-64l-8.9946,64Zm-48.13-56h12l-5.2,37h36l-1.5459,11h-48Z"/><path class="cls-1" d="M656.9515,320l8.9946-64h-64l-8.9946,64Zm-48.13-56h12l-2.53,18h24l2.53-18h12l-6.7459,48h-12l2.67-19h-24l-2.67,19h-12Z"/><polygon class="cls-1" points="729.946 256 720.952 320 784.952 320 793.946 256 729.946 256"/><path class="cls-2" d="M464.9515,320l8.9946-64h-64l-8.9946,64Zm-48.13-56h48l-1.5459,11h-36l-.9838,7h24l-1.546,11h-24l-1.1243,8h36l-1.5459,11h-48Z"/><path class="cls-2" d="M592.9515,320l8.9946-64h-64l-8.9946,64Zm-48.27-55,.1405-1h32c10,0,16.0162,7,14.6108,17a19.2823,19.2823,0,0,1-19.3892,17h-20l-1.9675,14h-12Z"/><path class="cls-2" d="M579.4326,281c.5622-4-2.1567-6-5.1567-6h-19l-1.6865,12h19A6.8285,6.8285,0,0,0,579.4326,281Z"/><path class="cls-2" d="M720.9515,320l8.9946-64h-64l-8.9946,64Zm-49.33-19h14l3.6541-26h-14l1.5459-11h40l-1.5459,11h-14l-3.6541,26h14l-1.5459,11h-40Z"/><polygon class="cls-2" points="345.946 256 281.946 256 272.952 320 336.952 320 345.946 256"/><polygon class="cls-1" points="848.952 320 896 320 896 312 895.076 312 893.2 304 873.2 304 869.076 312 856.076 312 882.822 264 894.822 264 896 268.267 896 256 857.946 256 848.952 320"/><polygon class="cls-1" points="877.106 294 892.106 294 887.135 276 877.106 294"/><path class="cls-1" d="M89.9461,256l-8.9946,64h64l8.9946-64Zm53.33,19h-36l-.9838,7h24l-1.546,11h-24l-1.1243,8h36l-1.5459,11h-48l6.7459-48h48Z"/><path class="cls-1" d="M281.9461,256h-64l-8.9946,64h64Zm-43.7945,27h17c8,0,14.2972,5,12.9621,14.5S259.0759,312,251.0759,312h-19c-5.537,0-10.0766-2.3752-12.0163-7l10.28-5.4746A4.1322,4.1322,0,0,0,234.4813,302h17a5.47,5.47,0,0,0,5.6324-4.5c.3513-2.5-1.3676-4.5-4.3676-4.5h-17c-8,0-14.2973-5-12.9622-14.5s9.0379-14.5,17.0379-14.5h18c5.537,0,10.0766,2.3755,12.0162,7l-10.28,5.4746A4.1322,4.1322,0,0,0,255.4164,274h-16a5.47,5.47,0,0,0-5.6325,4.5C233.4326,281,235.1516,283,238.1516,283Z"/><path class="cls-2" d="M784.9515,320h64l8.9946-64h-64Zm15.87-56h12l-2.53,18h24l2.53-18h12l-6.7459,48h-12l2.67-19h-24l-2.67,19h-12Z"/><path class="cls-2" d="M217.9461,256h-64l-8.9946,64h64Zm-15.87,56h-11l-20.7838-30-4.2162,30h-12l6.7459-48h11l20.7838,30,4.2162-30h12Z"/><polygon points="616.746 293 640.746 293 638.076 312 650.076 312 656.822 264 644.822 264 642.292 282 618.292 282 620.822 264 608.822 264 602.076 312 614.076 312 616.746 293"/><polygon points="808.746 293 832.746 293 830.076 312 842.076 312 848.822 264 836.822 264 834.292 282 810.292 282 812.822 264 800.822 264 794.076 312 806.076 312 808.746 293"/><polygon points="711.622 301 697.622 301 701.276 275 715.276 275 716.822 264 676.822 264 675.276 275 689.276 275 685.622 301 671.622 301 670.076 312 710.076 312 711.622 301"/><path d="M882.8218,264l-26.7459,48h13l4.1243-8h20l1.8757,8H896V268.267L894.8218,264Zm-5.7162,30,10.03-18,4.97,18Z"/><polygon points="522.076 312 523.622 301 487.622 301 492.822 264 480.822 264 474.076 312 475.076 312 522.076 312"/><path d="M398.4489,288c1.9675-14-6.6271-24-20.6271-24h-25l-6.7459,48h25A27.3925,27.3925,0,0,0,398.4489,288Zm-35.173-13h13c7,0,11.2973,5,10.173,13s-6.8271,13-13.8271,13h-13Z"/><polygon points="458.076 312 459.622 301 423.622 301 424.746 293 448.746 293 450.292 282 426.292 282 427.276 275 463.276 275 464.822 264 416.822 264 410.076 312 411.076 312 458.076 312"/><polygon points="90.076 312 91.076 312 138.076 312 139.622 301 103.622 301 104.746 293 128.746 293 130.292 282 106.292 282 107.276 275 143.276 275 144.822 264 96.822 264 90.076 312"/><path d="M552.0434,298h20a19.2823,19.2823,0,0,0,19.3892-17c1.4054-10-4.6108-17-14.6108-17h-32l-.1405,1-6.6054,47h12Zm3.2325-23h19c3,0,5.7189,2,5.1567,6a6.8285,6.8285,0,0,1-6.8432,6h-19Z"/><polygon points="192.606 294 171.822 264 160.822 264 154.076 312 166.076 312 170.292 282 191.076 312 202.076 312 208.822 264 196.822 264 192.606 294"/><path d="M239.4164,274h16a4.1322,4.1322,0,0,1,4.1418,2.4746L269.838,271c-1.94-4.6245-6.4792-7-12.0162-7h-18c-8,0-15.7027,5-17.0379,14.5s4.9622,14.5,12.9622,14.5h17c3,0,4.7189,2,4.3676,4.5a5.47,5.47,0,0,1-5.6324,4.5h-17a4.1322,4.1322,0,0,1-4.1418-2.4746L220.06,305c1.94,4.6248,6.4793,7,12.0163,7h19c8,0,15.7027-5,17.0378-14.5S263.1516,283,255.1516,283h-17c-3,0-4.719-2-4.3677-4.5A5.47,5.47,0,0,1,239.4164,274Z"/><path class="cls-1" d="M455.9569,384l8.9946-64h-64l-8.9946,64Zm-48.13-56h25c14,0,22.5946,10,20.627,24a27.3925,27.3925,0,0,1-27.373,24h-25Z"/><path class="cls-1" d="M441.4542,352c1.1244-8-3.173-13-10.173-13h-13l-3.654,26h13C434.6272,365,440.33,360,441.4542,352Z"/><path class="cls-1" d="M583.9569,384l8.9946-64h-64l-8.9946,64Zm-48.13-56h12l-5.2,37h36l-1.546,11h-48Z"/><path class="cls-1" d="M647.9569,384h64l8.9946-64h-64Zm15.87-56h12l-2.53,18h24l2.53-18h12l-6.746,48h-12l2.67-19h-24l-2.67,19h-12Z"/><polygon class="cls-1" points="784.952 320 775.957 384 839.957 384 848.952 320 784.952 320"/><path class="cls-2" d="M519.9569,384l8.9946-64h-64l-8.9946,64Zm-48.13-56h48l-1.546,11h-36l-.9837,7h24l-1.546,11h-24l-1.1243,8h36l-1.546,11h-48Z"/><path class="cls-2" d="M634.438,345c.5622-4-2.1568-6-5.1568-6h-19l-1.6865,12h19A6.8286,6.8286,0,0,0,634.438,345Z"/><path class="cls-2" d="M647.9569,384l8.9946-64h-64l-8.9946,64Zm-48.27-55,.1406-1h32c10,0,16.0162,7,14.6108,17a19.2823,19.2823,0,0,1-19.3892,17h-20l-1.9676,14h-12Z"/><path class="cls-2" d="M711.9569,384h64l8.9946-64h-64Zm14.67-19h14l3.654-26h-14l1.546-11h40l-1.546,11h-14l-3.654,26h14l-1.546,11h-40Z"/><polygon class="cls-2" points="400.952 320 336.952 320 327.957 384 391.957 384 400.952 320"/><path class="cls-1" d="M208.9515,320h-64l-8.9946,64h64Zm-10.67,19h-36l-.9837,7h24l-1.546,11h-24l-1.1243,8h36l-1.546,11h-48l6.746-48h48Z"/><path class="cls-1" d="M336.9515,320h-64l-8.9946,64h64Zm-43.7946,27h17c8,0,14.2973,5,12.9622,14.5S314.0812,376,306.0812,376h-19c-5.5369,0-10.0766-2.3752-12.0162-7l10.28-5.4746A4.1324,4.1324,0,0,0,289.4866,366h17a5.47,5.47,0,0,0,5.6325-4.5c.3513-2.5-1.3676-4.5-4.3676-4.5h-17c-8,0-14.2973-5-12.9621-14.5s9.0378-14.5,17.0378-14.5h18c5.537,0,10.0765,2.3755,12.0162,7l-10.28,5.4746A4.132,4.132,0,0,0,310.4218,338h-16a5.47,5.47,0,0,0-5.6324,4.5C288.438,345,290.1569,347,293.1569,347Z"/><polygon class="cls-2" points="839.957 384 896 384 896 376 885.081 376 887.752 357 863.752 357 861.081 376 849.081 376 855.827 328 867.827 328 865.297 346 889.297 346 891.827 328 896 328 896 320 848.952 320 839.957 384"/><path class="cls-2" d="M144.9515,320h-64l-8.9946,64h64Zm-29.87,56-10.33-19h-9l-2.67,19h-12l6.746-48h12l-2.53,18h9l15.53-18h15l-21.2325,23-.1405,1,14.627,24Z"/><path class="cls-2" d="M272.9515,320h-64l-8.9946,64h64Zm-15.87,56h-11l-20.7837-30-4.2163,30h-12l6.746-48h11l20.7838,30,4.2162-30h12Z"/><polygon points="671.752 357 695.752 357 693.081 376 705.081 376 711.827 328 699.827 328 697.297 346 673.297 346 675.827 328 663.827 328 657.081 376 669.081 376 671.752 357"/><polygon points="889.297 346 865.297 346 867.827 328 855.827 328 849.081 376 861.081 376 863.752 357 887.752 357 885.081 376 896 376 896 328 891.827 328 889.297 346"/><polygon points="766.627 365 752.627 365 756.281 339 770.281 339 771.827 328 731.827 328 730.281 339 744.281 339 740.627 365 726.627 365 725.081 376 765.081 376 766.627 365"/><polygon points="577.081 376 578.627 365 542.627 365 547.827 328 535.827 328 529.081 376 530.081 376 577.081 376"/><path d="M453.4542,352c1.9676-14-6.627-24-20.627-24h-25l-6.746,48h25A27.3925,27.3925,0,0,0,453.4542,352Zm-35.173-13h13c7,0,11.2974,5,10.173,13s-6.827,13-13.827,13h-13Z"/><polygon points="513.081 376 514.627 365 478.627 365 479.752 357 503.752 357 505.297 346 481.297 346 482.281 339 518.281 339 519.827 328 471.827 328 465.081 376 466.081 376 513.081 376"/><polygon points="145.081 376 146.081 376 193.081 376 194.627 365 158.627 365 159.752 357 183.752 357 185.297 346 161.297 346 162.281 339 198.281 339 199.827 328 151.827 328 145.081 376"/><path d="M607.0488,362h20a19.2823,19.2823,0,0,0,19.3892-17c1.4054-10-4.6108-17-14.6108-17h-32l-.1406,1-6.6054,47h12Zm3.2324-23h19c3,0,5.719,2,5.1568,6a6.8286,6.8286,0,0,1-6.8433,6h-19Z"/><polygon points="115.595 351 136.827 328 121.827 328 106.297 346 97.297 346 99.827 328 87.827 328 81.081 376 93.081 376 95.752 357 104.752 357 115.081 376 130.081 376 115.454 352 115.595 351"/><polygon points="247.611 358 226.827 328 215.827 328 209.081 376 221.081 376 225.297 346 246.081 376 257.081 376 263.827 328 251.827 328 247.611 358"/><path d="M294.4218,338h16a4.132,4.132,0,0,1,4.1417,2.4746L324.8434,335c-1.94-4.6245-6.4792-7-12.0162-7h-18c-8,0-15.7027,5-17.0378,14.5s4.9621,14.5,12.9621,14.5h17c3,0,4.7189,2,4.3676,4.5a5.47,5.47,0,0,1-5.6325,4.5h-17a4.1324,4.1324,0,0,1-4.1418-2.4746L275.065,369c1.94,4.6248,6.4793,7,12.0162,7h19c8,0,15.7027-5,17.0379-14.5S318.1569,347,310.1569,347h-17c-3,0-4.7189-2-4.3675-4.5A5.47,5.47,0,0,1,294.4218,338Z"/><path class="cls-1" d="M510.9623,448l8.9946-64h-64l-8.9946,64Zm-48.13-56h25c14,0,22.5946,10,20.627,24a27.3925,27.3925,0,0,1-27.373,24h-25Z"/><path class="cls-1" d="M496.46,416c1.1243-8-3.173-13-10.173-13h-13l-3.654,26h13C489.6326,429,495.3353,424,496.46,416Z"/><path class="cls-1" d="M574.9623,448h64l8.9946-64h-64Zm15.87-56h12l-5.2,37h36l-1.546,11h-48Z"/><path class="cls-1" d="M702.9623,448h64l8.9946-64h-64Zm15.87-56h12l-2.53,18h24l2.53-18h12l-6.746,48h-12l2.67-19h-24l-2.67,19h-12Z"/><polygon class="cls-1" points="839.957 384 830.962 448 894.962 448 896 440.616 896 384 839.957 384"/><path class="cls-2" d="M574.9623,448l8.9946-64h-64l-8.9946,64Zm-48.13-56h48l-1.546,11h-36l-.9837,7h24l-1.546,11h-24l-1.1243,8h36l-1.546,11h-48Z"/><path class="cls-2" d="M638.9623,448h64l8.9946-64h-64Zm15.73-55,.1406-1h32c10,0,16.0162,7,14.6108,17a19.2823,19.2823,0,0,1-19.3892,17h-20l-1.9676,14h-12Z"/><path class="cls-2" d="M689.4434,409c.5622-4-2.1568-6-5.1568-6h-19L663.6,415h19A6.8285,6.8285,0,0,0,689.4434,409Z"/><path class="cls-2" d="M766.9623,448h64l8.9946-64h-64Zm14.67-19h14l3.654-26h-14l1.546-11h40l-1.546,11h-14l-3.654,26h14l-1.546,11h-40Z"/><polygon class="cls-2" points="455.957 384 391.957 384 382.962 448 446.962 448 455.957 384"/><polygon class="cls-1" points="91.116 422 106.116 422 101.146 404 91.116 422"/><path class="cls-1" d="M135.9569,384h-64l-8.9946,64h64Zm-26.87,56-1.8757-8h-20l-4.1243,8h-13l26.746-48h12l13.254,48Z"/><path class="cls-1" d="M263.9569,384h-64l-8.9946,64h64Zm-10.67,19h-36l-.9837,7h24l-1.546,11h-24l-1.1243,8h36l-1.546,11h-48l6.746-48h48Z"/><path class="cls-1" d="M391.9569,384h-64l-8.9946,64h64Zm-43.7946,27h17c8,0,14.2973,5,12.9622,14.5S369.0866,440,361.0866,440h-19c-5.537,0-10.0765-2.3752-12.0162-7l10.28-5.4746A4.1322,4.1322,0,0,0,344.492,430h17a5.47,5.47,0,0,0,5.6325-4.5c.3513-2.5-1.3676-4.5-4.3676-4.5h-17c-8,0-14.2973-5-12.9622-14.5s9.0379-14.5,17.0379-14.5h18c5.537,0,10.0765,2.3755,12.0162,7l-10.28,5.4746A4.1322,4.1322,0,0,0,365.4272,402h-16a5.47,5.47,0,0,0-5.6325,4.5C343.4434,409,345.1623,411,348.1623,411Z"/><polygon class="cls-2" points="896 448 896 440.616 894.962 448 896 448"/><path class="cls-2" d="M199.9569,384h-64l-8.9946,64h64Zm-29.87,56-10.33-19h-9l-2.67,19h-12l6.746-48h12l-2.53,18h9l15.53-18h15L170.6,415l-.1406,1,14.627,24Z"/><path class="cls-2" d="M327.9569,384h-64l-8.9946,64h64Zm-15.87,56h-11l-20.7837-30-4.2163,30h-12l6.746-48h11l20.7837,30,4.2163-30h12Z"/><polygon points="726.757 421 750.757 421 748.087 440 760.087 440 766.833 392 754.833 392 752.303 410 728.303 410 730.833 392 718.833 392 712.087 440 724.087 440 726.757 421"/><polygon points="821.633 429 807.633 429 811.287 403 825.287 403 826.833 392 786.833 392 785.287 403 799.287 403 795.633 429 781.633 429 780.087 440 820.087 440 821.633 429"/><path d="M96.8326,392l-26.746,48h13l4.1243-8h20l1.8757,8h13l-13.254-48Zm-5.7163,30,10.03-18,4.97,18Z"/><polygon points="632.087 440 633.633 429 597.633 429 602.833 392 590.833 392 584.087 440 585.087 440 632.087 440"/><path d="M508.46,416c1.9676-14-6.627-24-20.627-24h-25l-6.746,48h25A27.3925,27.3925,0,0,0,508.46,416Zm-35.173-13h13c7,0,11.2973,5,10.173,13s-6.827,13-13.827,13h-13Z"/><polygon points="568.087 440 569.633 429 533.633 429 534.757 421 558.757 421 560.303 410 536.303 410 537.287 403 573.287 403 574.833 392 526.833 392 520.087 440 521.087 440 568.087 440"/><polygon points="200.087 440 201.087 440 248.087 440 249.633 429 213.633 429 214.757 421 238.757 421 240.303 410 216.303 410 217.287 403 253.287 403 254.833 392 206.833 392 200.087 440"/><path d="M662.0542,426h20a19.2823,19.2823,0,0,0,19.3892-17c1.4054-10-4.6108-17-14.6108-17h-32l-.1406,1-6.6054,47h12Zm3.2324-23h19c3,0,5.719,2,5.1568,6a6.8285,6.8285,0,0,1-6.8432,6h-19Z"/><polygon points="170.6 415 191.833 392 176.833 392 161.303 410 152.303 410 154.833 392 142.833 392 136.087 440 148.087 440 150.757 421 159.757 421 170.087 440 185.087 440 170.46 416 170.6 415"/><polygon points="302.616 422 281.833 392 270.833 392 264.087 440 276.087 440 280.303 410 301.087 440 312.087 440 318.833 392 306.833 392 302.616 422"/><path d="M349.4272,402h16a4.1322,4.1322,0,0,1,4.1418,2.4746L379.8488,399c-1.94-4.6245-6.4792-7-12.0162-7h-18c-8,0-15.7027,5-17.0379,14.5s4.9622,14.5,12.9622,14.5h17c3,0,4.7189,2,4.3676,4.5a5.47,5.47,0,0,1-5.6325,4.5h-17a4.1322,4.1322,0,0,1-4.1418-2.4746L330.07,433c1.94,4.6248,6.4792,7,12.0162,7h19c8,0,15.7027-5,17.0379-14.5S373.1623,411,365.1623,411h-17c-3,0-4.7189-2-4.3676-4.5A5.47,5.47,0,0,1,349.4272,402Z"/><path class="cls-1" d="M541.292,467h-13l-3.6541,26h13c7,0,12.7027-5,13.8271-13S548.292,467,541.292,467Z"/><path class="cls-1" d="M510.9623,448l-8.9946,64h64l8.9946-64Zm52.5027,32a27.3925,27.3925,0,0,1-27.373,24h-25l6.746-48h25C556.838,456,565.4326,466,563.465,480Z"/><path class="cls-1" d="M629.9677,512h64l8.9946-64h-64Zm15.87-56h12l-5.2,37h36l-1.5459,11h-48Z"/><path class="cls-1" d="M757.9677,512h64l8.9946-64h-64Zm15.87-56h12l-2.53,18h24l2.53-18h12l-6.746,48h-12l2.67-19h-24l-2.67,19h-12Z"/><polygon class="cls-1" points="885.968 512 896 512 896 448 894.962 448 885.968 512"/><path class="cls-2" d="M565.9677,512h64l8.9946-64h-64Zm15.87-56h48l-1.546,11h-36l-.9838,7h24l-1.5459,11h-24l-1.1244,8h36l-1.5459,11h-48Z"/><path class="cls-2" d="M744.4488,473c.5621-4-2.1568-6-5.1568-6h-19l-1.6865,12h19A6.8286,6.8286,0,0,0,744.4488,473Z"/><path class="cls-2" d="M693.9677,512h64l8.9946-64h-64Zm15.73-55,.1406-1h32c10,0,16.0162,7,14.6108,17A19.2824,19.2824,0,0,1,737.06,490h-20l-1.9676,14h-12Z"/><path class="cls-2" d="M885.9677,512l8.9946-64h-64l-8.9946,64Zm-49.33-19h14l3.6541-26h-14l1.546-11h40l-1.546,11h-14l-3.6541,26h14l-1.5459,11h-40Z"/><polygon class="cls-2" points="446.962 448 437.968 512 501.968 512 510.962 448 446.962 448"/><path class="cls-1" d="M190.9623,448h-64l-8.9946,64h64Zm-26.87,56-1.8757-8h-20l-4.1243,8h-13l26.746-48h12l13.254,48Z"/><polygon class="cls-1" points="146.122 486 161.122 486 156.151 468 146.122 486"/><path class="cls-1" d="M318.9623,448h-64l-8.9946,64h64Zm-10.67,19h-36l-.9838,7h24l-1.5459,11h-24l-1.1244,8h36l-1.5459,11h-48l6.746-48h48Z"/><path class="cls-1" d="M382.9623,448l-8.9946,64h64l8.9946-64Zm20.2054,27h17c8,0,14.2973,5,12.9621,14.5S424.092,504,416.092,504h-19c-5.537,0-10.0766-2.3752-12.0162-7l10.28-5.4746A4.1321,4.1321,0,0,0,399.4974,494h17a5.47,5.47,0,0,0,5.6324-4.5c.3514-2.5-1.3675-4.5-4.3675-4.5h-17c-8,0-14.2973-5-12.9622-14.5S396.838,456,404.838,456h18c5.5369,0,10.0766,2.3755,12.0162,7l-10.28,5.4746A4.1322,4.1322,0,0,0,420.4326,466h-16a5.47,5.47,0,0,0-5.6325,4.5C398.4488,473,400.1677,475,403.1677,475Z"/><path class="cls-2" d="M126.9623,448h-64l-8.9946,64h64Zm-15.87,56h-12l2.67-19h-24l-2.67,19h-12l6.746-48h12l-2.53,18h24l2.53-18h12Z"/><path class="cls-2" d="M254.9623,448h-64l-8.9946,64h64Zm-29.87,56-10.33-19h-9l-2.67,19h-12l6.746-48h12l-2.53,18h9l15.53-18h15l-21.2325,23-.1405,1,14.627,24Z"/><path class="cls-2" d="M382.9623,448h-64l-8.9946,64h64Zm-15.87,56h-11l-20.7838-30-4.2162,30h-12l6.746-48h11l20.7838,30,4.2162-30h12Z"/><polygon points="781.762 485 805.762 485 803.092 504 815.092 504 821.838 456 809.838 456 807.308 474 783.308 474 785.838 456 773.838 456 767.092 504 779.092 504 781.762 485"/><polygon points="103.308 474 79.308 474 81.838 456 69.838 456 63.092 504 75.092 504 77.762 485 101.762 485 99.092 504 111.092 504 117.838 456 105.838 456 103.308 474"/><polygon points="876.638 493 862.638 493 866.292 467 880.292 467 881.838 456 841.838 456 840.292 467 854.292 467 850.638 493 836.638 493 835.092 504 875.092 504 876.638 493"/><path d="M151.838,456l-26.746,48h13l4.1243-8h20l1.8757,8h13l-13.254-48Zm-5.7162,30,10.03-18,4.97,18Z"/><polygon points="687.092 504 688.638 493 652.638 493 657.838 456 645.838 456 639.092 504 640.092 504 687.092 504"/><path d="M542.838,456h-25l-6.746,48h25a27.3925,27.3925,0,0,0,27.373-24C565.4326,466,556.838,456,542.838,456Zm8.627,24c-1.1244,8-6.8271,13-13.8271,13h-13l3.6541-26h13C548.292,467,552.5893,472,551.465,480Z"/><polygon points="623.092 504 624.638 493 588.638 493 589.762 485 613.762 485 615.308 474 591.308 474 592.292 467 628.292 467 629.838 456 581.838 456 575.092 504 576.092 504 623.092 504"/><polygon points="255.092 504 256.092 504 303.092 504 304.638 493 268.638 493 269.762 485 293.762 485 295.308 474 271.308 474 272.292 467 308.292 467 309.838 456 261.838 456 255.092 504"/><path d="M717.06,490h20a19.2824,19.2824,0,0,0,19.3892-17c1.4054-10-4.6108-17-14.6108-17h-32l-.1406,1-6.6054,47h12Zm3.2324-23h19c3,0,5.7189,2,5.1568,6a6.8286,6.8286,0,0,1-6.8433,6h-19Z"/><polygon points="225.606 479 246.838 456 231.838 456 216.308 474 207.308 474 209.838 456 197.838 456 191.092 504 203.092 504 205.762 485 214.762 485 225.092 504 240.092 504 225.465 480 225.606 479"/><polygon points="357.622 486 336.838 456 325.838 456 319.092 504 331.092 504 335.308 474 356.092 504 367.092 504 373.838 456 361.838 456 357.622 486"/><path d="M404.4326,466h16a4.1322,4.1322,0,0,1,4.1417,2.4746L434.8542,463c-1.94-4.6245-6.4793-7-12.0162-7h-18c-8,0-15.7027,5-17.0379,14.5s4.9622,14.5,12.9622,14.5h17c3,0,4.7189,2,4.3675,4.5a5.47,5.47,0,0,1-5.6324,4.5h-17a4.1321,4.1321,0,0,1-4.1417-2.4746L385.0758,497c1.94,4.6248,6.4792,7,12.0162,7h19c8,0,15.7027-5,17.0378-14.5S428.1677,475,420.1677,475h-17c-3,0-4.7189-2-4.3676-4.5A5.47,5.47,0,0,1,404.4326,466Z"/><path class="cls-1" d="M596.2974,531h-13l-3.654,26h13c7,0,12.7027-5,13.827-13S603.2974,531,596.2974,531Z"/><path class="cls-1" d="M565.9677,512l-8.9946,64h64l8.9946-64ZM618.47,544a27.3925,27.3925,0,0,1-27.373,24h-25l6.746-48h25C611.8434,520,620.4379,530,618.47,544Z"/><path class="cls-1" d="M684.9731,576h64l8.9946-64h-64Zm15.87-56h12l-5.2,37h36l-1.546,11h-48Z"/><path class="cls-1" d="M812.9731,576h64l8.9946-64h-64Zm15.87-56h12l-2.53,18h24l2.53-18h12l-6.746,48h-12l2.67-19h-24l-2.67,19h-12Z"/><polygon class="cls-1" points="117.968 512 53.968 512 44.973 576 108.973 576 117.968 512"/><path class="cls-2" d="M620.9731,576h64l8.9946-64h-64Zm15.87-56h48l-1.546,11h-36l-.9838,7h24l-1.546,11h-24l-1.1242,8h36l-1.546,11h-48Z"/><path class="cls-2" d="M812.9731,576l8.9946-64h-64l-8.9946,64Zm-48.27-55,.1406-1h32c10,0,16.0162,7,14.6108,17a19.2824,19.2824,0,0,1-19.3893,17h-20l-1.9675,14h-12Z"/><path class="cls-2" d="M799.4542,537c.5621-4-2.1568-6-5.1568-6h-19l-1.6865,12h19A6.8286,6.8286,0,0,0,799.4542,537Z"/><polygon class="cls-2" points="876.973 576 896 576 896 568 890.097 568 891.643 557 896 557 896 531 895.297 531 896 526.001 896 512 885.968 512 876.973 576"/><polygon class="cls-2" points="501.968 512 492.973 576 556.973 576 565.968 512 501.968 512"/><polygon class="cls-1" points="201.127 550 216.127 550 211.157 532 201.127 550"/><path class="cls-1" d="M245.9677,512h-64l-8.9946,64h64Zm-26.87,56-1.8757-8h-20l-4.1243,8h-13l26.746-48h12l13.254,48Z"/><path class="cls-1" d="M309.9677,512l-8.9946,64h64l8.9946-64Zm53.33,19h-36l-.9838,7h24l-1.546,11h-24l-1.1242,8h36l-1.546,11h-48l6.746-48h48Z"/><path class="cls-1" d="M437.9677,512l-8.9946,64h64l8.9946-64Zm20.2054,27h17c8,0,14.2972,5,12.9622,14.5S479.0974,568,471.0974,568h-19c-5.537,0-10.0766-2.3752-12.0162-7l10.28-5.4746A4.1322,4.1322,0,0,0,454.5028,558h17a5.47,5.47,0,0,0,5.6325-4.5c.3513-2.5-1.3677-4.5-4.3677-4.5h-17c-8,0-14.2973-5-12.9621-14.5s9.0378-14.5,17.0378-14.5h18c5.537,0,10.0765,2.3755,12.0162,7l-10.28,5.4746A4.1322,4.1322,0,0,0,475.4379,530h-16a5.47,5.47,0,0,0-5.6324,4.5C453.4542,537,455.1731,539,458.1731,539Z"/><path class="cls-2" d="M181.9677,512h-64l-8.9946,64h64Zm-15.87,56h-12l2.67-19h-24l-2.67,19h-12l6.746-48h12l-2.53,18h24l2.53-18h12Z"/><path class="cls-2" d="M309.9677,512h-64l-8.9946,64h64Zm-29.87,56-10.33-19h-9l-2.67,19h-12l6.746-48h12l-2.53,18h9l15.53-18h15l-21.2325,23-.1405,1,14.627,24Z"/><path class="cls-2" d="M373.9677,512l-8.9946,64h64l8.9946-64Zm48.13,56h-11l-20.7838-30-4.2162,30h-12l6.746-48h11l20.7837,30,4.2163-30h12Z"/><polygon points="836.768 549 860.768 549 858.097 568 870.097 568 876.843 520 864.843 520 862.314 538 838.314 538 840.843 520 828.843 520 822.097 568 834.097 568 836.768 549"/><polygon points="158.314 538 134.314 538 136.843 520 124.843 520 118.097 568 130.097 568 132.768 549 156.768 549 154.097 568 166.097 568 172.843 520 160.843 520 158.314 538"/><polygon points="891.643 557 890.097 568 896 568 896 557 891.643 557"/><polygon points="896 531 896 526.001 895.297 531 896 531"/><path d="M206.8434,520l-26.746,48h13l4.1243-8h20l1.8757,8h13l-13.254-48Zm-5.7163,30,10.03-18,4.97,18Z"/><polygon points="742.097 568 743.643 557 707.643 557 712.843 520 700.843 520 694.097 568 695.097 568 742.097 568"/><path d="M597.8434,520h-25l-6.746,48h25a27.3925,27.3925,0,0,0,27.373-24C620.4379,530,611.8434,520,597.8434,520Zm8.627,24c-1.1243,8-6.827,13-13.827,13h-13l3.654-26h13C603.2974,531,607.5947,536,606.47,544Z"/><polygon points="678.097 568 679.643 557 643.643 557 644.768 549 668.768 549 670.314 538 646.314 538 647.297 531 683.297 531 684.843 520 636.843 520 630.097 568 631.097 568 678.097 568"/><polygon points="310.097 568 311.097 568 358.097 568 359.643 557 323.643 557 324.768 549 348.768 549 350.314 538 326.314 538 327.297 531 363.297 531 364.843 520 316.843 520 310.097 568"/><path d="M772.0649,554h20a19.2824,19.2824,0,0,0,19.3893-17c1.4054-10-4.6108-17-14.6108-17h-32l-.1406,1-6.6054,47h12Zm3.2325-23h19c3,0,5.7189,2,5.1568,6a6.8286,6.8286,0,0,1-6.8433,6h-19Z"/><polygon points="280.611 543 301.843 520 286.843 520 271.314 538 262.314 538 264.843 520 252.843 520 246.097 568 258.097 568 260.768 549 269.768 549 280.097 568 295.097 568 280.47 544 280.611 543"/><polygon points="412.627 550 391.843 520 380.843 520 374.097 568 386.097 568 390.314 538 411.097 568 422.097 568 428.843 520 416.843 520 412.627 550"/><path d="M459.4379,530h16a4.1322,4.1322,0,0,1,4.1418,2.4746L489.86,527c-1.94-4.6245-6.4792-7-12.0162-7h-18c-8,0-15.7027,5-17.0378,14.5s4.9621,14.5,12.9621,14.5h17c3,0,4.719,2,4.3677,4.5a5.47,5.47,0,0,1-5.6325,4.5h-17a4.1322,4.1322,0,0,1-4.1418-2.4746L440.0812,561c1.94,4.6248,6.4792,7,12.0162,7h19c8,0,15.7027-5,17.0379-14.5S483.1731,539,475.1731,539h-17c-3,0-4.7189-2-4.3676-4.5A5.47,5.47,0,0,1,459.4379,530Z"/><path class="cls-1" d="M620.9731,576l-8.9946,64h64l8.9946-64Zm52.5027,32a27.3925,27.3925,0,0,1-27.373,24h-25l6.746-48h25C666.8488,584,675.4434,594,673.4758,608Z"/><path class="cls-1" d="M651.3028,595h-13l-3.6541,26h13c7,0,12.7027-5,13.8271-13S658.3028,595,651.3028,595Z"/><path class="cls-1" d="M739.9785,640h64l8.9946-64h-64Zm15.87-56h12l-5.2,37h36l-1.5459,11h-48Z"/><polygon class="cls-1" points="867.978 640 896 640 896 613 891.773 613 889.103 632 877.103 632 883.849 584 895.849 584 893.319 602 896 602 896 576 876.973 576 867.978 640"/><polygon class="cls-1" points="172.973 576 108.973 576 99.978 640 163.978 640 172.973 576"/><path class="cls-2" d="M684.9731,576l-8.9946,64h64l8.9946-64Zm53.33,19h-36l-.9838,7h24l-1.5459,11h-24l-1.1244,8h36l-1.5459,11h-48l6.746-48h48Z"/><path class="cls-2" d="M803.9785,640h64l8.9946-64h-64Zm15.73-55,.1406-1h32c10,0,16.0161,7,14.6107,17A19.2822,19.2822,0,0,1,847.07,618h-20l-1.9676,14h-12Z"/><path class="cls-2" d="M854.46,601c.5622-4-2.1567-6-5.1567-6h-19l-1.6865,12h19A6.8285,6.8285,0,0,0,854.46,601Z"/><path class="cls-2" d="M108.9731,576h-64l-8.9946,64h64Zm-14.67,19h-14l-3.6541,26h14l-1.5459,11h-40l1.5459-11h14l3.6541-26h-14l1.546-11h40Z"/><polygon class="cls-2" points="556.973 576 547.978 640 611.978 640 620.973 576 556.973 576"/><path class="cls-1" d="M236.9731,576l-8.9946,64h64l8.9946-64Zm37.13,56-1.8757-8h-20l-4.1243,8h-13l26.746-48h12l13.254,48Z"/><polygon class="cls-1" points="256.133 614 271.133 614 266.162 596 256.133 614"/><path class="cls-1" d="M364.9731,576l-8.9946,64h64l8.9946-64Zm53.33,19h-36l-.9838,7h24l-1.5459,11h-24l-1.1244,8h36l-1.5459,11h-48l6.746-48h48Z"/><path class="cls-1" d="M492.9731,576l-8.9946,64h64l8.9946-64Zm20.2054,27h17c8,0,14.2973,5,12.9621,14.5S534.1028,632,526.1028,632h-19c-5.537,0-10.0766-2.3752-12.0163-7l10.28-5.4746A4.1322,4.1322,0,0,0,509.5082,622h17a5.47,5.47,0,0,0,5.6324-4.5c.3513-2.5-1.3675-4.5-4.3675-4.5h-17c-8,0-14.2973-5-12.9622-14.5s9.0379-14.5,17.0379-14.5h18c5.5369,0,10.0765,2.3755,12.0161,7l-10.28,5.4746A4.1322,4.1322,0,0,0,530.4434,594h-16a5.47,5.47,0,0,0-5.6324,4.5C508.46,601,510.1785,603,513.1785,603Z"/><path class="cls-2" d="M236.9731,576h-64l-8.9946,64h64Zm-15.87,56h-12l2.67-19h-24l-2.67,19h-12l6.746-48h12l-2.53,18h24l2.53-18h12Z"/><path class="cls-2" d="M300.9731,576l-8.9946,64h64l8.9946-64Zm49.13,56h-15l-10.33-19h-9l-2.67,19h-12l6.746-48h12l-2.53,18h9l15.53-18h15l-21.2325,23-.1405,1Z"/><path class="cls-2" d="M428.9731,576l-8.9946,64h64l8.9946-64Zm48.13,56h-11L445.319,602l-4.2162,30h-12l6.746-48h11l20.7837,30,4.2163-30h12Z"/><polygon points="895.849 584 883.849 584 877.103 632 889.103 632 891.773 613 896 613 896 602 893.319 602 895.849 584"/><polygon points="213.319 602 189.319 602 191.849 584 179.849 584 173.103 632 185.103 632 187.773 613 211.773 613 209.103 632 221.103 632 227.849 584 215.849 584 213.319 602"/><polygon points="54.303 595 68.303 595 64.649 621 50.649 621 49.103 632 89.103 632 90.649 621 76.649 621 80.303 595 94.303 595 95.849 584 55.849 584 54.303 595"/><path d="M261.8488,584l-26.746,48h13l4.1243-8h20l1.8757,8h13l-13.254-48Zm-5.7163,30,10.03-18,4.97,18Z"/><polygon points="797.103 632 798.649 621 762.649 621 767.849 584 755.849 584 749.103 632 750.103 632 797.103 632"/><path d="M652.8488,584h-25l-6.746,48h25a27.3925,27.3925,0,0,0,27.373-24C675.4434,594,666.8488,584,652.8488,584Zm8.627,24c-1.1244,8-6.8271,13-13.8271,13h-13l3.6541-26h13C658.3028,595,662.6,600,661.4758,608Z"/><polygon points="685.103 632 686.103 632 733.103 632 734.649 621 698.649 621 699.773 613 723.773 613 725.319 602 701.319 602 702.303 595 738.303 595 739.849 584 691.849 584 685.103 632"/><polygon points="365.103 632 366.103 632 413.103 632 414.649 621 378.649 621 379.773 613 403.773 613 405.319 602 381.319 602 382.303 595 418.303 595 419.849 584 371.849 584 365.103 632"/><path d="M827.07,618h20A19.2822,19.2822,0,0,0,866.46,601c1.4054-10-4.6107-17-14.6107-17h-32l-.1406,1-6.6054,47h12Zm3.2324-23h19c3,0,5.7189,2,5.1567,6a6.8285,6.8285,0,0,1-6.8432,6h-19Z"/><polygon points="356.849 584 341.849 584 326.319 602 317.319 602 319.849 584 307.849 584 301.103 632 313.103 632 315.773 613 324.773 613 335.103 632 350.103 632 335.476 608 335.616 607 356.849 584"/><polygon points="467.633 614 446.849 584 435.849 584 429.103 632 441.103 632 445.319 602 466.103 632 477.103 632 483.849 584 471.849 584 467.633 614"/><path d="M514.4433,594h16a4.1322,4.1322,0,0,1,4.1417,2.4746L544.8649,591c-1.94-4.6245-6.4792-7-12.0161-7h-18c-8,0-15.7027,5-17.0379,14.5s4.9622,14.5,12.9622,14.5h17c3,0,4.7188,2,4.3675,4.5a5.47,5.47,0,0,1-5.6324,4.5h-17a4.1322,4.1322,0,0,1-4.1418-2.4746L495.0865,625c1.94,4.6248,6.4793,7,12.0163,7h19c8,0,15.7027-5,17.0378-14.5S538.1785,603,530.1785,603h-17c-3,0-4.719-2-4.3676-4.5A5.47,5.47,0,0,1,514.4433,594Z"/><path class="cls-1" d="M706.3082,659h-13l-3.6541,26h13c7,0,12.7027-5,13.827-13S713.3082,659,706.3082,659Z"/><path class="cls-1" d="M675.9785,640l-8.9947,64h64l8.9947-64Zm52.5026,32a27.3924,27.3924,0,0,1-27.3729,24h-25l6.7459-48h25C721.8541,648,730.4487,658,728.4811,672Z"/><path class="cls-1" d="M794.9838,704h64l8.9947-64h-64Zm15.87-56h12l-5.2,37h36l-1.5459,11h-48Z"/><path class="cls-1" d="M99.9785,640h-64l-8.9947,64h64Zm-15.87,56h-12l2.67-19h-24l-2.67,19h-12l6.7459-48h12l-2.53,18h24l2.53-18h12Z"/><polygon class="cls-1" points="163.978 640 154.984 704 218.984 704 227.978 640 163.978 640"/><path class="cls-2" d="M739.9785,640l-8.9947,64h64l8.9947-64Zm53.33,19h-36l-.9838,7h24l-1.546,11h-24l-1.1243,8h36l-1.5459,11h-48l6.7459-48h48Z"/><polygon class="cls-2" points="858.984 704 896 704 896 682 882.076 682 880.108 696 868.108 696 874.714 649 874.854 648 896 648 896 640 867.978 640 858.984 704"/><polygon class="cls-2" points="885.308 659 883.622 671 896 671 896 659 885.308 659"/><path class="cls-2" d="M163.9785,640h-64l-8.9947,64h64Zm-14.67,19h-14l-3.6541,26h14l-1.5459,11h-40l1.5459-11h14l3.6541-26h-14l1.5459-11h40Z"/><polygon class="cls-2" points="611.978 640 602.984 704 666.984 704 675.978 640 611.978 640"/><path class="cls-1" d="M291.9785,640l-8.9947,64h64l8.9947-64Zm37.13,56-1.8757-8h-20l-4.1243,8h-13l26.7459-48h12l13.2541,48Z"/><polygon class="cls-1" points="311.138 678 326.138 678 321.168 660 311.138 678"/><path class="cls-1" d="M419.9785,640l-8.9947,64h64l8.9947-64Zm53.33,19h-36l-.9838,7h24l-1.546,11h-24l-1.1243,8h36l-1.5459,11h-48l6.7459-48h48Z"/><path class="cls-1" d="M547.9785,640l-8.9947,64h64l8.9947-64Zm20.2053,27h17c8,0,14.2973,5,12.9622,14.5S589.1082,696,581.1082,696h-19c-5.537,0-10.0766-2.3752-12.0163-7l10.28-5.4746A4.1322,4.1322,0,0,0,564.5135,686h17a5.47,5.47,0,0,0,5.6325-4.5c.3514-2.5-1.3676-4.5-4.3676-4.5h-17c-8,0-14.2973-5-12.9621-14.5s9.0378-14.5,17.0378-14.5h18c5.537,0,10.0766,2.3755,12.0163,7l-10.28,5.4746A4.1322,4.1322,0,0,0,585.4487,658h-16a5.47,5.47,0,0,0-5.6324,4.5C563.4649,665,565.1838,667,568.1838,667Z"/><path class="cls-2" d="M227.9785,640l-8.9947,64h64l8.9947-64Zm48.13,56h-12l2.67-19h-24l-2.67,19h-12l6.7459-48h12l-2.53,18h24l2.53-18h12Z"/><path class="cls-2" d="M355.9785,640l-8.9947,64h64l8.9947-64Zm49.13,56h-15l-10.33-19h-9l-2.67,19h-12l6.7459-48h12l-2.53,18h9l15.53-18h15l-21.2324,23-.1406,1Z"/><path class="cls-2" d="M483.9785,640l-8.9947,64h64l8.9947-64Zm48.13,56h-11l-20.7838-30-4.2162,30h-12l6.7459-48h11l20.7838,30,4.2162-30h12Z"/><polygon points="76.324 666 52.324 666 54.854 648 42.854 648 36.108 696 48.108 696 50.778 677 74.778 677 72.108 696 84.108 696 90.854 648 78.854 648 76.324 666"/><polygon points="268.324 666 244.324 666 246.854 648 234.854 648 228.108 696 240.108 696 242.778 677 266.778 677 264.108 696 276.108 696 282.854 648 270.854 648 268.324 666"/><polygon points="109.308 659 123.308 659 119.654 685 105.654 685 104.108 696 144.108 696 145.654 685 131.654 685 135.308 659 149.308 659 150.854 648 110.854 648 109.308 659"/><path d="M316.8541,648l-26.7459,48h13l4.1243-8h20l1.8757,8h13l-13.2541-48Zm-5.7162,30,10.03-18,4.97,18Z"/><polygon points="852.108 696 853.654 685 817.654 685 822.854 648 810.854 648 804.108 696 805.108 696 852.108 696"/><path d="M707.8541,648h-25l-6.7459,48h25a27.3924,27.3924,0,0,0,27.3729-24C730.4487,658,721.8541,648,707.8541,648Zm8.627,24c-1.1243,8-6.827,13-13.827,13h-13l3.6541-26h13C713.3082,659,717.6055,664,716.4811,672Z"/><polygon points="740.108 696 741.108 696 788.108 696 789.654 685 753.654 685 754.778 677 778.778 677 780.324 666 756.324 666 757.308 659 793.308 659 794.854 648 746.854 648 740.108 696"/><polygon points="420.108 696 421.108 696 468.108 696 469.654 685 433.654 685 434.778 677 458.778 677 460.324 666 436.324 666 437.308 659 473.308 659 474.854 648 426.854 648 420.108 696"/><polygon points="874.714 649 868.108 696 880.108 696 882.076 682 896 682 896 671 883.622 671 885.308 659 896 659 896 648 874.854 648 874.714 649"/><polygon points="411.854 648 396.854 648 381.324 666 372.324 666 374.854 648 362.854 648 356.108 696 368.108 696 370.778 677 379.778 677 390.108 696 405.108 696 390.481 672 390.622 671 411.854 648"/><polygon points="522.638 678 501.854 648 490.854 648 484.108 696 496.108 696 500.324 666 521.108 696 532.108 696 538.854 648 526.854 648 522.638 678"/><path d="M569.4487,658h16a4.1322,4.1322,0,0,1,4.1418,2.4746L599.87,655c-1.94-4.6245-6.4793-7-12.0163-7h-18c-8,0-15.7027,5-17.0378,14.5s4.9621,14.5,12.9621,14.5h17c3,0,4.719,2,4.3676,4.5a5.47,5.47,0,0,1-5.6325,4.5h-17a4.1322,4.1322,0,0,1-4.1417-2.4746L550.0919,689c1.94,4.6248,6.4793,7,12.0163,7h19c8,0,15.7027-5,17.0378-14.5S593.1838,667,585.1838,667h-17c-3,0-4.7189-2-4.3675-4.5A5.47,5.47,0,0,1,569.4487,658Z"/><path class="cls-1" d="M761.3135,723h-13l-3.654,26h13c7,0,12.7027-5,13.827-13S768.3135,723,761.3135,723Z"/><path class="cls-1" d="M730.9838,704l-8.9946,64h64l8.9946-64Zm52.5027,32a27.3924,27.3924,0,0,1-27.373,24h-25l6.746-48h25C776.86,712,785.4541,722,783.4865,736Z"/><polygon class="cls-1" points="849.989 768 896 768 896 760 860.114 760 859.114 760 865.859 712 877.859 712 872.659 749 896 749 896 704 858.984 704 849.989 768"/><path class="cls-1" d="M90.9838,704l-8.9946,64h64l8.9946-64Zm48.13,56h-12l2.67-19h-24l-2.67,19h-12l6.746-48h12l-2.53,18h24l2.53-18h12Z"/><polygon class="cls-1" points="218.984 704 209.989 768 273.989 768 282.984 704 218.984 704"/><path class="cls-2" d="M794.9838,704l-8.9946,64h64l8.9946-64Zm53.33,19h-36l-.9837,7h24l-1.546,11h-24l-1.1243,8h36l-1.546,11h-48l6.746-48h48Z"/><path class="cls-2" d="M63.3135,723h-19l-1.6864,12h19a6.8285,6.8285,0,0,0,6.8432-6C69.0325,725,66.3135,723,63.3135,723Z"/><path class="cls-2" d="M90.9838,704h-64l-8.9946,64h64ZM80.47,729a19.2823,19.2823,0,0,1-19.3892,17h-20l-1.9676,14h-12l6.6055-47,.14-1h32C75.86,712,81.8757,719,80.47,729Z"/><path class="cls-2" d="M154.9838,704l-8.9946,64h64l8.9946-64Zm49.33,19h-14l-3.654,26h14l-1.546,11h-40l1.546-11h14l3.654-26h-14l1.546-11h40Z"/><polygon class="cls-2" points="666.984 704 657.989 768 721.989 768 730.984 704 666.984 704"/><path class="cls-1" d="M346.9838,704l-8.9946,64h64l8.9946-64Zm37.13,56-1.8756-8h-20l-4.1244,8h-13l26.746-48h12l13.254,48Z"/><polygon class="cls-1" points="366.143 742 381.143 742 376.173 724 366.143 742"/><path class="cls-1" d="M474.9838,704l-8.9946,64h64l8.9946-64Zm53.33,19h-36l-.9837,7h24l-1.546,11h-24l-1.1243,8h36l-1.546,11h-48l6.746-48h48Z"/><path class="cls-1" d="M602.9838,704l-8.9946,64h64l8.9946-64Zm20.2054,27h17c8,0,14.2973,5,12.9622,14.5S644.1135,760,636.1135,760h-19c-5.537,0-10.0765-2.3752-12.0161-7l10.28-5.4746A4.1322,4.1322,0,0,0,619.519,750h17a5.47,5.47,0,0,0,5.6324-4.5c.3513-2.5-1.3676-4.5-4.3676-4.5h-17c-8,0-14.2973-5-12.9621-14.5S616.86,712,624.86,712h18c5.537,0,10.0766,2.3755,12.0162,7l-10.28,5.4746A4.1322,4.1322,0,0,0,640.4541,722h-16a5.47,5.47,0,0,0-5.6324,4.5C618.47,729,620.1892,731,623.1892,731Z"/><path class="cls-2" d="M282.9838,704l-8.9946,64h64l8.9946-64Zm48.13,56h-12l2.67-19h-24l-2.67,19h-12l6.746-48h12l-2.53,18h24l2.53-18h12Z"/><path class="cls-2" d="M410.9838,704l-8.9946,64h64l8.9946-64Zm49.13,56h-15l-10.33-19h-9l-2.67,19h-12l6.746-48h12l-2.53,18h9l15.53-18h15l-21.2324,23-.1406,1Z"/><path class="cls-2" d="M538.9838,704l-8.9946,64h64l8.9946-64Zm48.13,56h-11L555.33,730l-4.2163,30h-12l6.746-48h11l20.7838,30,4.2162-30h12Z"/><polygon points="131.33 730 107.33 730 109.859 712 97.859 712 91.114 760 103.114 760 105.784 741 129.784 741 127.114 760 139.114 760 145.859 712 133.859 712 131.33 730"/><polygon points="323.33 730 299.33 730 301.859 712 289.859 712 283.114 760 295.114 760 297.784 741 321.784 741 319.114 760 331.114 760 337.859 712 325.859 712 323.33 730"/><polygon points="164.314 723 178.314 723 174.659 749 160.659 749 159.114 760 199.114 760 200.659 749 186.659 749 190.314 723 204.314 723 205.859 712 165.859 712 164.314 723"/><path d="M371.86,712l-26.746,48h13l4.1244-8h20l1.8756,8h13L383.86,712Zm-5.7162,30,10.03-18,4.97,18Z"/><polygon points="877.859 712 865.859 712 859.114 760 860.114 760 896 760 896 749 872.659 749 877.859 712"/><path d="M762.86,712h-25l-6.746,48h25a27.3924,27.3924,0,0,0,27.373-24C785.4541,722,776.86,712,762.86,712Zm8.627,24c-1.1243,8-6.827,13-13.827,13h-13l3.654-26h13C768.3135,723,772.6108,728,771.4865,736Z"/><polygon points="795.114 760 796.114 760 843.114 760 844.659 749 808.659 749 809.784 741 833.784 741 835.33 730 811.33 730 812.314 723 848.314 723 849.859 712 801.859 712 795.114 760"/><polygon points="475.114 760 476.114 760 523.114 760 524.659 749 488.659 749 489.784 741 513.784 741 515.33 730 491.33 730 492.314 723 528.314 723 529.859 712 481.859 712 475.114 760"/><path d="M65.86,712h-32l-.14,1-6.6055,47h12l1.9676-14h20A19.2823,19.2823,0,0,0,80.47,729C81.8757,719,75.86,712,65.86,712ZM68.47,729a6.8285,6.8285,0,0,1-6.8432,6h-19l1.6864-12h19C66.3135,723,69.0325,725,68.47,729Z"/><polygon points="466.859 712 451.859 712 436.33 730 427.33 730 429.859 712 417.859 712 411.114 760 423.114 760 425.784 741 434.784 741 445.114 760 460.114 760 445.487 736 445.627 735 466.859 712"/><polygon points="577.643 742 556.859 712 545.859 712 539.114 760 551.114 760 555.33 730 576.114 760 587.114 760 593.859 712 581.859 712 577.643 742"/><path d="M624.4541,722h16a4.1322,4.1322,0,0,1,4.1418,2.4746L654.8757,719c-1.94-4.6245-6.4792-7-12.0162-7h-18c-8,0-15.7027,5-17.0378,14.5s4.9621,14.5,12.9621,14.5h17c3,0,4.7189,2,4.3676,4.5a5.47,5.47,0,0,1-5.6324,4.5h-17a4.1322,4.1322,0,0,1-4.1418-2.4746L605.0974,753c1.94,4.6248,6.4791,7,12.0161,7h19c8,0,15.7027-5,17.0379-14.5S648.1892,731,640.1892,731h-17c-3,0-4.7189-2-4.3675-4.5A5.47,5.47,0,0,1,624.4541,722Z"/><path class="cls-1" d="M785.9892,768l-8.9946,64h64l8.9946-64Zm52.5027,32a27.3923,27.3923,0,0,1-27.3729,24h-25l6.7459-48h25C831.8649,776,840.46,786,838.4919,800Z"/><path class="cls-1" d="M816.319,787h-13l-3.6541,26h13c7,0,12.7027-5,13.827-13S823.319,787,816.319,787Z"/><path class="cls-1" d="M17.9892,768,8.9946,832h64l8.9946-64Zm48.13,56h-48l6.7459-48h12l-5.2,37h36Z"/><path class="cls-1" d="M145.9892,768l-8.9946,64h64l8.9946-64Zm48.13,56h-12l2.67-19h-24l-2.67,19h-12l6.7459-48h12l-2.53,18h24l2.53-18h12Z"/><polygon class="cls-1" points="273.989 768 264.995 832 328.995 832 337.989 768 273.989 768"/><polygon class="cls-2" points="866.335 794 890.335 794 888.789 805 864.789 805 863.665 813 896 813 896 787 867.319 787 866.335 794"/><polygon class="cls-2" points="851.119 824 850.119 824 856.865 776 896 776 896 768 849.989 768 840.995 832 896 832 896 824 851.119 824"/><path class="cls-2" d="M118.319,787h-19l-1.6866,12h19a6.8286,6.8286,0,0,0,6.8433-6C124.0378,789,121.319,787,118.319,787Z"/><path class="cls-2" d="M81.9892,768l-8.9946,64h64l8.9946-64Zm53.4865,25a19.2823,19.2823,0,0,1-19.3892,17h-20L94.119,824h-12l6.6054-47,.1405-1h32C130.8649,776,136.8811,783,135.4757,793Z"/><path class="cls-2" d="M209.9892,768l-8.9946,64h64l8.9946-64Zm49.33,19h-14l-3.6541,26h14l-1.5459,11h-40l1.5459-11h14l3.6541-26h-14l1.5459-11h40Z"/><polygon class="cls-2" points="721.989 768 712.995 832 776.995 832 785.989 768 721.989 768"/><polygon class="cls-1" points="421.149 806 436.149 806 431.178 788 421.149 806"/><path class="cls-1" d="M401.9892,768l-8.9946,64h64l8.9946-64Zm37.13,56-1.8757-8h-20l-4.1243,8h-13l26.7459-48h12l13.2541,48Z"/><path class="cls-1" d="M529.9892,768l-8.9946,64h64l8.9946-64Zm53.33,19h-36l-.9839,7h24l-1.5459,11h-24l-1.1243,8h36l-1.5459,11h-48l6.7459-48h48Z"/><path class="cls-1" d="M657.9892,768l-8.9946,64h64l8.9946-64Zm20.2054,27h17c8,0,14.2973,5,12.9622,14.5S699.119,824,691.119,824h-19c-5.537,0-10.0766-2.3752-12.0163-7l10.28-5.4746A4.1322,4.1322,0,0,0,674.5244,814h17a5.47,5.47,0,0,0,5.6324-4.5c.3513-2.5-1.3676-4.5-4.3676-4.5h-17c-8,0-14.2973-5-12.9622-14.5s9.0379-14.5,17.0379-14.5h18c5.537,0,10.0766,2.3755,12.0162,7l-10.28,5.4746A4.1323,4.1323,0,0,0,695.46,786h-16a5.47,5.47,0,0,0-5.6325,4.5C673.4757,793,675.1946,795,678.1946,795Z"/><path class="cls-2" d="M337.9892,768l-8.9946,64h64l8.9946-64Zm48.13,56h-12l2.67-19h-24l-2.67,19h-12l6.7459-48h12l-2.53,18h24l2.53-18h12Z"/><path class="cls-2" d="M465.9892,768l-8.9946,64h64l8.9946-64Zm49.13,56h-15l-10.33-19h-9l-2.67,19h-12l6.7459-48h12l-2.53,18h9l15.53-18h15l-21.2325,23-.1405,1Z"/><path class="cls-2" d="M593.9892,768l-8.9946,64h64l8.9946-64Zm48.13,56h-11l-20.7839-30-4.2161,30h-12l6.7459-48h11l20.7838,30,4.2162-30h12Z"/><polygon points="186.335 794 162.335 794 164.865 776 152.865 776 146.119 824 158.119 824 160.789 805 184.789 805 182.119 824 194.119 824 200.865 776 188.865 776 186.335 794"/><polygon points="378.335 794 354.335 794 356.865 776 344.865 776 338.119 824 350.119 824 352.789 805 376.789 805 374.119 824 386.119 824 392.865 776 380.865 776 378.335 794"/><polygon points="219.319 787 233.319 787 229.665 813 215.665 813 214.119 824 254.119 824 255.665 813 241.665 813 245.319 787 259.319 787 260.865 776 220.865 776 219.319 787"/><path d="M426.8649,776,400.119,824h13l4.1243-8h20l1.8757,8h13l-13.2541-48Zm-5.7162,30,10.03-18,4.97,18Z"/><polygon points="36.865 776 24.865 776 18.119 824 19.119 824 66.119 824 67.665 813 31.665 813 36.865 776"/><path d="M817.8649,776h-25l-6.7459,48h25a27.3923,27.3923,0,0,0,27.3729-24C840.46,786,831.8649,776,817.8649,776Zm8.627,24c-1.1243,8-6.827,13-13.827,13h-13l3.6541-26h13C823.319,787,827.6163,792,826.4919,800Z"/><polygon points="850.119 824 851.119 824 896 824 896 813 863.665 813 864.789 805 888.789 805 890.335 794 866.335 794 867.319 787 896 787 896 776 856.865 776 850.119 824"/><polygon points="530.119 824 531.119 824 578.119 824 579.665 813 543.665 813 544.789 805 568.789 805 570.335 794 546.335 794 547.319 787 583.319 787 584.865 776 536.865 776 530.119 824"/><path d="M120.8649,776h-32l-.1405,1L82.119,824h12l1.9675-14h20a19.2823,19.2823,0,0,0,19.3892-17C136.8811,783,130.8649,776,120.8649,776Zm2.6108,17a6.8286,6.8286,0,0,1-6.8433,6h-19l1.6866-12h19C121.319,787,124.0378,789,123.4757,793Z"/><polygon points="521.865 776 506.865 776 491.335 794 482.335 794 484.865 776 472.865 776 466.119 824 478.119 824 480.789 805 489.789 805 500.119 824 515.119 824 500.492 800 500.632 799 521.865 776"/><polygon points="632.649 806 611.865 776 600.865 776 594.119 824 606.119 824 610.335 794 631.119 824 642.119 824 648.865 776 636.865 776 632.649 806"/><path d="M679.46,786h16a4.1323,4.1323,0,0,1,4.1418,2.4746L709.8811,783c-1.94-4.6245-6.4792-7-12.0162-7h-18c-8,0-15.7027,5-17.0379,14.5s4.9622,14.5,12.9622,14.5h17c3,0,4.7189,2,4.3676,4.5a5.47,5.47,0,0,1-5.6324,4.5h-17a4.1322,4.1322,0,0,1-4.1418-2.4746L660.1027,817c1.94,4.6248,6.4793,7,12.0163,7h19c8,0,15.7027-5,17.0378-14.5S703.1946,795,695.1946,795h-17c-3,0-4.7189-2-4.3676-4.5A5.47,5.47,0,0,1,679.46,786Z"/><path class="cls-1" d="M871.3243,851h-13l-3.654,26h13c7,0,12.7027-5,13.827-13S878.3243,851,871.3243,851Z"/><path class="cls-1" d="M840.9946,832,832,896h64V832Zm52.5027,32a27.3925,27.3925,0,0,1-27.373,24h-25l6.746-48h25C886.87,840,895.4649,850,893.4973,864Z"/><path class="cls-1" d="M72.9946,832,64,896h64l8.9946-64Zm48.13,56h-48l6.746-48h12l-5.2,37h36Z"/><path class="cls-1" d="M200.9946,832,192,896h64l8.9946-64Zm48.13,56h-12l2.67-19h-24l-2.67,19h-12l6.746-48h12l-2.53,18h24l2.53-18h12Z"/><polygon class="cls-1" points="328.995 832 320 896 384 896 392.995 832 328.995 832"/><path class="cls-2" d="M8.9946,832,0,896H64l8.9946-64Zm53.33,19h-36l-.9837,7h24l-1.546,11h-24L22.67,877h36l-1.546,11h-48l6.746-48h48Z"/><path class="cls-2" d="M173.3243,851h-19l-1.6865,12h19a6.8286,6.8286,0,0,0,6.8433-6C179.0433,853,176.3243,851,173.3243,851Z"/><path class="cls-2" d="M136.9946,832,128,896h64l8.9946-64Zm53.4865,25a19.2823,19.2823,0,0,1-19.3892,17h-20l-1.9676,14h-12l6.6054-47,.1406-1h32C185.87,840,191.8865,847,190.4811,857Z"/><path class="cls-2" d="M264.9946,832,256,896h64l8.9946-64Zm49.33,19h-14l-3.654,26h14l-1.546,11h-40l1.546-11h14l3.654-26h-14l1.546-11h40Z"/><polygon class="cls-2" points="776.995 832 768 896 832 896 840.995 832 776.995 832"/><path class="cls-1" d="M456.9946,832,448,896h64l8.9946-64Zm37.13,56-1.8756-8h-20l-4.1244,8h-13l26.746-48h12l13.254,48Z"/><polygon class="cls-1" points="476.154 870 491.154 870 486.184 852 476.154 870"/><path class="cls-1" d="M584.9946,832,576,896h64l8.9946-64Zm53.33,19h-36l-.9837,7h24l-1.546,11h-24l-1.1243,8h36l-1.546,11h-48l6.746-48h48Z"/><path class="cls-1" d="M712.9946,832,704,896h64l8.9946-64ZM733.2,859h17c8,0,14.2973,5,12.9622,14.5S754.1243,888,746.1243,888h-19c-5.537,0-10.0766-2.3752-12.0162-7l10.28-5.4746A4.1322,4.1322,0,0,0,729.53,878h17a5.47,5.47,0,0,0,5.6325-4.5c.3513-2.5-1.3676-4.5-4.3676-4.5h-17c-8,0-14.2973-5-12.9621-14.5S726.87,840,734.87,840h18c5.537,0,10.0765,2.3755,12.0162,7l-10.28,5.4746A4.132,4.132,0,0,0,750.4649,850h-16a5.47,5.47,0,0,0-5.6323,4.5C728.4811,857,730.2,859,733.2,859Z"/><path class="cls-2" d="M392.9946,832,384,896h64l8.9946-64Zm48.13,56h-12l2.67-19h-24l-2.67,19h-12l6.746-48h12l-2.53,18h24l2.53-18h12Z"/><path class="cls-2" d="M520.9946,832,512,896h64l8.9946-64Zm49.13,56h-15l-10.33-19h-9l-2.67,19h-12l6.746-48h12l-2.53,18h9l15.53-18h15l-21.2325,23-.14,1Z"/><path class="cls-2" d="M648.9946,832,640,896h64l8.9946-64Zm48.13,56h-11l-20.7837-30-4.2163,30h-12l6.746-48h11l20.7838,30,4.2162-30h12Z"/><polygon points="241.341 858 217.341 858 219.87 840 207.87 840 201.124 888 213.124 888 215.795 869 239.795 869 237.124 888 249.124 888 255.87 840 243.87 840 241.341 858"/><polygon points="433.341 858 409.341 858 411.87 840 399.87 840 393.124 888 405.124 888 407.795 869 431.795 869 429.124 888 441.124 888 447.87 840 435.87 840 433.341 858"/><polygon points="274.324 851 288.324 851 284.67 877 270.67 877 269.124 888 309.124 888 310.67 877 296.67 877 300.324 851 314.324 851 315.87 840 275.87 840 274.324 851"/><path d="M481.87,840l-26.746,48h13l4.1244-8h20l1.8756,8h13L493.87,840Zm-5.7162,30,10.03-18,4.97,18Z"/><polygon points="91.87 840 79.87 840 73.124 888 74.124 888 121.124 888 122.67 877 86.67 877 91.87 840"/><path d="M872.87,840h-25l-6.746,48h25a27.3925,27.3925,0,0,0,27.373-24C895.4649,850,886.87,840,872.87,840Zm8.627,24c-1.1243,8-6.827,13-13.827,13h-13l3.654-26h13C878.3243,851,882.6216,856,881.4973,864Z"/><polygon points="9.124 888 10.124 888 57.124 888 58.67 877 22.67 877 23.795 869 47.795 869 49.341 858 25.341 858 26.324 851 62.324 851 63.87 840 15.87 840 9.124 888"/><polygon points="585.124 888 586.124 888 633.124 888 634.67 877 598.67 877 599.795 869 623.795 869 625.341 858 601.341 858 602.324 851 638.324 851 639.87 840 591.87 840 585.124 888"/><path d="M175.87,840h-32l-.1406,1-6.6054,47h12l1.9676-14h20a19.2823,19.2823,0,0,0,19.3892-17C191.8865,847,185.87,840,175.87,840Zm2.6108,17a6.8286,6.8286,0,0,1-6.8433,6h-19l1.6865-12h19C176.3243,851,179.0433,853,178.4811,857Z"/><polygon points="576.87 840 561.87 840 546.341 858 537.341 858 539.87 840 527.87 840 521.124 888 533.124 888 535.795 869 544.795 869 555.124 888 570.124 888 555.497 864 555.638 863 576.87 840"/><polygon points="687.654 870 666.87 840 655.87 840 649.124 888 661.124 888 665.341 858 686.124 888 697.124 888 703.87 840 691.87 840 687.654 870"/><path d="M734.4648,850h16a4.132,4.132,0,0,1,4.1417,2.4746L764.8865,847c-1.94-4.6245-6.4792-7-12.0162-7h-18c-8,0-15.7027,5-17.0378,14.5s4.9621,14.5,12.9621,14.5h17c3,0,4.7189,2,4.3676,4.5A5.47,5.47,0,0,1,746.53,878h-17a4.1322,4.1322,0,0,1-4.1418-2.4746L715.1081,881c1.94,4.6248,6.4792,7,12.0162,7h19c8,0,15.7027-5,17.0379-14.5S758.2,859,750.2,859h-17c-3,0-4.7189-2-4.3675-4.5A5.47,5.47,0,0,1,734.4648,850Z"/><polygon class="cls-2" points="116.93 64 125.925 0 61.925 0 52.93 64 116.93 64"/><path class="cls-1" d="M61.9246,0H0V64H52.93ZM18.13,27h17c8,0,14.2972,5,12.9622,14.5S39.0543,56,31.0543,56h-19C6.5173,56,1.9777,53.6248.0381,49l10.28-5.4746A4.1322,4.1322,0,0,0,14.46,46h17a5.47,5.47,0,0,0,5.6325-4.5c.3513-2.5-1.3677-4.5-4.3677-4.5h-17c-8,0-14.2973-5-12.9621-14.5S11.8,8,19.8,8h18c5.537,0,10.0766,2.3755,12.0163,7l-10.28,5.4746A4.1322,4.1322,0,0,0,35.3948,18h-16a5.47,5.47,0,0,0-5.6324,4.5C13.4111,25,15.13,27,18.13,27Z"/><path d="M19.3948,18h16a4.1322,4.1322,0,0,1,4.1418,2.4746L49.8165,15c-1.94-4.6245-6.4793-7-12.0163-7h-18c-8,0-15.7027,5-17.0378,14.5S7.7245,37,15.7245,37h17c3,0,4.719,2,4.3677,4.5A5.47,5.47,0,0,1,31.46,46h-17a4.1322,4.1322,0,0,1-4.1418-2.4746L.0381,49c1.94,4.6248,6.4792,7,12.0162,7h19c8,0,15.7027-5,17.0379-14.5S43.13,27,35.13,27h-17c-3,0-4.7189-2-4.3676-4.5A5.47,5.47,0,0,1,19.3948,18Z"/><path class="cls-1" d="M116.93,64h-64l-8.9946,64h64ZM73.1354,91h17c8,0,14.2973,5,12.9621,14.5S94.06,120,86.06,120h-19c-5.537,0-10.0766-2.3752-12.0162-7l10.28-5.4746A4.1322,4.1322,0,0,0,69.4651,110h17a5.47,5.47,0,0,0,5.6324-4.5C92.4489,103,90.73,101,87.73,101h-17c-8,0-14.2973-5-12.9622-14.5S66.8057,72,74.8057,72h18c5.537,0,10.0765,2.3755,12.0161,7l-10.28,5.4746A4.1322,4.1322,0,0,0,90.4,82h-16a5.47,5.47,0,0,0-5.6324,4.5C68.4164,89,70.1354,91,73.1354,91Z"/><polygon class="cls-2" points="52.93 64 0 64 0 72 6.806 72 27.589 102 31.806 72 43.806 72 37.06 120 26.06 120 5.276 90 1.06 120 0 120 0 128 43.935 128 52.93 64"/><polygon points="5.276 90 26.06 120 37.06 120 43.806 72 31.806 72 27.589 102 6.806 72 0 72 0 120 1.06 120 5.276 90"/><path d="M74.4,82h16a4.1322,4.1322,0,0,1,4.1417,2.4746L104.8218,79c-1.94-4.6245-6.4791-7-12.0161-7h-18c-8,0-15.7028,5-17.0379,14.5S62.73,101,70.73,101h17c3,0,4.7189,2,4.3675,4.5a5.47,5.47,0,0,1-5.6324,4.5h-17a4.1322,4.1322,0,0,1-4.1418-2.4746L55.0435,113c1.94,4.6248,6.4792,7,12.0162,7h19c8,0,15.7027-5,17.0378-14.5S98.1354,91,90.1354,91h-17c-3,0-4.719-2-4.3676-4.5A5.47,5.47,0,0,1,74.4,82Z"/><polygon class="cls-1" points="43.935 128 0 128 0 136 34.811 136 33.265 147 0 147 0 154 20.281 154 18.735 165 0 165 0 173 29.611 173 28.065 184 0 184 0 192 34.941 192 43.935 128"/><path class="cls-2" d="M107.9354,128h-64l-8.9947,64h64Zm-15.87,56h-11L60.2813,154l-4.2162,30h-12l6.7459-48h11l20.7838,30,4.2162-30h12Z"/><polygon points="20.281 154 0 154 0 165 18.735 165 20.281 154"/><polygon points="34.811 136 0 136 0 147 33.265 147 34.811 136"/><polygon points="29.611 173 0 173 0 184 28.065 184 29.611 173"/><polygon points="82.595 166 61.811 136 50.811 136 44.065 184 56.065 184 60.281 154 81.065 184 92.065 184 98.811 136 86.811 136 82.595 166"/><path class="cls-1" d="M98.9407,192h-64l-8.9946,64h64ZM88.27,211h-36l-.9837,7h24l-1.546,11h-24l-1.1243,8h36L83.07,248h-48l6.746-48h48Z"/><polygon class="cls-2" points="34.941 192 0 192 0 213.696 11.816 200 26.816 200 5.584 223 5.443 224 20.07 248 5.07 248 0 238.674 0 256 25.946 256 34.941 192"/><polygon points="35.07 248 36.07 248 83.07 248 84.616 237 48.616 237 49.741 229 73.741 229 75.287 218 51.287 218 52.27 211 88.27 211 89.816 200 41.816 200 35.07 248"/><polygon points="20.07 248 5.443 224 5.584 223 26.816 200 11.816 200 0 213.696 0 238.674 5.07 248 20.07 248"/><polygon class="cls-1" points="25.946 256 0 256 0 268.267 12.076 312 0 312 0 320 16.952 320 25.946 256"/><path class="cls-2" d="M89.9461,256h-64l-8.9946,64h64Zm-29.87,56-10.33-19h-9l-2.67,19h-12l6.7459-48h12l-2.53,18h9l15.53-18h15L60.5894,287l-.14,1,14.627,24Z"/><polygon points="0 268.267 0 312 12.076 312 0 268.267"/><polygon points="60.589 287 81.822 264 66.822 264 51.292 282 42.292 282 44.822 264 32.822 264 26.076 312 38.076 312 40.746 293 49.746 293 60.076 312 75.076 312 60.449 288 60.589 287"/><polygon class="cls-1" points="36.111 358 51.111 358 46.141 340 36.111 358"/><path class="cls-1" d="M16.9515,320,7.9569,384h64l8.9946-64Zm37.13,56-1.8756-8h-20l-4.1244,8h-13l26.746-48h12l13.254,48Z"/><polygon class="cls-2" points="16.952 320 0 320 0 328 7.827 328 1.081 376 0 376 0 384 7.957 384 16.952 320"/><polygon points="7.827 328 0 328 0 376 1.081 376 7.827 328"/><path d="M41.8272,328l-26.746,48h13l4.1244-8h20l1.8756,8h13l-13.254-48ZM36.111,358l10.03-18,4.97,18Z"/><polygon class="cls-1" points="0 384 0 440.616 7.957 384 0 384"/><path class="cls-2" d="M71.9569,384h-64L0,440.6162V448H62.9623Zm-15.87,56h-12l2.67-19h-24l-2.67,19h-12l6.746-48h12l-2.53,18h24l2.53-18h12Z"/><polygon points="48.303 410 24.303 410 26.833 392 14.833 392 8.087 440 20.087 440 22.757 421 46.757 421 44.087 440 56.087 440 62.833 392 50.833 392 48.303 410"/><polygon class="cls-1" points="62.962 448 0 448 0 512 53.968 512 62.962 448"/><polygon class="cls-2" points="53.968 512 0 512 0 526.001 0.843 520 40.843 520 39.297 531 25.297 531 21.643 557 35.643 557 34.097 568 0 568 0 576 44.973 576 53.968 512"/><polygon class="cls-2" points="13.297 531 0 531 0 557 9.643 557 13.297 531"/><polygon points="35.643 557 21.643 557 25.297 531 39.297 531 40.843 520 0.843 520 0 526.001 0 531 13.297 531 9.643 557 0 557 0 568 34.097 568 35.643 557"/><polygon class="cls-1" points="44.973 576 0 576 0 602 21.319 602 23.849 584 35.849 584 29.103 632 17.103 632 19.773 613 0 613 0 640 35.978 640 44.973 576"/><polygon points="17.103 632 29.103 632 35.849 584 23.849 584 21.319 602 0 602 0 613 19.773 613 17.103 632"/><path class="cls-2" d="M35.9785,640H0v8H10.8541c10,0,16.0163,7,14.6108,17A19.2823,19.2823,0,0,1,6.0757,682H0v22H26.9838Z"/><path class="cls-2" d="M13.4649,665c.5622-4-2.1567-6-5.1567-6H0v12H6.6217A6.8285,6.8285,0,0,0,13.4649,665Z"/><path d="M25.4649,665c1.4055-10-4.6108-17-14.6108-17H0v11H8.3082c3,0,5.7189,2,5.1567,6a6.8285,6.8285,0,0,1-6.8432,6H0v11H6.0757A19.2823,19.2823,0,0,0,25.4649,665Z"/><polygon class="cls-1" points="26.984 704 0 704 0 749 12.659 749 11.114 760 0 760 0 768 17.989 768 26.984 704"/><polygon points="12.659 749 0 749 0 760 11.114 760 12.659 749"/><polygon class="cls-2" points="17.989 768 0 768 0 776 8.865 776 7.319 787 0 787 0 813 3.665 813 2.119 824 0 824 0 832 8.995 832 17.989 768"/><polygon points="8.865 776 0 776 0 787 7.319 787 8.865 776"/><polygon class="cls-1" points="0 832 0 896 8.995 832 0 832"/></svg>