<svg id="Layer_1" data-name="Layer 1" xmlns="http://www.w3.org/2000/svg" viewBox="0 0 896 896"><defs><style>.cls-1{fill:#ffde17;}.cls-2{fill:#fff;}.cls-3{fill:#231f20;}</style></defs><rect class="cls-1" width="64" height="64"/><rect class="cls-1" x="128" width="64" height="64"/><rect class="cls-1" x="256" width="64" height="64"/><rect class="cls-1" x="384" width="64" height="64"/><rect class="cls-2" x="64" width="64" height="64"/><rect class="cls-2" x="192" width="64" height="64"/><rect class="cls-2" x="320" width="64" height="64"/><rect class="cls-2" x="832" width="64" height="64"/><rect class="cls-1" x="512" width="64" height="64"/><rect class="cls-1" x="640" width="64" height="64"/><rect class="cls-1" x="768" width="64" height="64"/><rect class="cls-2" x="448" width="64" height="64"/><rect class="cls-2" x="576" width="64" height="64"/><rect class="cls-2" x="704" width="64" height="64"/><polygon class="cls-3" points="300 8 300 26 276 26 276 8 264 8 264 56 276 56 276 37 300 37 300 56 312 56 312 8 300 8"/><polygon class="cls-3" points="492 8 492 26 468 26 468 8 456 8 456 56 468 56 468 37 492 37 492 56 504 56 504 8 492 8"/><polygon class="cls-3" points="372 45 358 45 358 19 372 19 372 8 332 8 332 19 346 19 346 45 332 45 332 56 372 56 372 45"/><path class="cls-3" d="M550,8H538L518,56h13l3-8h20l3,8h13ZM536.5,38,544,20l7.5,18Z"/><polygon class="cls-3" points="184 56 184 45 148 45 148 8 136 8 136 56 137 56 184 56"/><path class="cls-3" d="M33,56c14,0,24-10,24-24S47,8,33,8H8V56ZM20,19H33c7,0,12,5,12,13S40,45,33,45H20Z"/><polygon class="cls-3" points="120 56 120 45 84 45 84 37 108 37 108 26 84 26 84 19 120 19 120 8 72 8 72 56 73 56 120 56"/><polygon class="cls-3" points="696 56 696 45 660 45 660 37 684 37 684 26 660 26 660 19 696 19 696 8 648 8 648 56 649 56 696 56"/><path class="cls-3" d="M212,42h20c10,0,17-7,17-17S242,8,232,8H200V56h12Zm0-23h19a5.764,5.764,0,0,1,6,6,5.764,5.764,0,0,1-6,6H212Z"/><polygon class="cls-3" points="615 31 633 8 618 8 605 26 596 26 596 8 584 8 584 56 596 56 596 37 605 37 618 56 633 56 615 32 615 31"/><polygon class="cls-3" points="748 38 723 8 712 8 712 56 724 56 724 26 749 56 760 56 760 8 748 8 748 38"/><path class="cls-3" d="M809,27H792c-3,0-5-2-5-4.5s2-4.5,5-4.5h16v0a4.8691,4.8691,0,0,1,4.49,2.4746L822,15c-2.59-4.6247-7.463-7-13-7V8H791c-8,0-15,5-15,14.5S783,37,791,37h17c3,0,5,2,5,4.5s-2,4.5-5,4.5H791a4.8691,4.8691,0,0,1-4.49-2.4746L777,49c2.59,4.6246,7.463,7,13,7h19c8,0,15-5,15-14.5S817,27,809,27Z"/><rect class="cls-1" x="64" y="64" width="64" height="64"/><rect class="cls-1" x="192" y="64" width="64" height="64"/><rect class="cls-1" x="320" y="64" width="64" height="64"/><rect class="cls-1" x="448" y="64" width="64" height="64"/><rect class="cls-2" x="128" y="64" width="64" height="64"/><rect class="cls-2" x="256" y="64" width="64" height="64"/><rect class="cls-2" x="384" y="64" width="64" height="64"/><rect class="cls-2" y="64" width="64" height="64"/><rect class="cls-1" x="576" y="64" width="64" height="64"/><rect class="cls-1" x="704" y="64" width="64" height="64"/><rect class="cls-1" x="832" y="64" width="64" height="64"/><rect class="cls-2" x="512" y="64" width="64" height="64"/><rect class="cls-2" x="640" y="64" width="64" height="64"/><rect class="cls-2" x="768" y="64" width="64" height="64"/><polygon class="cls-3" points="364 72 364 90 340 90 340 72 328 72 328 120 340 120 340 101 364 101 364 120 376 120 376 72 364 72"/><polygon class="cls-3" points="556 72 556 90 532 90 532 72 520 72 520 120 532 120 532 101 556 101 556 120 568 120 568 72 556 72"/><polygon class="cls-3" points="436 109 422 109 422 83 436 83 436 72 396 72 396 83 410 83 410 109 396 109 396 120 436 120 436 109"/><path class="cls-3" d="M614,72H602l-20,48h13l3-8h20l3,8h13Zm-13.5,30L608,84l7.5,18Z"/><polygon class="cls-3" points="248 120 248 109 212 109 212 72 200 72 200 120 201 120 248 120"/><path class="cls-3" d="M97,120c14,0,24-10,24-24S111,72,97,72H72v48ZM84,83H97c7,0,12,5,12,13s-5,13-12,13H84Z"/><polygon class="cls-3" points="184 120 184 109 148 109 148 101 172 101 172 90 148 90 148 83 184 83 184 72 136 72 136 120 137 120 184 120"/><polygon class="cls-3" points="760 120 760 109 724 109 724 101 748 101 748 90 724 90 724 83 760 83 760 72 712 72 712 120 713 120 760 120"/><path class="cls-3" d="M276,106h20c10,0,17-7,17-17s-7-17-17-17H264v48h12Zm0-23h19a6,6,0,0,1,0,12H276Z"/><polygon class="cls-3" points="679 95 697 72 682 72 669 90 660 90 660 72 648 72 648 120 660 120 660 101 669 101 682 120 697 120 679 96 679 95"/><polygon class="cls-3" points="812 102 787 72 776 72 776 120 788 120 788 90 813 120 824 120 824 72 812 72 812 102"/><path class="cls-3" d="M873,91H856c-3,0-5-2-5-4.5s2-4.5,5-4.5h16v0a4.8691,4.8691,0,0,1,4.49,2.4746L886,79c-2.59-4.6247-7.463-7-13-7v0H855c-8,0-15,5-15,14.5s7,14.5,15,14.5h17c3,0,5,2,5,4.5s-2,4.5-5,4.5H855a4.8691,4.8691,0,0,1-4.49-2.4746L841,113c2.59,4.6246,7.463,7,13,7h19c8,0,15-5,15-14.5S881,91,873,91Z"/><rect class="cls-1" x="128" y="128" width="64" height="64"/><rect class="cls-1" x="256" y="128" width="64" height="64"/><rect class="cls-1" x="384" y="128" width="64" height="64"/><rect class="cls-1" x="512" y="128" width="64" height="64"/><rect class="cls-2" x="192" y="128" width="64" height="64"/><rect class="cls-2" x="320" y="128" width="64" height="64"/><rect class="cls-2" x="448" y="128" width="64" height="64"/><rect class="cls-2" x="64" y="128" width="64" height="64"/><rect class="cls-1" x="640" y="128" width="64" height="64"/><rect class="cls-1" x="768" y="128" width="64" height="64"/><rect class="cls-1" y="128" width="64" height="64"/><rect class="cls-2" x="576" y="128" width="64" height="64"/><rect class="cls-2" x="704" y="128" width="64" height="64"/><rect class="cls-2" x="832" y="128" width="64" height="64"/><polygon class="cls-3" points="428 136 428 154 404 154 404 136 392 136 392 184 404 184 404 165 428 165 428 184 440 184 440 136 428 136"/><polygon class="cls-3" points="620 136 620 154 596 154 596 136 584 136 584 184 596 184 596 165 620 165 620 184 632 184 632 136 620 136"/><polygon class="cls-3" points="500 173 486 173 486 147 500 147 500 136 460 136 460 147 474 147 474 173 460 173 460 184 500 184 500 173"/><path class="cls-3" d="M678,136H666l-20,48h13l3-8h20l3,8h13Zm-13.5,30,7.5-18,7.5,18Z"/><polygon class="cls-3" points="312 184 312 173 276 173 276 136 264 136 264 184 265 184 312 184"/><path class="cls-3" d="M161,184c14,0,24-10,24-24s-10-24-24-24H136v48Zm-13-37h13c7,0,12,5,12,13s-5,13-12,13H148Z"/><polygon class="cls-3" points="248 184 248 173 212 173 212 165 236 165 236 154 212 154 212 147 248 147 248 136 200 136 200 184 201 184 248 184"/><polygon class="cls-3" points="824 184 824 173 788 173 788 165 812 165 812 154 788 154 788 147 824 147 824 136 776 136 776 184 777 184 824 184"/><path class="cls-3" d="M340,170h20c10,0,17-7,17-17s-7-17-17-17H328v48h12Zm0-23h19a6,6,0,0,1,0,12H340Z"/><polygon class="cls-3" points="743 159 761 136 746 136 733 154 724 154 724 136 712 136 712 184 724 184 724 165 733 165 746 184 761 184 743 160 743 159"/><polygon class="cls-3" points="876 166 851 136 840 136 840 184 852 184 852 154 877 184 888 184 888 136 876 136 876 166"/><path class="cls-3" d="M41,155H24c-3,0-5-2-5-4.5s2-4.5,5-4.5H40v0a4.8691,4.8691,0,0,1,4.49,2.4746L54,143c-2.59-4.6247-7.463-7-13-7v0H23c-8,0-15,5-15,14.5S15,165,23,165H40c3,0,5,2,5,4.5s-2,4.5-5,4.5H23a4.8691,4.8691,0,0,1-4.49-2.4746L9,177c2.59,4.6246,7.463,7,13,7H41c8,0,15-5,15-14.5S49,155,41,155Z"/><rect class="cls-1" x="192" y="192" width="64" height="64"/><rect class="cls-1" x="320" y="192" width="64" height="64"/><rect class="cls-1" x="448" y="192" width="64" height="64"/><rect class="cls-1" x="576" y="192" width="64" height="64"/><rect class="cls-2" x="256" y="192" width="64" height="64"/><rect class="cls-2" x="384" y="192" width="64" height="64"/><rect class="cls-2" x="512" y="192" width="64" height="64"/><rect class="cls-2" x="128" y="192" width="64" height="64"/><rect class="cls-1" x="704" y="192" width="64" height="64"/><rect class="cls-1" x="832" y="192" width="64" height="64"/><rect class="cls-1" x="64" y="192" width="64" height="64"/><rect class="cls-2" x="640" y="192" width="64" height="64"/><rect class="cls-2" x="768" y="192" width="64" height="64"/><rect class="cls-2" y="192" width="64" height="64"/><polygon class="cls-3" points="492 200 492 218 468 218 468 200 456 200 456 248 468 248 468 229 492 229 492 248 504 248 504 200 492 200"/><polygon class="cls-3" points="684 200 684 218 660 218 660 200 648 200 648 248 660 248 660 229 684 229 684 248 696 248 696 200 684 200"/><polygon class="cls-3" points="564 237 550 237 550 211 564 211 564 200 524 200 524 211 538 211 538 237 524 237 524 248 564 248 564 237"/><path class="cls-3" d="M742,200H730l-20,48h13l3-8h20l3,8h13Zm-13.5,30,7.5-18,7.5,18Z"/><polygon class="cls-3" points="376 248 376 237 340 237 340 200 328 200 328 248 329 248 376 248"/><path class="cls-3" d="M225,248c14,0,24-10,24-24s-10-24-24-24H200v48Zm-13-37h13c7,0,12,5,12,13s-5,13-12,13H212Z"/><polygon class="cls-3" points="312 248 312 237 276 237 276 229 300 229 300 218 276 218 276 211 312 211 312 200 264 200 264 248 265 248 312 248"/><polygon class="cls-3" points="888 248 888 237 852 237 852 229 876 229 876 218 852 218 852 211 888 211 888 200 840 200 840 248 841 248 888 248"/><path class="cls-3" d="M404,234h20c10,0,17-7,17-17s-7-17-17-17H392v48h12Zm0-23h19a6,6,0,0,1,0,12H404Z"/><polygon class="cls-3" points="807 223 825 200 810 200 797 218 788 218 788 200 776 200 776 248 788 248 788 229 797 229 810 248 825 248 807 224 807 223"/><polygon class="cls-3" points="44 230 19 200 8 200 8 248 20 248 20 218 45 248 56 248 56 200 44 200 44 230"/><path class="cls-3" d="M105,219H88c-3,0-5-2-5-4.5s2-4.5,5-4.5h16v0a4.8691,4.8691,0,0,1,4.49,2.4746L118,207c-2.59-4.6247-7.463-7-13-7v0H87c-8,0-15,5-15,14.5S79,229,87,229h17c3,0,5,2,5,4.5s-2,4.5-5,4.5H87a4.8691,4.8691,0,0,1-4.49-2.4746L73,241c2.59,4.6246,7.463,7,13,7h19c8,0,15-5,15-14.5S113,219,105,219Z"/><rect class="cls-1" x="256" y="256" width="64" height="64"/><rect class="cls-1" x="384" y="256" width="64" height="64"/><rect class="cls-1" x="512" y="256" width="64" height="64"/><rect class="cls-1" x="640" y="256" width="64" height="64"/><rect class="cls-2" x="320" y="256" width="64" height="64"/><rect class="cls-2" x="448" y="256" width="64" height="64"/><rect class="cls-2" x="576" y="256" width="64" height="64"/><rect class="cls-2" x="192" y="256" width="64" height="64"/><rect class="cls-1" x="768" y="256" width="64" height="64"/><rect class="cls-1" y="256" width="64" height="64"/><rect class="cls-1" x="128" y="256" width="64" height="64"/><rect class="cls-2" x="704" y="256" width="64" height="64"/><rect class="cls-2" x="832" y="256" width="64" height="64"/><rect class="cls-2" x="64" y="256" width="64" height="64"/><polygon class="cls-3" points="556 264 556 282 532 282 532 264 520 264 520 312 532 312 532 293 556 293 556 312 568 312 568 264 556 264"/><polygon class="cls-3" points="748 264 748 282 724 282 724 264 712 264 712 312 724 312 724 293 748 293 748 312 760 312 760 264 748 264"/><polygon class="cls-3" points="628 301 614 301 614 275 628 275 628 264 588 264 588 275 602 275 602 301 588 301 588 312 628 312 628 301"/><path class="cls-3" d="M806,264H794l-20,48h13l3-8h20l3,8h13Zm-13.5,30,7.5-18,7.5,18Z"/><polygon class="cls-3" points="440 312 440 301 404 301 404 264 392 264 392 312 393 312 440 312"/><path class="cls-3" d="M289,312c14,0,24-10,24-24s-10-24-24-24H264v48Zm-13-37h13c7,0,12,5,12,13s-5,13-12,13H276Z"/><polygon class="cls-3" points="376 312 376 301 340 301 340 293 364 293 364 282 340 282 340 275 376 275 376 264 328 264 328 312 329 312 376 312"/><polygon class="cls-3" points="56 312 56 301 20 301 20 293 44 293 44 282 20 282 20 275 56 275 56 264 8 264 8 312 9 312 56 312"/><path class="cls-3" d="M468,298h20c10,0,17-7,17-17s-7-17-17-17H456v48h12Zm0-23h19a6,6,0,0,1,0,12H468Z"/><polygon class="cls-3" points="871 287 889 264 874 264 861 282 852 282 852 264 840 264 840 312 852 312 852 293 861 293 874 312 889 312 871 288 871 287"/><polygon class="cls-3" points="108 294 83 264 72 264 72 312 84 312 84 282 109 312 120 312 120 264 108 264 108 294"/><path class="cls-3" d="M169,283H152c-3,0-5-2-5-4.5s2-4.5,5-4.5h16v0a4.8691,4.8691,0,0,1,4.49,2.4746L182,271c-2.59-4.6247-7.463-7-13-7v0H151c-8,0-15,5-15,14.5s7,14.5,15,14.5h17c3,0,5,2,5,4.5s-2,4.5-5,4.5H151a4.8691,4.8691,0,0,1-4.49-2.4746L137,305c2.59,4.6246,7.463,7,13,7h19c8,0,15-5,15-14.5S177,283,169,283Z"/><rect class="cls-1" x="320" y="320" width="64" height="64"/><rect class="cls-1" x="448" y="320" width="64" height="64"/><rect class="cls-1" x="576" y="320" width="64" height="64"/><rect class="cls-1" x="704" y="320" width="64" height="64"/><rect class="cls-2" x="384" y="320" width="64" height="64"/><rect class="cls-2" x="512" y="320" width="64" height="64"/><rect class="cls-2" x="640" y="320" width="64" height="64"/><rect class="cls-2" x="256" y="320" width="64" height="64"/><rect class="cls-1" x="832" y="320" width="64" height="64"/><rect class="cls-1" x="64" y="320" width="64" height="64"/><rect class="cls-1" x="192" y="320" width="64" height="64"/><rect class="cls-2" x="768" y="320" width="64" height="64"/><rect class="cls-2" y="320" width="64" height="64"/><rect class="cls-2" x="128" y="320" width="64" height="64"/><polygon class="cls-3" points="620 328 620 346 596 346 596 328 584 328 584 376 596 376 596 357 620 357 620 376 632 376 632 328 620 328"/><polygon class="cls-3" points="812 328 812 346 788 346 788 328 776 328 776 376 788 376 788 357 812 357 812 376 824 376 824 328 812 328"/><polygon class="cls-3" points="692 365 678 365 678 339 692 339 692 328 652 328 652 339 666 339 666 365 652 365 652 376 692 376 692 365"/><path class="cls-3" d="M870,328H858l-20,48h13l3-8h20l3,8h13Zm-13.5,30,7.5-18,7.5,18Z"/><polygon class="cls-3" points="504 376 504 365 468 365 468 328 456 328 456 376 457 376 504 376"/><path class="cls-3" d="M353,376c14,0,24-10,24-24s-10-24-24-24H328v48Zm-13-37h13c7,0,12,5,12,13s-5,13-12,13H340Z"/><polygon class="cls-3" points="440 376 440 365 404 365 404 357 428 357 428 346 404 346 404 339 440 339 440 328 392 328 392 376 393 376 440 376"/><polygon class="cls-3" points="120 376 120 365 84 365 84 357 108 357 108 346 84 346 84 339 120 339 120 328 72 328 72 376 73 376 120 376"/><path class="cls-3" d="M532,362h20c10,0,17-7,17-17s-7-17-17-17H520v48h12Zm0-23h19a6,6,0,0,1,0,12H532Z"/><polygon class="cls-3" points="39 351 57 328 42 328 29 346 20 346 20 328 8 328 8 376 20 376 20 357 29 357 42 376 57 376 39 352 39 351"/><polygon class="cls-3" points="172 358 147 328 136 328 136 376 148 376 148 346 173 376 184 376 184 328 172 328 172 358"/><path class="cls-3" d="M233,347H216c-3,0-5-2-5-4.5s2-4.5,5-4.5h16v0a4.8691,4.8691,0,0,1,4.49,2.4746L246,335c-2.59-4.6247-7.463-7-13-7v0H215c-8,0-15,5-15,14.5s7,14.5,15,14.5h17c3,0,5,2,5,4.5s-2,4.5-5,4.5H215a4.8691,4.8691,0,0,1-4.49-2.4746L201,369c2.59,4.6246,7.463,7,13,7h19c8,0,15-5,15-14.5S241,347,233,347Z"/><rect class="cls-1" x="384" y="384" width="64" height="64"/><rect class="cls-1" x="512" y="384" width="64" height="64"/><rect class="cls-1" x="640" y="384" width="64" height="64"/><rect class="cls-1" x="768" y="384" width="64" height="64"/><rect class="cls-2" x="448" y="384" width="64" height="64"/><rect class="cls-2" x="576" y="384" width="64" height="64"/><rect class="cls-2" x="704" y="384" width="64" height="64"/><rect class="cls-2" x="320" y="384" width="64" height="64"/><rect class="cls-1" y="384" width="64" height="64"/><rect class="cls-1" x="128" y="384" width="64" height="64"/><rect class="cls-1" x="256" y="384" width="64" height="64"/><rect class="cls-2" x="832" y="384" width="64" height="64"/><rect class="cls-2" x="64" y="384" width="64" height="64"/><rect class="cls-2" x="192" y="384" width="64" height="64"/><polygon class="cls-3" points="684 392 684 410 660 410 660 392 648 392 648 440 660 440 660 421 684 421 684 440 696 440 696 392 684 392"/><polygon class="cls-3" points="876 392 876 410 852 410 852 392 840 392 840 440 852 440 852 421 876 421 876 440 888 440 888 392 876 392"/><polygon class="cls-3" points="756 429 742 429 742 403 756 403 756 392 716 392 716 403 730 403 730 429 716 429 716 440 756 440 756 429"/><path class="cls-3" d="M38,392H26L6,440H19l3-8H42l3,8H58ZM24.5,422,32,404l7.5,18Z"/><polygon class="cls-3" points="568 440 568 429 532 429 532 392 520 392 520 440 521 440 568 440"/><path class="cls-3" d="M417,440c14,0,24-10,24-24s-10-24-24-24H392v48Zm-13-37h13c7,0,12,5,12,13s-5,13-12,13H404Z"/><polygon class="cls-3" points="504 440 504 429 468 429 468 421 492 421 492 410 468 410 468 403 504 403 504 392 456 392 456 440 457 440 504 440"/><polygon class="cls-3" points="184 440 184 429 148 429 148 421 172 421 172 410 148 410 148 403 184 403 184 392 136 392 136 440 137 440 184 440"/><path class="cls-3" d="M596,426h20c10,0,17-7,17-17s-7-17-17-17H584v48h12Zm0-23h19a6,6,0,0,1,0,12H596Z"/><polygon class="cls-3" points="103 415 121 392 106 392 93 410 84 410 84 392 72 392 72 440 84 440 84 421 93 421 106 440 121 440 103 416 103 415"/><polygon class="cls-3" points="236 422 211 392 200 392 200 440 212 440 212 410 237 440 248 440 248 392 236 392 236 422"/><path class="cls-3" d="M297,411H280c-3,0-5-2-5-4.5s2-4.5,5-4.5h16v0a4.8691,4.8691,0,0,1,4.49,2.4746L310,399c-2.59-4.6247-7.463-7-13-7v0H279c-8,0-15,5-15,14.5s7,14.5,15,14.5h17c3,0,5,2,5,4.5s-2,4.5-5,4.5H279a4.8691,4.8691,0,0,1-4.49-2.4746L265,433c2.59,4.6246,7.463,7,13,7h19c8,0,15-5,15-14.5S305,411,297,411Z"/><rect class="cls-1" x="448" y="448" width="64" height="64"/><rect class="cls-1" x="576" y="448" width="64" height="64"/><rect class="cls-1" x="704" y="448" width="64" height="64"/><rect class="cls-1" x="832" y="448" width="64" height="64"/><rect class="cls-2" x="512" y="448" width="64" height="64"/><rect class="cls-2" x="640" y="448" width="64" height="64"/><rect class="cls-2" x="768" y="448" width="64" height="64"/><rect class="cls-2" x="384" y="448" width="64" height="64"/><rect class="cls-1" x="64" y="448" width="64" height="64"/><rect class="cls-1" x="192" y="448" width="64" height="64"/><rect class="cls-1" x="320" y="448" width="64" height="64"/><rect class="cls-2" y="448" width="64" height="64"/><rect class="cls-2" x="128" y="448" width="64" height="64"/><rect class="cls-2" x="256" y="448" width="64" height="64"/><polygon class="cls-3" points="748 456 748 474 724 474 724 456 712 456 712 504 724 504 724 485 748 485 748 504 760 504 760 456 748 456"/><polygon class="cls-3" points="44 456 44 474 20 474 20 456 8 456 8 504 20 504 20 485 44 485 44 504 56 504 56 456 44 456"/><polygon class="cls-3" points="820 493 806 493 806 467 820 467 820 456 780 456 780 467 794 467 794 493 780 493 780 504 820 504 820 493"/><path class="cls-3" d="M102,456H90L70,504H83l3-8h20l3,8h13ZM88.5,486,96,468l7.5,18Z"/><polygon class="cls-3" points="632 504 632 493 596 493 596 456 584 456 584 504 585 504 632 504"/><path class="cls-3" d="M481,504c14,0,24-10,24-24s-10-24-24-24H456v48Zm-13-37h13c7,0,12,5,12,13s-5,13-12,13H468Z"/><polygon class="cls-3" points="568 504 568 493 532 493 532 485 556 485 556 474 532 474 532 467 568 467 568 456 520 456 520 504 521 504 568 504"/><polygon class="cls-3" points="248 504 248 493 212 493 212 485 236 485 236 474 212 474 212 467 248 467 248 456 200 456 200 504 201 504 248 504"/><path class="cls-3" d="M660,490h20c10,0,17-7,17-17s-7-17-17-17H648v48h12Zm0-23h19a6,6,0,0,1,0,12H660Z"/><polygon class="cls-3" points="167 479 185 456 170 456 157 474 148 474 148 456 136 456 136 504 148 504 148 485 157 485 170 504 185 504 167 480 167 479"/><polygon class="cls-3" points="300 486 275 456 264 456 264 504 276 504 276 474 301 504 312 504 312 456 300 456 300 486"/><path class="cls-3" d="M361,475H344c-3,0-5-2-5-4.5s2-4.5,5-4.5h16v0a4.8691,4.8691,0,0,1,4.49,2.4746L374,463c-2.59-4.6247-7.463-7-13-7v0H343c-8,0-15,5-15,14.5s7,14.5,15,14.5h17c3,0,5,2,5,4.5s-2,4.5-5,4.5H343a4.8691,4.8691,0,0,1-4.49-2.4746L329,497c2.59,4.6246,7.463,7,13,7h19c8,0,15-5,15-14.5S369,475,361,475Z"/><rect class="cls-1" x="512" y="512" width="64" height="64"/><rect class="cls-1" x="640" y="512" width="64" height="64"/><rect class="cls-1" x="768" y="512" width="64" height="64"/><rect class="cls-1" y="512" width="64" height="64"/><rect class="cls-2" x="576" y="512" width="64" height="64"/><rect class="cls-2" x="704" y="512" width="64" height="64"/><rect class="cls-2" x="832" y="512" width="64" height="64"/><rect class="cls-2" x="448" y="512" width="64" height="64"/><rect class="cls-1" x="128" y="512" width="64" height="64"/><rect class="cls-1" x="256" y="512" width="64" height="64"/><rect class="cls-1" x="384" y="512" width="64" height="64"/><rect class="cls-2" x="64" y="512" width="64" height="64"/><rect class="cls-2" x="192" y="512" width="64" height="64"/><rect class="cls-2" x="320" y="512" width="64" height="64"/><polygon class="cls-3" points="812 520 812 538 788 538 788 520 776 520 776 568 788 568 788 549 812 549 812 568 824 568 824 520 812 520"/><polygon class="cls-3" points="108 520 108 538 84 538 84 520 72 520 72 568 84 568 84 549 108 549 108 568 120 568 120 520 108 520"/><polygon class="cls-3" points="884 557 870 557 870 531 884 531 884 520 844 520 844 531 858 531 858 557 844 557 844 568 884 568 884 557"/><path class="cls-3" d="M166,520H154l-20,48h13l3-8h20l3,8h13Zm-13.5,30,7.5-18,7.5,18Z"/><polygon class="cls-3" points="696 568 696 557 660 557 660 520 648 520 648 568 649 568 696 568"/><path class="cls-3" d="M545,568c14,0,24-10,24-24s-10-24-24-24H520v48Zm-13-37h13c7,0,12,5,12,13s-5,13-12,13H532Z"/><polygon class="cls-3" points="632 568 632 557 596 557 596 549 620 549 620 538 596 538 596 531 632 531 632 520 584 520 584 568 585 568 632 568"/><polygon class="cls-3" points="312 568 312 557 276 557 276 549 300 549 300 538 276 538 276 531 312 531 312 520 264 520 264 568 265 568 312 568"/><path class="cls-3" d="M724,554h20c10,0,17-7,17-17s-7-17-17-17H712v48h12Zm0-23h19a6,6,0,0,1,0,12H724Z"/><polygon class="cls-3" points="231 543 249 520 234 520 221 538 212 538 212 520 200 520 200 568 212 568 212 549 221 549 234 568 249 568 231 544 231 543"/><polygon class="cls-3" points="364 550 339 520 328 520 328 568 340 568 340 538 365 568 376 568 376 520 364 520 364 550"/><path class="cls-3" d="M425,539H408c-3,0-5-2-5-4.5s2-4.5,5-4.5h16v0a4.8691,4.8691,0,0,1,4.49,2.4746L438,527c-2.59-4.6247-7.463-7-13-7v0H407c-8,0-15,5-15,14.5s7,14.5,15,14.5h17c3,0,5,2,5,4.5s-2,4.5-5,4.5H407a4.8691,4.8691,0,0,1-4.49-2.4746L393,561c2.59,4.6246,7.463,7,13,7h19c8,0,15-5,15-14.5S433,539,425,539Z"/><rect class="cls-1" x="576" y="576" width="64" height="64"/><rect class="cls-1" x="704" y="576" width="64" height="64"/><rect class="cls-1" x="832" y="576" width="64" height="64"/><rect class="cls-1" x="64" y="576" width="64" height="64"/><rect class="cls-2" x="640" y="576" width="64" height="64"/><rect class="cls-2" x="768" y="576" width="64" height="64"/><rect class="cls-2" y="576" width="64" height="64"/><rect class="cls-2" x="512" y="576" width="64" height="64"/><rect class="cls-1" x="192" y="576" width="64" height="64"/><rect class="cls-1" x="320" y="576" width="64" height="64"/><rect class="cls-1" x="448" y="576" width="64" height="64"/><rect class="cls-2" x="128" y="576" width="64" height="64"/><rect class="cls-2" x="256" y="576" width="64" height="64"/><rect class="cls-2" x="384" y="576" width="64" height="64"/><polygon class="cls-3" points="876 584 876 602 852 602 852 584 840 584 840 632 852 632 852 613 876 613 876 632 888 632 888 584 876 584"/><polygon class="cls-3" points="172 584 172 602 148 602 148 584 136 584 136 632 148 632 148 613 172 613 172 632 184 632 184 584 172 584"/><polygon class="cls-3" points="52 621 38 621 38 595 52 595 52 584 12 584 12 595 26 595 26 621 12 621 12 632 52 632 52 621"/><path class="cls-3" d="M230,584H218l-20,48h13l3-8h20l3,8h13Zm-13.5,30,7.5-18,7.5,18Z"/><polygon class="cls-3" points="760 632 760 621 724 621 724 584 712 584 712 632 713 632 760 632"/><path class="cls-3" d="M609,632c14,0,24-10,24-24s-10-24-24-24H584v48Zm-13-37h13c7,0,12,5,12,13s-5,13-12,13H596Z"/><polygon class="cls-3" points="696 632 696 621 660 621 660 613 684 613 684 602 660 602 660 595 696 595 696 584 648 584 648 632 649 632 696 632"/><polygon class="cls-3" points="376 632 376 621 340 621 340 613 364 613 364 602 340 602 340 595 376 595 376 584 328 584 328 632 329 632 376 632"/><path class="cls-3" d="M788,618h20c10,0,17-7,17-17s-7-17-17-17H776v48h12Zm0-23h19a6,6,0,0,1,0,12H788Z"/><polygon class="cls-3" points="295 607 313 584 298 584 285 602 276 602 276 584 264 584 264 632 276 632 276 613 285 613 298 632 313 632 295 608 295 607"/><polygon class="cls-3" points="428 614 403 584 392 584 392 632 404 632 404 602 429 632 440 632 440 584 428 584 428 614"/><path class="cls-3" d="M489,603H472c-3,0-5-2-5-4.5s2-4.5,5-4.5h16v0a4.8691,4.8691,0,0,1,4.49,2.4746L502,591c-2.59-4.6247-7.463-7-13-7v0H471c-8,0-15,5-15,14.5s7,14.5,15,14.5h17c3,0,5,2,5,4.5s-2,4.5-5,4.5H471a4.8691,4.8691,0,0,1-4.49-2.4746L457,625c2.59,4.6246,7.463,7,13,7h19c8,0,15-5,15-14.5S497,603,489,603Z"/><rect class="cls-1" x="640" y="640" width="64" height="64"/><rect class="cls-1" x="768" y="640" width="64" height="64"/><rect class="cls-1" y="640" width="64" height="64"/><rect class="cls-1" x="128" y="640" width="64" height="64"/><rect class="cls-2" x="704" y="640" width="64" height="64"/><rect class="cls-2" x="832" y="640" width="64" height="64"/><rect class="cls-2" x="64" y="640" width="64" height="64"/><rect class="cls-2" x="576" y="640" width="64" height="64"/><rect class="cls-1" x="256" y="640" width="64" height="64"/><rect class="cls-1" x="384" y="640" width="64" height="64"/><rect class="cls-1" x="512" y="640" width="64" height="64"/><rect class="cls-2" x="192" y="640" width="64" height="64"/><rect class="cls-2" x="320" y="640" width="64" height="64"/><rect class="cls-2" x="448" y="640" width="64" height="64"/><polygon class="cls-3" points="44 648 44 666 20 666 20 648 8 648 8 696 20 696 20 677 44 677 44 696 56 696 56 648 44 648"/><polygon class="cls-3" points="236 648 236 666 212 666 212 648 200 648 200 696 212 696 212 677 236 677 236 696 248 696 248 648 236 648"/><polygon class="cls-3" points="116 685 102 685 102 659 116 659 116 648 76 648 76 659 90 659 90 685 76 685 76 696 116 696 116 685"/><path class="cls-3" d="M294,648H282l-20,48h13l3-8h20l3,8h13Zm-13.5,30,7.5-18,7.5,18Z"/><polygon class="cls-3" points="824 696 824 685 788 685 788 648 776 648 776 696 777 696 824 696"/><path class="cls-3" d="M673,696c14,0,24-10,24-24s-10-24-24-24H648v48Zm-13-37h13c7,0,12,5,12,13s-5,13-12,13H660Z"/><polygon class="cls-3" points="760 696 760 685 724 685 724 677 748 677 748 666 724 666 724 659 760 659 760 648 712 648 712 696 713 696 760 696"/><polygon class="cls-3" points="440 696 440 685 404 685 404 677 428 677 428 666 404 666 404 659 440 659 440 648 392 648 392 696 393 696 440 696"/><path class="cls-3" d="M852,682h20c10,0,17-7,17-17s-7-17-17-17H840v48h12Zm0-23h19a6,6,0,0,1,0,12H852Z"/><polygon class="cls-3" points="359 671 377 648 362 648 349 666 340 666 340 648 328 648 328 696 340 696 340 677 349 677 362 696 377 696 359 672 359 671"/><polygon class="cls-3" points="492 678 467 648 456 648 456 696 468 696 468 666 493 696 504 696 504 648 492 648 492 678"/><path class="cls-3" d="M553,667H536c-3,0-5-2-5-4.5s2-4.5,5-4.5h16v0a4.8691,4.8691,0,0,1,4.49,2.4746L566,655c-2.59-4.6247-7.463-7-13-7v0H535c-8,0-15,5-15,14.5s7,14.5,15,14.5h17c3,0,5,2,5,4.5s-2,4.5-5,4.5H535a4.8691,4.8691,0,0,1-4.49-2.4746L521,689c2.59,4.6246,7.463,7,13,7h19c8,0,15-5,15-14.5S561,667,553,667Z"/><rect class="cls-1" x="704" y="704" width="64" height="64"/><rect class="cls-1" x="832" y="704" width="64" height="64"/><rect class="cls-1" x="64" y="704" width="64" height="64"/><rect class="cls-1" x="192" y="704" width="64" height="64"/><rect class="cls-2" x="768" y="704" width="64" height="64"/><rect class="cls-2" y="704" width="64" height="64"/><rect class="cls-2" x="128" y="704" width="64" height="64"/><rect class="cls-2" x="640" y="704" width="64" height="64"/><rect class="cls-1" x="320" y="704" width="64" height="64"/><rect class="cls-1" x="448" y="704" width="64" height="64"/><rect class="cls-1" x="576" y="704" width="64" height="64"/><rect class="cls-2" x="256" y="704" width="64" height="64"/><rect class="cls-2" x="384" y="704" width="64" height="64"/><rect class="cls-2" x="512" y="704" width="64" height="64"/><polygon class="cls-3" points="108 712 108 730 84 730 84 712 72 712 72 760 84 760 84 741 108 741 108 760 120 760 120 712 108 712"/><polygon class="cls-3" points="300 712 300 730 276 730 276 712 264 712 264 760 276 760 276 741 300 741 300 760 312 760 312 712 300 712"/><polygon class="cls-3" points="180 749 166 749 166 723 180 723 180 712 140 712 140 723 154 723 154 749 140 749 140 760 180 760 180 749"/><path class="cls-3" d="M358,712H346l-20,48h13l3-8h20l3,8h13Zm-13.5,30,7.5-18,7.5,18Z"/><polygon class="cls-3" points="888 760 888 749 852 749 852 712 840 712 840 760 841 760 888 760"/><path class="cls-3" d="M737,760c14,0,24-10,24-24s-10-24-24-24H712v48Zm-13-37h13c7,0,12,5,12,13s-5,13-12,13H724Z"/><polygon class="cls-3" points="824 760 824 749 788 749 788 741 812 741 812 730 788 730 788 723 824 723 824 712 776 712 776 760 777 760 824 760"/><polygon class="cls-3" points="504 760 504 749 468 749 468 741 492 741 492 730 468 730 468 723 504 723 504 712 456 712 456 760 457 760 504 760"/><path class="cls-3" d="M20,746H40c10,0,17-7,17-17s-7-17-17-17H8v48H20Zm0-23H39a6,6,0,0,1,0,12H20Z"/><polygon class="cls-3" points="423 735 441 712 426 712 413 730 404 730 404 712 392 712 392 760 404 760 404 741 413 741 426 760 441 760 423 736 423 735"/><polygon class="cls-3" points="556 742 531 712 520 712 520 760 532 760 532 730 557 760 568 760 568 712 556 712 556 742"/><path class="cls-3" d="M617,731H600c-3,0-5-2-5-4.5s2-4.5,5-4.5h16v0a4.8691,4.8691,0,0,1,4.49,2.4746L630,719c-2.59-4.6247-7.463-7-13-7v0H599c-8,0-15,5-15,14.5s7,14.5,15,14.5h17c3,0,5,2,5,4.5s-2,4.5-5,4.5H599a4.8691,4.8691,0,0,1-4.49-2.4746L585,753c2.59,4.6246,7.463,7,13,7h19c8,0,15-5,15-14.5S625,731,617,731Z"/><rect class="cls-1" x="768" y="768" width="64" height="64"/><rect class="cls-1" y="768" width="64" height="64"/><rect class="cls-1" x="128" y="768" width="64" height="64"/><rect class="cls-1" x="256" y="768" width="64" height="64"/><rect class="cls-2" x="832" y="768" width="64" height="64"/><rect class="cls-2" x="64" y="768" width="64" height="64"/><rect class="cls-2" x="192" y="768" width="64" height="64"/><rect class="cls-2" x="704" y="768" width="64" height="64"/><rect class="cls-1" x="384" y="768" width="64" height="64"/><rect class="cls-1" x="512" y="768" width="64" height="64"/><rect class="cls-1" x="640" y="768" width="64" height="64"/><rect class="cls-2" x="320" y="768" width="64" height="64"/><rect class="cls-2" x="448" y="768" width="64" height="64"/><rect class="cls-2" x="576" y="768" width="64" height="64"/><polygon class="cls-3" points="172 776 172 794 148 794 148 776 136 776 136 824 148 824 148 805 172 805 172 824 184 824 184 776 172 776"/><polygon class="cls-3" points="364 776 364 794 340 794 340 776 328 776 328 824 340 824 340 805 364 805 364 824 376 824 376 776 364 776"/><polygon class="cls-3" points="244 813 230 813 230 787 244 787 244 776 204 776 204 787 218 787 218 813 204 813 204 824 244 824 244 813"/><path class="cls-3" d="M422,776H410l-20,48h13l3-8h20l3,8h13Zm-13.5,30,7.5-18,7.5,18Z"/><polygon class="cls-3" points="56 824 56 813 20 813 20 776 8 776 8 824 9 824 56 824"/><path class="cls-3" d="M801,824c14,0,24-10,24-24s-10-24-24-24H776v48Zm-13-37h13c7,0,12,5,12,13s-5,13-12,13H788Z"/><polygon class="cls-3" points="888 824 888 813 852 813 852 805 876 805 876 794 852 794 852 787 888 787 888 776 840 776 840 824 841 824 888 824"/><polygon class="cls-3" points="568 824 568 813 532 813 532 805 556 805 556 794 532 794 532 787 568 787 568 776 520 776 520 824 521 824 568 824"/><path class="cls-3" d="M84,810h20c10,0,17-7,17-17s-7-17-17-17H72v48H84Zm0-23h19a6,6,0,0,1,0,12H84Z"/><polygon class="cls-3" points="487 799 505 776 490 776 477 794 468 794 468 776 456 776 456 824 468 824 468 805 477 805 490 824 505 824 487 800 487 799"/><polygon class="cls-3" points="620 806 595 776 584 776 584 824 596 824 596 794 621 824 632 824 632 776 620 776 620 806"/><path class="cls-3" d="M681,795H664c-3,0-5-2-5-4.5s2-4.5,5-4.5h16v0a4.8691,4.8691,0,0,1,4.49,2.4746L694,783c-2.59-4.6247-7.463-7-13-7v0H663c-8,0-15,5-15,14.5s7,14.5,15,14.5h17c3,0,5,2,5,4.5s-2,4.5-5,4.5H663a4.8691,4.8691,0,0,1-4.49-2.4746L649,817c2.59,4.6246,7.463,7,13,7h19c8,0,15-5,15-14.5S689,795,681,795Z"/><rect class="cls-1" x="832" y="832" width="64" height="64"/><rect class="cls-1" x="64" y="832" width="64" height="64"/><rect class="cls-1" x="192" y="832" width="64" height="64"/><rect class="cls-1" x="320" y="832" width="64" height="64"/><rect class="cls-2" y="832" width="64" height="64"/><rect class="cls-2" x="128" y="832" width="64" height="64"/><rect class="cls-2" x="256" y="832" width="64" height="64"/><rect class="cls-2" x="768" y="832" width="64" height="64"/><rect class="cls-1" x="448" y="832" width="64" height="64"/><rect class="cls-1" x="576" y="832" width="64" height="64"/><rect class="cls-1" x="704" y="832" width="64" height="64"/><rect class="cls-2" x="384" y="832" width="64" height="64"/><rect class="cls-2" x="512" y="832" width="64" height="64"/><rect class="cls-2" x="640" y="832" width="64" height="64"/><polygon class="cls-3" points="236 840 236 858 212 858 212 840 200 840 200 888 212 888 212 869 236 869 236 888 248 888 248 840 236 840"/><polygon class="cls-3" points="428 840 428 858 404 858 404 840 392 840 392 888 404 888 404 869 428 869 428 888 440 888 440 840 428 840"/><polygon class="cls-3" points="308 877 294 877 294 851 308 851 308 840 268 840 268 851 282 851 282 877 268 877 268 888 308 888 308 877"/><path class="cls-3" d="M486,840H474l-20,48h13l3-8h20l3,8h13Zm-13.5,30,7.5-18,7.5,18Z"/><polygon class="cls-3" points="120 888 120 877 84 877 84 840 72 840 72 888 73 888 120 888"/><path class="cls-3" d="M865,888c14,0,24-10,24-24s-10-24-24-24H840v48Zm-13-37h13c7,0,12,5,12,13s-5,13-12,13H852Z"/><polygon class="cls-3" points="56 888 56 877 20 877 20 869 44 869 44 858 20 858 20 851 56 851 56 840 8 840 8 888 9 888 56 888"/><polygon class="cls-3" points="632 888 632 877 596 877 596 869 620 869 620 858 596 858 596 851 632 851 632 840 584 840 584 888 585 888 632 888"/><path class="cls-3" d="M148,874h20c10,0,17-7,17-17s-7-17-17-17H136v48h12Zm0-23h19a6,6,0,0,1,0,12H148Z"/><polygon class="cls-3" points="551 863 569 840 554 840 541 858 532 858 532 840 520 840 520 888 532 888 532 869 541 869 554 888 569 888 551 864 551 863"/><polygon class="cls-3" points="684 870 659 840 648 840 648 888 660 888 660 858 685 888 696 888 696 840 684 840 684 870"/><path class="cls-3" d="M745,859H728c-3,0-5-2-5-4.5s2-4.5,5-4.5h16v0a4.8691,4.8691,0,0,1,4.49,2.4746L758,847c-2.59-4.6247-7.463-7-13-7v0H727c-8,0-15,5-15,14.5s7,14.5,15,14.5h17c3,0,5,2,5,4.5s-2,4.5-5,4.5H727a4.8691,4.8691,0,0,1-4.49-2.4746L713,881c2.59,4.6246,7.463,7,13,7h19c8,0,15-5,15-14.5S753,859,745,859Z"/></svg>