<svg id="Layer_1" data-name="Layer 1" xmlns="http://www.w3.org/2000/svg" viewBox="0 0 896 896"><polygon points="396.725 37 420.725 37 418.054 56 430.054 56 436.8 8 424.8 8 422.271 26 398.271 26 400.8 8 388.8 8 382.054 56 394.054 56 396.725 37"/><polygon points="588.725 37 612.725 37 610.054 56 622.054 56 628.8 8 616.8 8 614.271 26 590.271 26 592.8 8 580.8 8 574.054 56 586.054 56 588.725 37"/><polygon points="491.6 45 477.6 45 481.254 19 495.254 19 496.8 8 456.8 8 455.254 19 469.254 19 465.6 45 451.6 45 450.054 56 490.054 56 491.6 45"/><path d="M649.0543,56l4.1243-8h20l1.8757,8h13L674.8,8h-12L636.0543,56Zm18.0595-36,4.97,18h-15Z"/><polygon points="302.054 56 303.6 45 267.6 45 272.8 8 260.8 8 254.054 56 255.054 56 302.054 56"/><path d="M178.4273,32C180.3948,18,171.8,8,157.8,8h-25l-6.7459,48h25A27.3925,27.3925,0,0,0,178.4273,32Zm-35.173-13h13c7,0,11.2973,5,10.173,13S159.6,45,152.6,45h-13Z"/><polygon points="238.054 56 239.6 45 203.6 45 204.725 37 228.725 37 230.271 26 206.271 26 207.254 19 243.254 19 244.8 8 196.8 8 190.054 56 191.054 56 238.054 56"/><polygon points="814.054 56 815.6 45 779.6 45 780.725 37 804.725 37 806.271 26 782.271 26 783.254 19 819.254 19 820.8 8 772.8 8 766.054 56 767.054 56 814.054 56"/><path d="M332.0219,42h20a19.2823,19.2823,0,0,0,19.3892-17C372.8165,15,366.8,8,356.8,8h-32L324.66,9l-6.6054,47h12Zm3.2324-23h19c3,0,5.7189,2,5.1568,6a6.8286,6.8286,0,0,1-6.8433,6h-19Z"/><polygon points="716.725 37 725.725 37 736.054 56 751.054 56 736.427 32 736.568 31 757.8 8 742.8 8 727.271 26 718.271 26 720.8 8 708.8 8 702.054 56 714.054 56 716.725 37"/><polygon points="846.271 26 867.054 56 878.054 56 884.8 8 872.8 8 868.584 38 847.8 8 836.8 8 830.054 56 842.054 56 846.271 26"/><polygon points="451.73 101 475.73 101 473.06 120 485.06 120 491.806 72 479.806 72 477.276 90 453.276 90 455.806 72 443.806 72 437.06 120 449.06 120 451.73 101"/><polygon points="643.73 101 667.73 101 665.06 120 677.06 120 683.806 72 671.806 72 669.276 90 645.276 90 647.806 72 635.806 72 629.06 120 641.06 120 643.73 101"/><polygon points="546.606 109 532.606 109 536.26 83 550.26 83 551.806 72 511.806 72 510.26 83 524.26 83 520.606 109 506.606 109 505.06 120 545.06 120 546.606 109"/><path d="M704.06,120l4.1243-8h20l1.8757,8h13l-13.254-48h-12L691.06,120Zm18.0594-36,4.97,18h-15Z"/><polygon points="357.06 120 358.606 109 322.606 109 327.806 72 315.806 72 309.06 120 310.06 120 357.06 120"/><path d="M233.4327,96c1.9676-14-6.627-24-20.627-24h-25l-6.746,48h25A27.3925,27.3925,0,0,0,233.4327,96ZM198.26,83h13c7,0,11.2973,5,10.173,13s-6.827,13-13.827,13h-13Z"/><polygon points="293.06 120 294.606 109 258.606 109 259.73 101 283.73 101 285.276 90 261.276 90 262.26 83 298.26 83 299.806 72 251.806 72 245.06 120 246.06 120 293.06 120"/><polygon points="869.06 120 870.606 109 834.606 109 835.73 101 859.73 101 861.276 90 837.276 90 838.26 83 874.26 83 875.806 72 827.806 72 821.06 120 822.06 120 869.06 120"/><path d="M387.0273,106h20a19.2822,19.2822,0,0,0,19.3891-17c1.4054-10-4.6107-17-14.6107-17h-32l-.1406,1L373.06,120h12ZM390.26,83h19c3,0,5.7189,2,5.1567,6a6.8285,6.8285,0,0,1-6.8432,6h-19Z"/><polygon points="771.73 101 780.73 101 791.06 120 806.06 120 791.433 96 791.573 95 812.806 72 797.806 72 782.276 90 773.276 90 775.806 72 763.806 72 757.06 120 769.06 120 771.73 101"/><polygon points="891.806 72 885.06 120 896 120 896 72 891.806 72"/><polygon points="506.735 165 530.735 165 528.065 184 540.065 184 546.811 136 534.811 136 532.281 154 508.281 154 510.811 136 498.811 136 492.065 184 504.065 184 506.735 165"/><polygon points="698.735 165 722.735 165 720.065 184 732.065 184 738.811 136 726.811 136 724.281 154 700.281 154 702.811 136 690.811 136 684.065 184 696.065 184 698.735 165"/><polygon points="601.611 173 587.611 173 591.265 147 605.265 147 606.811 136 566.811 136 565.265 147 579.265 147 575.611 173 561.611 173 560.065 184 600.065 184 601.611 173"/><path d="M759.0651,184l4.1243-8h20l1.8757,8h13L784.811,136h-12l-26.7459,48Zm18.0595-36,4.97,18h-15Z"/><polygon points="412.065 184 413.611 173 377.611 173 382.811 136 370.811 136 364.065 184 365.065 184 412.065 184"/><path d="M288.438,160c1.9676-14-6.627-24-20.627-24h-25l-6.7459,48h25A27.3923,27.3923,0,0,0,288.438,160Zm-35.1729-13h13c7,0,11.2973,5,10.1729,13s-6.827,13-13.827,13h-13Z"/><polygon points="348.065 184 349.611 173 313.611 173 314.735 165 338.735 165 340.281 154 316.281 154 317.265 147 353.265 147 354.811 136 306.811 136 300.065 184 301.065 184 348.065 184"/><polygon points="876.065 184 877.065 184 896 184 896 173 889.611 173 890.735 165 896 165 896 154 892.281 154 893.265 147 896 147 896 136 882.811 136 876.065 184"/><path d="M442.0327,170h20a19.2822,19.2822,0,0,0,19.3891-17c1.4055-10-4.6108-17-14.6108-17h-32l-.14,1-6.6054,47h12Zm3.2324-23h19c3,0,5.7189,2,5.1567,6a6.8285,6.8285,0,0,1-6.8432,6h-19Z"/><polygon points="826.735 165 835.735 165 846.065 184 861.065 184 846.438 160 846.579 159 867.811 136 852.811 136 837.281 154 828.281 154 830.811 136 818.811 136 812.065 184 824.065 184 826.735 165"/><path d="M129.4056,146h16a4.1322,4.1322,0,0,1,4.1418,2.4746L159.8272,143c-1.94-4.6245-6.4792-7-12.0162-7h-18c-8,0-15.7027,5-17.0378,14.5s4.9622,14.5,12.9622,14.5h17c3,0,4.7189,2,4.3675,4.5a5.47,5.47,0,0,1-5.6324,4.5h-17a4.1322,4.1322,0,0,1-4.1418-2.4746L110.0488,177c1.94,4.6248,6.4793,7,12.0163,7h19c8,0,15.7027-5,17.0378-14.5S153.1407,155,145.1407,155h-17c-3,0-4.7189-2-4.3675-4.5A5.47,5.47,0,0,1,129.4056,146Z"/><polygon points="561.741 229 585.741 229 583.07 248 595.07 248 601.816 200 589.816 200 587.287 218 563.287 218 565.816 200 553.816 200 547.07 248 559.07 248 561.741 229"/><polygon points="753.741 229 777.741 229 775.07 248 787.07 248 793.816 200 781.816 200 779.287 218 755.287 218 757.816 200 745.816 200 739.07 248 751.07 248 753.741 229"/><polygon points="656.616 237 642.616 237 646.27 211 660.27 211 661.816 200 621.816 200 620.27 211 634.27 211 630.616 237 616.616 237 615.07 248 655.07 248 656.616 237"/><path d="M814.07,248l4.1244-8h20l1.8756,8h13l-13.254-48h-12L801.07,248Zm18.06-36,4.97,18h-15Z"/><polygon points="467.07 248 468.616 237 432.616 237 437.816 200 425.816 200 419.07 248 420.07 248 467.07 248"/><path d="M343.4434,224c1.9676-14-6.627-24-20.627-24h-25l-6.746,48h25A27.3924,27.3924,0,0,0,343.4434,224ZM308.27,211h13c7,0,11.2973,5,10.173,13s-6.827,13-13.827,13h-13Z"/><polygon points="403.07 248 404.616 237 368.616 237 369.741 229 393.741 229 395.287 218 371.287 218 372.27 211 408.27 211 409.816 200 361.816 200 355.07 248 356.07 248 403.07 248"/><path d="M497.038,234h20a19.2823,19.2823,0,0,0,19.3892-17c1.4054-10-4.6108-17-14.6108-17h-32l-.14,1L483.07,248h12Zm3.2324-23h19c3,0,5.719,2,5.1568,6a6.8285,6.8285,0,0,1-6.8432,6h-19Z"/><polygon points="883.287 218 885.816 200 873.816 200 867.07 248 879.07 248 881.741 229 890.741 229 896 238.674 896 213.696 892.287 218 883.287 218"/><polygon points="137.6 230 116.816 200 105.816 200 99.07 248 111.07 248 115.287 218 136.07 248 147.07 248 153.816 200 141.816 200 137.6 230"/><path d="M184.411,210h16a4.1322,4.1322,0,0,1,4.1418,2.4746L214.8326,207c-1.94-4.6245-6.4792-7-12.0162-7h-18c-8,0-15.7027,5-17.0378,14.5s4.9621,14.5,12.9621,14.5h17c3,0,4.719,2,4.3676,4.5a5.47,5.47,0,0,1-5.6324,4.5h-17a4.1322,4.1322,0,0,1-4.1418-2.4746L165.0543,241c1.94,4.6248,6.4791,7,12.0161,7h19c8,0,15.7027-5,17.0379-14.5S208.1461,219,200.1461,219h-17c-3,0-4.7189-2-4.3675-4.5A5.47,5.47,0,0,1,184.411,210Z"/><polygon points="616.746 293 640.746 293 638.076 312 650.076 312 656.822 264 644.822 264 642.292 282 618.292 282 620.822 264 608.822 264 602.076 312 614.076 312 616.746 293"/><polygon points="808.746 293 832.746 293 830.076 312 842.076 312 848.822 264 836.822 264 834.292 282 810.292 282 812.822 264 800.822 264 794.076 312 806.076 312 808.746 293"/><polygon points="711.622 301 697.622 301 701.276 275 715.276 275 716.822 264 676.822 264 675.276 275 689.276 275 685.622 301 671.622 301 670.076 312 710.076 312 711.622 301"/><path d="M882.8218,264l-26.7459,48h13l4.1243-8h20l1.8757,8H896V268.267L894.8218,264Zm-5.7162,30,10.03-18,4.97,18Z"/><polygon points="522.076 312 523.622 301 487.622 301 492.822 264 480.822 264 474.076 312 475.076 312 522.076 312"/><path d="M398.4489,288c1.9675-14-6.6271-24-20.6271-24h-25l-6.7459,48h25A27.3925,27.3925,0,0,0,398.4489,288Zm-35.173-13h13c7,0,11.2973,5,10.173,13s-6.8271,13-13.8271,13h-13Z"/><polygon points="458.076 312 459.622 301 423.622 301 424.746 293 448.746 293 450.292 282 426.292 282 427.276 275 463.276 275 464.822 264 416.822 264 410.076 312 411.076 312 458.076 312"/><polygon points="90.076 312 91.076 312 138.076 312 139.622 301 103.622 301 104.746 293 128.746 293 130.292 282 106.292 282 107.276 275 143.276 275 144.822 264 96.822 264 90.076 312"/><path d="M552.0434,298h20a19.2823,19.2823,0,0,0,19.3892-17c1.4054-10-4.6108-17-14.6108-17h-32l-.1405,1-6.6054,47h12Zm3.2325-23h19c3,0,5.7189,2,5.1567,6a6.8285,6.8285,0,0,1-6.8432,6h-19Z"/><polygon points="192.606 294 171.822 264 160.822 264 154.076 312 166.076 312 170.292 282 191.076 312 202.076 312 208.822 264 196.822 264 192.606 294"/><path d="M239.4164,274h16a4.1322,4.1322,0,0,1,4.1418,2.4746L269.838,271c-1.94-4.6245-6.4792-7-12.0162-7h-18c-8,0-15.7027,5-17.0379,14.5s4.9622,14.5,12.9622,14.5h17c3,0,4.7189,2,4.3676,4.5a5.47,5.47,0,0,1-5.6324,4.5h-17a4.1322,4.1322,0,0,1-4.1418-2.4746L220.06,305c1.94,4.6248,6.4793,7,12.0163,7h19c8,0,15.7027-5,17.0378-14.5S263.1516,283,255.1516,283h-17c-3,0-4.719-2-4.3677-4.5A5.47,5.47,0,0,1,239.4164,274Z"/><polygon points="671.752 357 695.752 357 693.081 376 705.081 376 711.827 328 699.827 328 697.297 346 673.297 346 675.827 328 663.827 328 657.081 376 669.081 376 671.752 357"/><polygon points="889.297 346 865.297 346 867.827 328 855.827 328 849.081 376 861.081 376 863.752 357 887.752 357 885.081 376 896 376 896 328 891.827 328 889.297 346"/><polygon points="766.627 365 752.627 365 756.281 339 770.281 339 771.827 328 731.827 328 730.281 339 744.281 339 740.627 365 726.627 365 725.081 376 765.081 376 766.627 365"/><polygon points="577.081 376 578.627 365 542.627 365 547.827 328 535.827 328 529.081 376 530.081 376 577.081 376"/><path d="M453.4542,352c1.9676-14-6.627-24-20.627-24h-25l-6.746,48h25A27.3925,27.3925,0,0,0,453.4542,352Zm-35.173-13h13c7,0,11.2974,5,10.173,13s-6.827,13-13.827,13h-13Z"/><polygon points="513.081 376 514.627 365 478.627 365 479.752 357 503.752 357 505.297 346 481.297 346 482.281 339 518.281 339 519.827 328 471.827 328 465.081 376 466.081 376 513.081 376"/><polygon points="145.081 376 146.081 376 193.081 376 194.627 365 158.627 365 159.752 357 183.752 357 185.297 346 161.297 346 162.281 339 198.281 339 199.827 328 151.827 328 145.081 376"/><path d="M607.0488,362h20a19.2823,19.2823,0,0,0,19.3892-17c1.4054-10-4.6108-17-14.6108-17h-32l-.1406,1-6.6054,47h12Zm3.2324-23h19c3,0,5.719,2,5.1568,6a6.8286,6.8286,0,0,1-6.8433,6h-19Z"/><polygon points="115.595 351 136.827 328 121.827 328 106.297 346 97.297 346 99.827 328 87.827 328 81.081 376 93.081 376 95.752 357 104.752 357 115.081 376 130.081 376 115.454 352 115.595 351"/><polygon points="247.611 358 226.827 328 215.827 328 209.081 376 221.081 376 225.297 346 246.081 376 257.081 376 263.827 328 251.827 328 247.611 358"/><path d="M294.4218,338h16a4.132,4.132,0,0,1,4.1417,2.4746L324.8434,335c-1.94-4.6245-6.4792-7-12.0162-7h-18c-8,0-15.7027,5-17.0378,14.5s4.9621,14.5,12.9621,14.5h17c3,0,4.7189,2,4.3676,4.5a5.47,5.47,0,0,1-5.6325,4.5h-17a4.1324,4.1324,0,0,1-4.1418-2.4746L275.065,369c1.94,4.6248,6.4793,7,12.0162,7h19c8,0,15.7027-5,17.0379-14.5S318.1569,347,310.1569,347h-17c-3,0-4.7189-2-4.3675-4.5A5.47,5.47,0,0,1,294.4218,338Z"/><polygon points="726.757 421 750.757 421 748.087 440 760.087 440 766.833 392 754.833 392 752.303 410 728.303 410 730.833 392 718.833 392 712.087 440 724.087 440 726.757 421"/><polygon points="821.633 429 807.633 429 811.287 403 825.287 403 826.833 392 786.833 392 785.287 403 799.287 403 795.633 429 781.633 429 780.087 440 820.087 440 821.633 429"/><path d="M96.8326,392l-26.746,48h13l4.1243-8h20l1.8757,8h13l-13.254-48Zm-5.7163,30,10.03-18,4.97,18Z"/><polygon points="632.087 440 633.633 429 597.633 429 602.833 392 590.833 392 584.087 440 585.087 440 632.087 440"/><path d="M508.46,416c1.9676-14-6.627-24-20.627-24h-25l-6.746,48h25A27.3925,27.3925,0,0,0,508.46,416Zm-35.173-13h13c7,0,11.2973,5,10.173,13s-6.827,13-13.827,13h-13Z"/><polygon points="568.087 440 569.633 429 533.633 429 534.757 421 558.757 421 560.303 410 536.303 410 537.287 403 573.287 403 574.833 392 526.833 392 520.087 440 521.087 440 568.087 440"/><polygon points="200.087 440 201.087 440 248.087 440 249.633 429 213.633 429 214.757 421 238.757 421 240.303 410 216.303 410 217.287 403 253.287 403 254.833 392 206.833 392 200.087 440"/><path d="M662.0542,426h20a19.2823,19.2823,0,0,0,19.3892-17c1.4054-10-4.6108-17-14.6108-17h-32l-.1406,1-6.6054,47h12Zm3.2324-23h19c3,0,5.719,2,5.1568,6a6.8285,6.8285,0,0,1-6.8432,6h-19Z"/><polygon points="170.6 415 191.833 392 176.833 392 161.303 410 152.303 410 154.833 392 142.833 392 136.087 440 148.087 440 150.757 421 159.757 421 170.087 440 185.087 440 170.46 416 170.6 415"/><polygon points="302.616 422 281.833 392 270.833 392 264.087 440 276.087 440 280.303 410 301.087 440 312.087 440 318.833 392 306.833 392 302.616 422"/><path d="M349.4272,402h16a4.1322,4.1322,0,0,1,4.1418,2.4746L379.8488,399c-1.94-4.6245-6.4792-7-12.0162-7h-18c-8,0-15.7027,5-17.0379,14.5s4.9622,14.5,12.9622,14.5h17c3,0,4.7189,2,4.3676,4.5a5.47,5.47,0,0,1-5.6325,4.5h-17a4.1322,4.1322,0,0,1-4.1418-2.4746L330.07,433c1.94,4.6248,6.4792,7,12.0162,7h19c8,0,15.7027-5,17.0379-14.5S373.1623,411,365.1623,411h-17c-3,0-4.7189-2-4.3676-4.5A5.47,5.47,0,0,1,349.4272,402Z"/><polygon points="781.762 485 805.762 485 803.092 504 815.092 504 821.838 456 809.838 456 807.308 474 783.308 474 785.838 456 773.838 456 767.092 504 779.092 504 781.762 485"/><polygon points="103.308 474 79.308 474 81.838 456 69.838 456 63.092 504 75.092 504 77.762 485 101.762 485 99.092 504 111.092 504 117.838 456 105.838 456 103.308 474"/><polygon points="876.638 493 862.638 493 866.292 467 880.292 467 881.838 456 841.838 456 840.292 467 854.292 467 850.638 493 836.638 493 835.092 504 875.092 504 876.638 493"/><path d="M151.838,456l-26.746,48h13l4.1243-8h20l1.8757,8h13l-13.254-48Zm-5.7162,30,10.03-18,4.97,18Z"/><polygon points="687.092 504 688.638 493 652.638 493 657.838 456 645.838 456 639.092 504 640.092 504 687.092 504"/><path d="M542.838,456h-25l-6.746,48h25a27.3925,27.3925,0,0,0,27.373-24C565.4326,466,556.838,456,542.838,456Zm8.627,24c-1.1244,8-6.8271,13-13.8271,13h-13l3.6541-26h13C548.292,467,552.5893,472,551.465,480Z"/><polygon points="623.092 504 624.638 493 588.638 493 589.762 485 613.762 485 615.308 474 591.308 474 592.292 467 628.292 467 629.838 456 581.838 456 575.092 504 576.092 504 623.092 504"/><polygon points="255.092 504 256.092 504 303.092 504 304.638 493 268.638 493 269.762 485 293.762 485 295.308 474 271.308 474 272.292 467 308.292 467 309.838 456 261.838 456 255.092 504"/><path d="M717.06,490h20a19.2824,19.2824,0,0,0,19.3892-17c1.4054-10-4.6108-17-14.6108-17h-32l-.1406,1-6.6054,47h12Zm3.2324-23h19c3,0,5.7189,2,5.1568,6a6.8286,6.8286,0,0,1-6.8433,6h-19Z"/><polygon points="225.606 479 246.838 456 231.838 456 216.308 474 207.308 474 209.838 456 197.838 456 191.092 504 203.092 504 205.762 485 214.762 485 225.092 504 240.092 504 225.465 480 225.606 479"/><polygon points="357.622 486 336.838 456 325.838 456 319.092 504 331.092 504 335.308 474 356.092 504 367.092 504 373.838 456 361.838 456 357.622 486"/><path d="M404.4326,466h16a4.1322,4.1322,0,0,1,4.1417,2.4746L434.8542,463c-1.94-4.6245-6.4793-7-12.0162-7h-18c-8,0-15.7027,5-17.0379,14.5s4.9622,14.5,12.9622,14.5h17c3,0,4.7189,2,4.3675,4.5a5.47,5.47,0,0,1-5.6324,4.5h-17a4.1321,4.1321,0,0,1-4.1417-2.4746L385.0758,497c1.94,4.6248,6.4792,7,12.0162,7h19c8,0,15.7027-5,17.0378-14.5S428.1677,475,420.1677,475h-17c-3,0-4.7189-2-4.3676-4.5A5.47,5.47,0,0,1,404.4326,466Z"/><polygon points="836.768 549 860.768 549 858.097 568 870.097 568 876.843 520 864.843 520 862.314 538 838.314 538 840.843 520 828.843 520 822.097 568 834.097 568 836.768 549"/><polygon points="158.314 538 134.314 538 136.843 520 124.843 520 118.097 568 130.097 568 132.768 549 156.768 549 154.097 568 166.097 568 172.843 520 160.843 520 158.314 538"/><polygon points="891.643 557 890.097 568 896 568 896 557 891.643 557"/><polygon points="896 531 896 526.001 895.297 531 896 531"/><path d="M206.8434,520l-26.746,48h13l4.1243-8h20l1.8757,8h13l-13.254-48Zm-5.7163,30,10.03-18,4.97,18Z"/><polygon points="742.097 568 743.643 557 707.643 557 712.843 520 700.843 520 694.097 568 695.097 568 742.097 568"/><path d="M597.8434,520h-25l-6.746,48h25a27.3925,27.3925,0,0,0,27.373-24C620.4379,530,611.8434,520,597.8434,520Zm8.627,24c-1.1243,8-6.827,13-13.827,13h-13l3.654-26h13C603.2974,531,607.5947,536,606.47,544Z"/><polygon points="678.097 568 679.643 557 643.643 557 644.768 549 668.768 549 670.314 538 646.314 538 647.297 531 683.297 531 684.843 520 636.843 520 630.097 568 631.097 568 678.097 568"/><polygon points="310.097 568 311.097 568 358.097 568 359.643 557 323.643 557 324.768 549 348.768 549 350.314 538 326.314 538 327.297 531 363.297 531 364.843 520 316.843 520 310.097 568"/><path d="M772.0649,554h20a19.2824,19.2824,0,0,0,19.3893-17c1.4054-10-4.6108-17-14.6108-17h-32l-.1406,1-6.6054,47h12Zm3.2325-23h19c3,0,5.7189,2,5.1568,6a6.8286,6.8286,0,0,1-6.8433,6h-19Z"/><polygon points="280.611 543 301.843 520 286.843 520 271.314 538 262.314 538 264.843 520 252.843 520 246.097 568 258.097 568 260.768 549 269.768 549 280.097 568 295.097 568 280.47 544 280.611 543"/><polygon points="412.627 550 391.843 520 380.843 520 374.097 568 386.097 568 390.314 538 411.097 568 422.097 568 428.843 520 416.843 520 412.627 550"/><path d="M459.4379,530h16a4.1322,4.1322,0,0,1,4.1418,2.4746L489.86,527c-1.94-4.6245-6.4792-7-12.0162-7h-18c-8,0-15.7027,5-17.0378,14.5s4.9621,14.5,12.9621,14.5h17c3,0,4.719,2,4.3677,4.5a5.47,5.47,0,0,1-5.6325,4.5h-17a4.1322,4.1322,0,0,1-4.1418-2.4746L440.0812,561c1.94,4.6248,6.4792,7,12.0162,7h19c8,0,15.7027-5,17.0379-14.5S483.1731,539,475.1731,539h-17c-3,0-4.7189-2-4.3676-4.5A5.47,5.47,0,0,1,459.4379,530Z"/><polygon points="895.849 584 883.849 584 877.103 632 889.103 632 891.773 613 896 613 896 602 893.319 602 895.849 584"/><polygon points="213.319 602 189.319 602 191.849 584 179.849 584 173.103 632 185.103 632 187.773 613 211.773 613 209.103 632 221.103 632 227.849 584 215.849 584 213.319 602"/><polygon points="54.303 595 68.303 595 64.649 621 50.649 621 49.103 632 89.103 632 90.649 621 76.649 621 80.303 595 94.303 595 95.849 584 55.849 584 54.303 595"/><path d="M261.8488,584l-26.746,48h13l4.1243-8h20l1.8757,8h13l-13.254-48Zm-5.7163,30,10.03-18,4.97,18Z"/><polygon points="797.103 632 798.649 621 762.649 621 767.849 584 755.849 584 749.103 632 750.103 632 797.103 632"/><path d="M652.8488,584h-25l-6.746,48h25a27.3925,27.3925,0,0,0,27.373-24C675.4434,594,666.8488,584,652.8488,584Zm8.627,24c-1.1244,8-6.8271,13-13.8271,13h-13l3.6541-26h13C658.3028,595,662.6,600,661.4758,608Z"/><polygon points="685.103 632 686.103 632 733.103 632 734.649 621 698.649 621 699.773 613 723.773 613 725.319 602 701.319 602 702.303 595 738.303 595 739.849 584 691.849 584 685.103 632"/><polygon points="365.103 632 366.103 632 413.103 632 414.649 621 378.649 621 379.773 613 403.773 613 405.319 602 381.319 602 382.303 595 418.303 595 419.849 584 371.849 584 365.103 632"/><path d="M827.07,618h20A19.2822,19.2822,0,0,0,866.46,601c1.4054-10-4.6107-17-14.6107-17h-32l-.1406,1-6.6054,47h12Zm3.2324-23h19c3,0,5.7189,2,5.1567,6a6.8285,6.8285,0,0,1-6.8432,6h-19Z"/><polygon points="356.849 584 341.849 584 326.319 602 317.319 602 319.849 584 307.849 584 301.103 632 313.103 632 315.773 613 324.773 613 335.103 632 350.103 632 335.476 608 335.616 607 356.849 584"/><polygon points="467.633 614 446.849 584 435.849 584 429.103 632 441.103 632 445.319 602 466.103 632 477.103 632 483.849 584 471.849 584 467.633 614"/><path d="M514.4433,594h16a4.1322,4.1322,0,0,1,4.1417,2.4746L544.8649,591c-1.94-4.6245-6.4792-7-12.0161-7h-18c-8,0-15.7027,5-17.0379,14.5s4.9622,14.5,12.9622,14.5h17c3,0,4.7188,2,4.3675,4.5a5.47,5.47,0,0,1-5.6324,4.5h-17a4.1322,4.1322,0,0,1-4.1418-2.4746L495.0865,625c1.94,4.6248,6.4793,7,12.0163,7h19c8,0,15.7027-5,17.0378-14.5S538.1785,603,530.1785,603h-17c-3,0-4.719-2-4.3676-4.5A5.47,5.47,0,0,1,514.4433,594Z"/><polygon points="76.324 666 52.324 666 54.854 648 42.854 648 36.108 696 48.108 696 50.778 677 74.778 677 72.108 696 84.108 696 90.854 648 78.854 648 76.324 666"/><polygon points="268.324 666 244.324 666 246.854 648 234.854 648 228.108 696 240.108 696 242.778 677 266.778 677 264.108 696 276.108 696 282.854 648 270.854 648 268.324 666"/><polygon points="109.308 659 123.308 659 119.654 685 105.654 685 104.108 696 144.108 696 145.654 685 131.654 685 135.308 659 149.308 659 150.854 648 110.854 648 109.308 659"/><path d="M316.8541,648l-26.7459,48h13l4.1243-8h20l1.8757,8h13l-13.2541-48Zm-5.7162,30,10.03-18,4.97,18Z"/><polygon points="852.108 696 853.654 685 817.654 685 822.854 648 810.854 648 804.108 696 805.108 696 852.108 696"/><path d="M707.8541,648h-25l-6.7459,48h25a27.3924,27.3924,0,0,0,27.3729-24C730.4487,658,721.8541,648,707.8541,648Zm8.627,24c-1.1243,8-6.827,13-13.827,13h-13l3.6541-26h13C713.3082,659,717.6055,664,716.4811,672Z"/><polygon points="740.108 696 741.108 696 788.108 696 789.654 685 753.654 685 754.778 677 778.778 677 780.324 666 756.324 666 757.308 659 793.308 659 794.854 648 746.854 648 740.108 696"/><polygon points="420.108 696 421.108 696 468.108 696 469.654 685 433.654 685 434.778 677 458.778 677 460.324 666 436.324 666 437.308 659 473.308 659 474.854 648 426.854 648 420.108 696"/><polygon points="874.714 649 868.108 696 880.108 696 882.076 682 896 682 896 671 883.622 671 885.308 659 896 659 896 648 874.854 648 874.714 649"/><polygon points="411.854 648 396.854 648 381.324 666 372.324 666 374.854 648 362.854 648 356.108 696 368.108 696 370.778 677 379.778 677 390.108 696 405.108 696 390.481 672 390.622 671 411.854 648"/><polygon points="522.638 678 501.854 648 490.854 648 484.108 696 496.108 696 500.324 666 521.108 696 532.108 696 538.854 648 526.854 648 522.638 678"/><path d="M569.4487,658h16a4.1322,4.1322,0,0,1,4.1418,2.4746L599.87,655c-1.94-4.6245-6.4793-7-12.0163-7h-18c-8,0-15.7027,5-17.0378,14.5s4.9621,14.5,12.9621,14.5h17c3,0,4.719,2,4.3676,4.5a5.47,5.47,0,0,1-5.6325,4.5h-17a4.1322,4.1322,0,0,1-4.1417-2.4746L550.0919,689c1.94,4.6248,6.4793,7,12.0163,7h19c8,0,15.7027-5,17.0378-14.5S593.1838,667,585.1838,667h-17c-3,0-4.7189-2-4.3675-4.5A5.47,5.47,0,0,1,569.4487,658Z"/><polygon points="131.33 730 107.33 730 109.859 712 97.859 712 91.114 760 103.114 760 105.784 741 129.784 741 127.114 760 139.114 760 145.859 712 133.859 712 131.33 730"/><polygon points="323.33 730 299.33 730 301.859 712 289.859 712 283.114 760 295.114 760 297.784 741 321.784 741 319.114 760 331.114 760 337.859 712 325.859 712 323.33 730"/><polygon points="164.314 723 178.314 723 174.659 749 160.659 749 159.114 760 199.114 760 200.659 749 186.659 749 190.314 723 204.314 723 205.859 712 165.859 712 164.314 723"/><path d="M371.86,712l-26.746,48h13l4.1244-8h20l1.8756,8h13L383.86,712Zm-5.7162,30,10.03-18,4.97,18Z"/><polygon points="877.859 712 865.859 712 859.114 760 860.114 760 896 760 896 749 872.659 749 877.859 712"/><path d="M762.86,712h-25l-6.746,48h25a27.3924,27.3924,0,0,0,27.373-24C785.4541,722,776.86,712,762.86,712Zm8.627,24c-1.1243,8-6.827,13-13.827,13h-13l3.654-26h13C768.3135,723,772.6108,728,771.4865,736Z"/><polygon points="795.114 760 796.114 760 843.114 760 844.659 749 808.659 749 809.784 741 833.784 741 835.33 730 811.33 730 812.314 723 848.314 723 849.859 712 801.859 712 795.114 760"/><polygon points="475.114 760 476.114 760 523.114 760 524.659 749 488.659 749 489.784 741 513.784 741 515.33 730 491.33 730 492.314 723 528.314 723 529.859 712 481.859 712 475.114 760"/><path d="M65.86,712h-32l-.14,1-6.6055,47h12l1.9676-14h20A19.2823,19.2823,0,0,0,80.47,729C81.8757,719,75.86,712,65.86,712ZM68.47,729a6.8285,6.8285,0,0,1-6.8432,6h-19l1.6864-12h19C66.3135,723,69.0325,725,68.47,729Z"/><polygon points="466.859 712 451.859 712 436.33 730 427.33 730 429.859 712 417.859 712 411.114 760 423.114 760 425.784 741 434.784 741 445.114 760 460.114 760 445.487 736 445.627 735 466.859 712"/><polygon points="577.643 742 556.859 712 545.859 712 539.114 760 551.114 760 555.33 730 576.114 760 587.114 760 593.859 712 581.859 712 577.643 742"/><path d="M624.4541,722h16a4.1322,4.1322,0,0,1,4.1418,2.4746L654.8757,719c-1.94-4.6245-6.4792-7-12.0162-7h-18c-8,0-15.7027,5-17.0378,14.5s4.9621,14.5,12.9621,14.5h17c3,0,4.7189,2,4.3676,4.5a5.47,5.47,0,0,1-5.6324,4.5h-17a4.1322,4.1322,0,0,1-4.1418-2.4746L605.0974,753c1.94,4.6248,6.4791,7,12.0161,7h19c8,0,15.7027-5,17.0379-14.5S648.1892,731,640.1892,731h-17c-3,0-4.7189-2-4.3675-4.5A5.47,5.47,0,0,1,624.4541,722Z"/><polygon points="186.335 794 162.335 794 164.865 776 152.865 776 146.119 824 158.119 824 160.789 805 184.789 805 182.119 824 194.119 824 200.865 776 188.865 776 186.335 794"/><polygon points="378.335 794 354.335 794 356.865 776 344.865 776 338.119 824 350.119 824 352.789 805 376.789 805 374.119 824 386.119 824 392.865 776 380.865 776 378.335 794"/><polygon points="219.319 787 233.319 787 229.665 813 215.665 813 214.119 824 254.119 824 255.665 813 241.665 813 245.319 787 259.319 787 260.865 776 220.865 776 219.319 787"/><path d="M426.8649,776,400.119,824h13l4.1243-8h20l1.8757,8h13l-13.2541-48Zm-5.7162,30,10.03-18,4.97,18Z"/><polygon points="36.865 776 24.865 776 18.119 824 19.119 824 66.119 824 67.665 813 31.665 813 36.865 776"/><path d="M817.8649,776h-25l-6.7459,48h25a27.3923,27.3923,0,0,0,27.3729-24C840.46,786,831.8649,776,817.8649,776Zm8.627,24c-1.1243,8-6.827,13-13.827,13h-13l3.6541-26h13C823.319,787,827.6163,792,826.4919,800Z"/><polygon points="850.119 824 851.119 824 896 824 896 813 863.665 813 864.789 805 888.789 805 890.335 794 866.335 794 867.319 787 896 787 896 776 856.865 776 850.119 824"/><polygon points="530.119 824 531.119 824 578.119 824 579.665 813 543.665 813 544.789 805 568.789 805 570.335 794 546.335 794 547.319 787 583.319 787 584.865 776 536.865 776 530.119 824"/><path d="M120.8649,776h-32l-.1405,1L82.119,824h12l1.9675-14h20a19.2823,19.2823,0,0,0,19.3892-17C136.8811,783,130.8649,776,120.8649,776Zm2.6108,17a6.8286,6.8286,0,0,1-6.8433,6h-19l1.6866-12h19C121.319,787,124.0378,789,123.4757,793Z"/><polygon points="521.865 776 506.865 776 491.335 794 482.335 794 484.865 776 472.865 776 466.119 824 478.119 824 480.789 805 489.789 805 500.119 824 515.119 824 500.492 800 500.632 799 521.865 776"/><polygon points="632.649 806 611.865 776 600.865 776 594.119 824 606.119 824 610.335 794 631.119 824 642.119 824 648.865 776 636.865 776 632.649 806"/><path d="M679.46,786h16a4.1323,4.1323,0,0,1,4.1418,2.4746L709.8811,783c-1.94-4.6245-6.4792-7-12.0162-7h-18c-8,0-15.7027,5-17.0379,14.5s4.9622,14.5,12.9622,14.5h17c3,0,4.7189,2,4.3676,4.5a5.47,5.47,0,0,1-5.6324,4.5h-17a4.1322,4.1322,0,0,1-4.1418-2.4746L660.1027,817c1.94,4.6248,6.4793,7,12.0163,7h19c8,0,15.7027-5,17.0378-14.5S703.1946,795,695.1946,795h-17c-3,0-4.7189-2-4.3676-4.5A5.47,5.47,0,0,1,679.46,786Z"/><polygon points="241.341 858 217.341 858 219.87 840 207.87 840 201.124 888 213.124 888 215.795 869 239.795 869 237.124 888 249.124 888 255.87 840 243.87 840 241.341 858"/><polygon points="433.341 858 409.341 858 411.87 840 399.87 840 393.124 888 405.124 888 407.795 869 431.795 869 429.124 888 441.124 888 447.87 840 435.87 840 433.341 858"/><polygon points="274.324 851 288.324 851 284.67 877 270.67 877 269.124 888 309.124 888 310.67 877 296.67 877 300.324 851 314.324 851 315.87 840 275.87 840 274.324 851"/><path d="M481.87,840l-26.746,48h13l4.1244-8h20l1.8756,8h13L493.87,840Zm-5.7162,30,10.03-18,4.97,18Z"/><polygon points="91.87 840 79.87 840 73.124 888 74.124 888 121.124 888 122.67 877 86.67 877 91.87 840"/><path d="M872.87,840h-25l-6.746,48h25a27.3925,27.3925,0,0,0,27.373-24C895.4649,850,886.87,840,872.87,840Zm8.627,24c-1.1243,8-6.827,13-13.827,13h-13l3.654-26h13C878.3243,851,882.6216,856,881.4973,864Z"/><polygon points="9.124 888 10.124 888 57.124 888 58.67 877 22.67 877 23.795 869 47.795 869 49.341 858 25.341 858 26.324 851 62.324 851 63.87 840 15.87 840 9.124 888"/><polygon points="585.124 888 586.124 888 633.124 888 634.67 877 598.67 877 599.795 869 623.795 869 625.341 858 601.341 858 602.324 851 638.324 851 639.87 840 591.87 840 585.124 888"/><path d="M175.87,840h-32l-.1406,1-6.6054,47h12l1.9676-14h20a19.2823,19.2823,0,0,0,19.3892-17C191.8865,847,185.87,840,175.87,840Zm2.6108,17a6.8286,6.8286,0,0,1-6.8433,6h-19l1.6865-12h19C176.3243,851,179.0433,853,178.4811,857Z"/><polygon points="576.87 840 561.87 840 546.341 858 537.341 858 539.87 840 527.87 840 521.124 888 533.124 888 535.795 869 544.795 869 555.124 888 570.124 888 555.497 864 555.638 863 576.87 840"/><polygon points="687.654 870 666.87 840 655.87 840 649.124 888 661.124 888 665.341 858 686.124 888 697.124 888 703.87 840 691.87 840 687.654 870"/><path d="M734.4648,850h16a4.132,4.132,0,0,1,4.1417,2.4746L764.8865,847c-1.94-4.6245-6.4792-7-12.0162-7h-18c-8,0-15.7027,5-17.0378,14.5s4.9621,14.5,12.9621,14.5h17c3,0,4.7189,2,4.3676,4.5A5.47,5.47,0,0,1,746.53,878h-17a4.1322,4.1322,0,0,1-4.1418-2.4746L715.1081,881c1.94,4.6248,6.4792,7,12.0162,7h19c8,0,15.7027-5,17.0379-14.5S758.2,859,750.2,859h-17c-3,0-4.7189-2-4.3675-4.5A5.47,5.47,0,0,1,734.4648,850Z"/><path d="M19.3948,18h16a4.1322,4.1322,0,0,1,4.1418,2.4746L49.8165,15c-1.94-4.6245-6.4793-7-12.0163-7h-18c-8,0-15.7027,5-17.0378,14.5S7.7245,37,15.7245,37h17c3,0,4.719,2,4.3677,4.5A5.47,5.47,0,0,1,31.46,46h-17a4.1322,4.1322,0,0,1-4.1418-2.4746L.0381,49c1.94,4.6248,6.4792,7,12.0162,7h19c8,0,15.7027-5,17.0379-14.5S43.13,27,35.13,27h-17c-3,0-4.7189-2-4.3676-4.5A5.47,5.47,0,0,1,19.3948,18Z"/><polygon points="5.276 90 26.06 120 37.06 120 43.806 72 31.806 72 27.589 102 6.806 72 0 72 0 120 1.06 120 5.276 90"/><path d="M74.4,82h16a4.1322,4.1322,0,0,1,4.1417,2.4746L104.8218,79c-1.94-4.6245-6.4791-7-12.0161-7h-18c-8,0-15.7028,5-17.0379,14.5S62.73,101,70.73,101h17c3,0,4.7189,2,4.3675,4.5a5.47,5.47,0,0,1-5.6324,4.5h-17a4.1322,4.1322,0,0,1-4.1418-2.4746L55.0435,113c1.94,4.6248,6.4792,7,12.0162,7h19c8,0,15.7027-5,17.0378-14.5S98.1354,91,90.1354,91h-17c-3,0-4.719-2-4.3676-4.5A5.47,5.47,0,0,1,74.4,82Z"/><polygon points="20.281 154 0 154 0 165 18.735 165 20.281 154"/><polygon points="34.811 136 0 136 0 147 33.265 147 34.811 136"/><polygon points="29.611 173 0 173 0 184 28.065 184 29.611 173"/><polygon points="82.595 166 61.811 136 50.811 136 44.065 184 56.065 184 60.281 154 81.065 184 92.065 184 98.811 136 86.811 136 82.595 166"/><polygon points="35.07 248 36.07 248 83.07 248 84.616 237 48.616 237 49.741 229 73.741 229 75.287 218 51.287 218 52.27 211 88.27 211 89.816 200 41.816 200 35.07 248"/><polygon points="20.07 248 5.443 224 5.584 223 26.816 200 11.816 200 0 213.696 0 238.674 5.07 248 20.07 248"/><polygon points="0 268.267 0 312 12.076 312 0 268.267"/><polygon points="60.589 287 81.822 264 66.822 264 51.292 282 42.292 282 44.822 264 32.822 264 26.076 312 38.076 312 40.746 293 49.746 293 60.076 312 75.076 312 60.449 288 60.589 287"/><polygon points="7.827 328 0 328 0 376 1.081 376 7.827 328"/><path d="M41.8272,328l-26.746,48h13l4.1244-8h20l1.8756,8h13l-13.254-48ZM36.111,358l10.03-18,4.97,18Z"/><polygon points="48.303 410 24.303 410 26.833 392 14.833 392 8.087 440 20.087 440 22.757 421 46.757 421 44.087 440 56.087 440 62.833 392 50.833 392 48.303 410"/><polygon points="35.643 557 21.643 557 25.297 531 39.297 531 40.843 520 0.843 520 0 526.001 0 531 13.297 531 9.643 557 0 557 0 568 34.097 568 35.643 557"/><polygon points="17.103 632 29.103 632 35.849 584 23.849 584 21.319 602 0 602 0 613 19.773 613 17.103 632"/><path d="M25.4649,665c1.4055-10-4.6108-17-14.6108-17H0v11H8.3082c3,0,5.7189,2,5.1567,6a6.8285,6.8285,0,0,1-6.8432,6H0v11H6.0757A19.2823,19.2823,0,0,0,25.4649,665Z"/><polygon points="12.659 749 0 749 0 760 11.114 760 12.659 749"/><polygon points="8.865 776 0 776 0 787 7.319 787 8.865 776"/></svg>