<svg xmlns="http://www.w3.org/2000/svg" width="192px" height="192px" viewBox="0 0 256 256"><path d="M126.46,239.7035a76.9212,76.9212,0,0,0,.8892-9.2c-.0655-3.89.2129-7.837-1.0166-11.6737-.359-1.12-.0046-2.4938.1174-3.742.2685-2.7464.6974-5.4806.87-8.2319.1411-2.2458-.0128-4.5093-.0006-6.7647.01-1.81.0411-3.6212.122-5.4291.0586-1.3083.2284-2.6112.3228-3.9183.1-1.38.2312-2.7619.2328-4.143a33.5829,33.5829,0,0,0-.2492-3.7793c-.1781-1.5834-.5254-3.151-.6443-4.7372-.2726-3.6361-.6262-7.28-.6162-10.9195.0093-3.3983.1207-6.8079,1.46-10.0847a15.6177,15.6177,0,0,0,.1754-10.3887c-.39-1.3736-.5967-2.8073-1.0772-4.1448a7.1461,7.1461,0,0,0-1.5564-2.6692c-2.0415-1.9951-4.2761-3.5083-7.4129-3.4424-4.5277.0951-9.0723-.0115-13.5912-.3122-3.1885-.2122-6.3169-.5734-9.5319-.0383a49.5163,49.5163,0,0,1-7.5065.3757,43.1686,43.1686,0,0,1-4.6109-.2928c-3.5552-.34-7.1048-.74-10.6611-1.0661a15.799,15.799,0,0,0-2.7416.0418c-5.276.4405-10.543,1.0976-15.8272,1.2911-2.9954.11-6.0138-.5854-9.03-.797a20.7468,20.7468,0,0,0-3.5947.2661c-1.6889.18-3.37.52-5.0607.5767a41.7891,41.7891,0,0,1-8.448-.4792c-3.3791-.5685-6.9714.2424-10.4724.262-2.1031.0118-4.2086-.3421-6.3124-.5383a9.0448,9.0448,0,0,0-1.9626-.1926,7.9635,7.9635,0,0,1-6.4095-1.9074,5.3758,5.3758,0,0,1-2.3741-5.1264c.1952-3.6126,2.18-5.5454,4.7168-7.3178a4.7894,4.7894,0,0,1,4.5594-.7793,2.8531,2.8531,0,0,0,.819.0925c2.2011.1144,4.4033.3251,6.6032.3033,1.804-.0179,3.6038-.332,5.4083-.4788a12.8647,12.8647,0,0,1,2.4607-.0473c2.2393.2518,4.4621.666,6.7047.8682a13.65,13.65,0,0,0,6.3017-.9389,14.5426,14.5426,0,0,1,9.7582-.1516c2.9942.9566,5.8835.4449,8.8222.3135,2.03-.0908,4.053-.4965,6.08-.5015,3.6771-.009,7.357.3059,11.0314.2419,3.4646-.06,6.9208-.5038,10.386-.6489,2.7977-.1171,5.6035-.0519,8.4056-.0462a23.312,23.312,0,0,1,5.2192.13c5.3465,1.2656,10.7746,1.4343,16.2107,1.6155,1.9656.0656,3.9355.0307,5.9027-.0038a2.66,2.66,0,0,0,1.4176-.3228c2.7314-1.925,5.31-3.9785,5.9409-7.5887.4069-2.3277.8238-4.66,1.3961-6.95.6143-2.4582-.4912-4.662-.778-6.9842-.0673-.5447-.18-1.0858-.2145-1.6322-.1222-1.9306-.2811-3.862-.305-5.7945-.0163-1.3184.1944-2.6382.257-3.9595.0565-1.1937.0239-2.3916.0775-3.5856.0618-1.3756.2322-2.7479.2544-4.1234.0479-2.9776-.0767-5.9617.0716-8.933.15-3.0009.4752-5.9984.8554-8.98.256-2.0087,1.1264-4.0065,1.0325-5.9761a51.4572,51.4572,0,0,0-1.4067-8.781,34.4987,34.4987,0,0,1-.2887-13.9648,64.4113,64.4113,0,0,0,.7325-7.7789,50.314,50.314,0,0,0-.4384-12.9475c-.5295-2.64-.7011-5.3553-.9737-8.0429a2.7359,2.7359,0,0,1,.3339-1.4337c.9828-1.9039,4.9137-3.6263,7.0795-3.3368,3.9142.5232,7.8424.9465,11.77,1.3583,3.5509.3723,7.1174.6077,10.66,1.0434a16.6022,16.6022,0,0,1,3.4417,1.1077c4.5527,1.6373,9.0463,3.465,13.6634,4.8906,4.89,1.51,9.0438,4.3,13.201,7.0756a57.17,57.17,0,0,0,11.65,6.1264c2.46.9268,4.4613,3.01,6.82,4.2942,2.9189,1.5887,4.3412,4.4986,6.4692,6.7777,1.8479,1.9792,3.5823,4.0648,5.3868,6.0855.7335.8214,1.5318,1.5843,2.28,2.3931,2.5464,2.753,5.1134,5.4878,7.6126,8.2835,1.397,1.5628,2.7044,3.2092,4.0022,4.8576a120.47,120.47,0,0,1,8.744,13.6449,49.8555,49.8555,0,0,1,5.2292,11.5639c.9575,3.3312,2.5523,6.4827,3.444,9.8267,1.018,3.8175,1.5116,7.773,2.3543,11.642.3364,1.5448,1.0967,2.9929,1.4894,4.53.8818,3.4522,2.3167,6.9323,2.3175,10.4013.0014,5.3242.5677,10.5464,1.0526,15.8108a14.31,14.31,0,0,1-.8527,5.6477c-.8478,2.54-1.681,4.999-1.4771,7.7476.0784,1.0578-.5409,2.153-.5577,3.2356-.0449,2.8959-.1821,5.7486-1.55,8.3893a1.0451,1.0451,0,0,0-.1087.4833c.1127,5.1953-3.22,9.3081-4.3946,14.1-1.0231,4.1721-3.2077,7.83-5.09,11.6319-.7392,1.493-.7937,3.3111-1.34,4.92-1.8668,5.4948-6.0284,9.3262-9.7878,13.4546a40.3886,40.3886,0,0,0-3.37,4.3,116.83,116.83,0,0,1-11.5156,14.7592,64.7107,64.7107,0,0,1-15.8327,12.1c-3.4722,1.9071-6.5715,4.4883-9.9913,6.5056a25.889,25.889,0,0,1-5.8143,2.212,24.85,24.85,0,0,0-8.2678,3.9071,47.696,47.696,0,0,1-9.7341,5.532c-2.0948.9134-4.5991.8893-6.9234,1.2616-1.5185.2433-3.0494.41-4.565.669-2.437.4157-4.8812.81-7.2929,1.3463-1.6013.3562-3.1217,1.14-4.7309,1.3845a58.5552,58.5552,0,0,1-7.8739.6681c-.9549.0146-1.9285-.7026-2.8772-1.123-.2414-.107-.4116-.3674-.63-.5377a11.6617,11.6617,0,0,1-4.6452-10.6029c.09-1.3282.0139-2.6675.0139-4.0017ZM141.4,107.1091l.4308.0214a12,12,0,0,0,1.8056,8.5893c2.5664,4.3238,6.0479,5.6608,10.7332,4.6655a21.0345,21.0345,0,0,1,8.3438-.1841c2.4263.4936,4.6214.84,6.8913-.1618a13.5391,13.5391,0,0,1,11.3325-.194,13.616,13.616,0,0,0,7.6318,1.4049c4.5911-.6538,9.2606-.7505,13.896-1.0954,1.04-.0774,2.0746-.289,3.1133-.3,3.7863-.041,7.5758.0611,11.3593-.0521,3.5961-.1076,7.1859-.4228,10.7794-.6311a6.1122,6.1122,0,0,1,1.4889.0618c3.9146.7492,8.43-2.916,8.22-6.9306-.2934-5.6087-2.0027-10.9239-3.7568-16.2178a23.8625,23.8625,0,0,1-1.1713-4.9314c-.3625-3.4271-.7-6.7819-2.9755-9.6387a70.76,70.76,0,0,1-4.9837-6.99c-3.805-6.1947-6.3821-13.145-11.6195-18.4591-3.09-3.1352-5.8126-6.6423-8.9712-9.7-3.9693-3.8429-8.1345-7.4953-12.375-11.0372a31.1641,31.1641,0,0,0-7.3692-4.9654c-4.7394-2.03-9.754-3.4032-14.5973-5.2033-2.0946-.7785-3.9738-2.1612-6.0837-2.8732-4.5152-1.5236-9.1134-2.8008-13.6868-4.1477a4.309,4.309,0,0,0-2.0834-.2909c-2.2682.5654-4.6672,4.6765-4.3807,6.9483a23.6621,23.6621,0,0,1-.0056,4.5768c-.15,2.1409-.4391,4.2717-.6524,6.4085a16.3863,16.3863,0,0,0-.1073,1.99c.0361,1.589.1255,3.1766.1774,4.7653.046,1.4043.0734,2.8093.1035,4.214.0377,1.7555.04,3.5124.1194,5.266.0294.6529.4126,1.3241.3244,1.9424-.5059,3.547-1.0226,7.0966-1.697,10.6142-.6045,3.1535-1.1625,6.1674-.0573,9.4252a23.1174,23.1174,0,0,1,.4294,11.3157,24.2742,24.2742,0,0,0-.1071,5.2672c.1535,2.7968.7055,5.5922.6279,8.3752A70.2949,70.2949,0,0,1,141.4,107.1091Zm7.8425,131.3536c1.1613-.3027,2.345-.5385,3.48-.92,3.8435-1.2931,7.6072-2.8809,11.52-3.8953,3.9953-1.0358,8.1034-1.6583,11.6433-3.95,3.5186-2.2783,6.9712-4.66,10.4373-7.0191,1.8652-1.2694,3.7417-2.529,5.5366-3.8943,3.591-2.7316,6.9356-5.8517,10.7585-8.1917a33.99,33.99,0,0,0,6.8261-5.1587,26.639,26.639,0,0,0,3.4346-5.1744c.6126-1.0413.7881-2.386,1.5217-3.303,2.587-3.2339,5.4332-6.2614,7.9739-9.53a43.7731,43.7731,0,0,0,3.6479-6.0376c.5992-1.1011.9075-2.3578,1.4064-3.5186,1.7275-4.0192,3.6479-7.9476,4.0924-12.4234a21.7509,21.7509,0,0,1,1.5126-4.7036c1.2245-3.5395,2.5182-7.0561,3.6771-10.6169.6434-1.9771.9688-4.0588,1.6177-6.0336,1.838-5.5932-3.2726-10.02-7.4081-9.5542-6.0106.677-12.0116,1.5789-18.0425,1.9014-7.3893.395-14.8053.3821-22.2094.3652-3.8462-.0088-7.6919-.5883-11.5371-.58-4.3993.0095-8.798.56-13.1965.5543-4.7324-.0067-9.4629-.4571-14.1974-.5532a6.5511,6.5511,0,0,0-3.4159.9485c-4.8677,3.04-5.6165,6.752-5.143,12.6368.2605,3.2369.2144,6.5.27,9.7518.0364,2.143-.3883,4.38.0862,6.4122,1.1283,4.8305,1.9461,9.6094,1.1974,14.5893-.3847,2.5587-.4486,5.1652-.6806,7.7481-.1772,1.972-.5471,3.9408-.5454,5.9108.0017,2.0866.5063,4.1739.4936,6.259-.0178,2.9146-.4629,5.8282-.4489,8.7409.0178,3.7041.36,7.4054.471,11.1107.0823,2.7475.0329,5.5.0129,8.2492a8.297,8.297,0,0,1-.1983,2.947C142.4381,234.9585,146.0854,238.7079,149.2421,238.4627Z" transform="translate(0.0737)"/></svg>